<?xml version="1.0" encoding="UTF-8" standalone="no"?>
<!DOCTYPE svg PUBLIC "-//W3C//DTD SVG 1.1//EN" "http://www.w3.org/Graphics/SVG/1.1/DTD/svg11.dtd">
<svg width="100%" height="100%" viewBox="0 0 2550 3300" xmlns="http://www.w3.org/2000/svg">
	<g transform="translate(79, 825)" style="fill:rgb(200,200,255);">
	<circle cx="507" cy="159" r="159"/>
	<text x="514" y="159" style="font-family:'Helvetica';font-size:159px;fill:rgb(102,102,102);" text-anchor="middle" dominant-baseline="central">01</text>
	<circle cx="840" cy="159" r="159"/>
	<text x="847" y="159" style="font-family:'Helvetica';font-size:159px;fill:rgb(102,102,102);" text-anchor="middle" dominant-baseline="central">02</text>
	<circle cx="1173" cy="159" r="159"/>
	<text x="1180" y="159" style="font-family:'Helvetica';font-size:159px;fill:rgb(102,102,102);" text-anchor="middle" dominant-baseline="central">03</text>
	<circle cx="1506" cy="159" r="159"/>
	<text x="1513" y="159" style="font-family:'Helvetica';font-size:159px;fill:rgb(102,102,102);" text-anchor="middle" dominant-baseline="central">04</text>
	<circle cx="1839" cy="159" r="159"/>
	<text x="1846" y="159" style="font-family:'Helvetica';font-size:159px;fill:rgb(102,102,102);" text-anchor="middle" dominant-baseline="central">05</text>
	<circle cx="2172" cy="159" r="159"/>
	<text x="2179" y="159" style="font-family:'Helvetica';font-size:159px;fill:rgb(102,102,102);" text-anchor="middle" dominant-baseline="central">06</text>
	<circle cx="174" cy="636" r="159"/>
	<text x="181" y="636" style="font-family:'Helvetica';font-size:159px;fill:rgb(102,102,102);" text-anchor="middle" dominant-baseline="central">07</text>
	<circle cx="507" cy="636" r="159"/>
	<text x="514" y="636" style="font-family:'Helvetica';font-size:159px;fill:rgb(102,102,102);" text-anchor="middle" dominant-baseline="central">08</text>
	<circle cx="840" cy="636" r="159"/>
	<text x="847" y="636" style="font-family:'Helvetica';font-size:159px;fill:rgb(102,102,102);" text-anchor="middle" dominant-baseline="central">09</text>
	<circle cx="1173" cy="636" r="159"/>
	<text x="1180" y="636" style="font-family:'Helvetica';font-size:159px;fill:rgb(102,102,102);" text-anchor="middle" dominant-baseline="central">10</text>
	<circle cx="1506" cy="636" r="159"/>
	<text x="1513" y="636" style="font-family:'Helvetica';font-size:159px;fill:rgb(102,102,102);" text-anchor="middle" dominant-baseline="central">11</text>
	<circle cx="1839" cy="636" r="159"/>
	<text x="1846" y="636" style="font-family:'Helvetica';font-size:159px;fill:rgb(102,102,102);" text-anchor="middle" dominant-baseline="central">12</text>
	<circle cx="2172" cy="636" r="159"/>
	<text x="2179" y="636" style="font-family:'Helvetica';font-size:159px;fill:rgb(102,102,102);" text-anchor="middle" dominant-baseline="central">13</text>
	<circle cx="174" cy="1113" r="159"/>
	<text x="181" y="1113" style="font-family:'Helvetica';font-size:159px;fill:rgb(102,102,102);" text-anchor="middle" dominant-baseline="central">14</text>
	<circle cx="507" cy="1113" r="159"/>
	<text x="514" y="1113" style="font-family:'Helvetica';font-size:159px;fill:rgb(102,102,102);" text-anchor="middle" dominant-baseline="central">15</text>
	<circle cx="840" cy="1113" r="159"/>
	<text x="847" y="1113" style="font-family:'Helvetica';font-size:159px;fill:rgb(102,102,102);" text-anchor="middle" dominant-baseline="central">16</text>
	<circle cx="1173" cy="1113" r="159"/>
	<text x="1180" y="1113" style="font-family:'Helvetica';font-size:159px;fill:rgb(102,102,102);" text-anchor="middle" dominant-baseline="central">17</text>
	<circle cx="1506" cy="1113" r="159"/>
	<text x="1513" y="1113" style="font-family:'Helvetica';font-size:159px;fill:rgb(102,102,102);" text-anchor="middle" dominant-baseline="central">18</text>
	<circle cx="1839" cy="1113" r="159"/>
	<text x="1846" y="1113" style="font-family:'Helvetica';font-size:159px;fill:rgb(102,102,102);" text-anchor="middle" dominant-baseline="central">19</text>
	<circle cx="2172" cy="1113" r="159"/>
	<text x="2179" y="1113" style="font-family:'Helvetica';font-size:159px;fill:rgb(102,102,102);" text-anchor="middle" dominant-baseline="central">20</text>
	<circle cx="174" cy="1590" r="159"/>
	<text x="181" y="1590" style="font-family:'Helvetica';font-size:159px;fill:rgb(102,102,102);" text-anchor="middle" dominant-baseline="central">21</text>
	<circle cx="507" cy="1590" r="159"/>
	<text x="514" y="1590" style="font-family:'Helvetica';font-size:159px;fill:rgb(102,102,102);" text-anchor="middle" dominant-baseline="central">22</text>
	<circle cx="840" cy="1590" r="159"/>
	<text x="847" y="1590" style="font-family:'Helvetica';font-size:159px;fill:rgb(102,102,102);" text-anchor="middle" dominant-baseline="central">23</text>
	<circle cx="1173" cy="1590" r="159"/>
	<text x="1180" y="1590" style="font-family:'Helvetica';font-size:159px;fill:rgb(102,102,102);" text-anchor="middle" dominant-baseline="central">24</text>
	<circle cx="1506" cy="1590" r="159"/>
	<text x="1513" y="1590" style="font-family:'Helvetica';font-size:159px;fill:rgb(102,102,102);" text-anchor="middle" dominant-baseline="central">25</text>
	<circle cx="1839" cy="1590" r="159"/>
	<text x="1846" y="1590" style="font-family:'Helvetica';font-size:159px;fill:rgb(102,102,102);" text-anchor="middle" dominant-baseline="central">26</text>
	<circle cx="2172" cy="1590" r="159"/>
	<text x="2179" y="1590" style="font-family:'Helvetica';font-size:159px;fill:rgb(102,102,102);" text-anchor="middle" dominant-baseline="central">27</text>
	<circle cx="174" cy="2067" r="159"/>
	<text x="181" y="2067" style="font-family:'Helvetica';font-size:159px;fill:rgb(102,102,102);" text-anchor="middle" dominant-baseline="central">28</text>
	<circle cx="507" cy="2067" r="159"/>
	<text x="514" y="2067" style="font-family:'Helvetica';font-size:159px;fill:rgb(102,102,102);" text-anchor="middle" dominant-baseline="central">29</text>
	<circle cx="840" cy="2067" r="159"/>
	<text x="847" y="2067" style="font-family:'Helvetica';font-size:159px;fill:rgb(102,102,102);" text-anchor="middle" dominant-baseline="central">30</text>
	<circle cx="1173" cy="2067" r="159"/>
	<text x="1180" y="2067" style="font-family:'Helvetica';font-size:159px;fill:rgb(102,102,102);" text-anchor="middle" dominant-baseline="central">31</text>
	</g>
	<g transform="translate(79, 412)" style="font-family:'Helvetica';font-size:318px;fill:rgb(102,102,102);">
		<text>January, 2018</text>
	</g>
</svg>