<?xml version="1.0" encoding="UTF-8" standalone="no"?>
<!DOCTYPE svg PUBLIC "-//W3C//DTD SVG 1.1//EN" "http://www.w3.org/Graphics/SVG/1.1/DTD/svg11.dtd">
<svg width="100%" height="100%" viewBox="0 0 2550 3300" xmlns="http://www.w3.org/2000/svg">
 <style>/* <![CDATA[ */circle{fill:rgb(200,200,255);}/* ]]> */</style>
	<g id="page_title" transform="translate(1275, 165)">
		<text x="0" y="0" style="font-family:'Helvetica';font-size:140px;fill:rgb(102,102,102);" text-anchor="middle" dominant-baseline="central">2018</text>
		</g>
<g id="calendar" width="2000" height="2600" transform="translate(275, 440)">
		<g id="January" transform="translate(0, 0)">
			<text x="0" y="0" style="font-family:'Helvetica';font-size:70px;fill:rgb(102,102,102);" text-anchor="left" dominant-baseline="central">January</text>
			<g id="January_weekbar" transform="translate(0, 105.0)" style="font-family:'Helvetica';font-size:35px;fill:rgb(102,102,102);" text-anchor="middle" dominant-baseline="central">
				<text x="35" y="0">Su</text>
				<text x="116" y="0">Mo</text>
				<text x="197" y="0">Tu</text>
				<text x="278" y="0">We</text>
				<text x="359" y="0">Th</text>
				<text x="440" y="0">Fr</text>
				<text x="521" y="0">Sa</text>
			</g>
			<g id="January_days" transform="translate(0, 105.0)" text-anchor="middle" dominant-baseline="central" style="font-family:'Helvetica';font-size:35px;fill:rgb(102,102,102);" >
				<circle cx="116" cy="81" r="35"/>
				<text x="116" y="81">01</text>
				<circle cx="197" cy="81" r="35"/>
				<text x="197" y="81">02</text>
				<circle cx="278" cy="81" r="35"/>
				<text x="278" y="81">03</text>
				<circle cx="359" cy="81" r="35"/>
				<text x="359" y="81">04</text>
				<circle cx="440" cy="81" r="35"/>
				<text x="440" y="81">05</text>
				<circle cx="521" cy="81" r="35"/>
				<text x="521" y="81">06</text>
				<circle cx="35" cy="162" r="35"/>
				<text x="35" y="162">07</text>
				<circle cx="116" cy="162" r="35"/>
				<text x="116" y="162">08</text>
				<circle cx="197" cy="162" r="35"/>
				<text x="197" y="162">09</text>
				<circle cx="278" cy="162" r="35"/>
				<text x="278" y="162">10</text>
				<circle cx="359" cy="162" r="35"/>
				<text x="359" y="162">11</text>
				<circle cx="440" cy="162" r="35"/>
				<text x="440" y="162">12</text>
				<circle cx="521" cy="162" r="35"/>
				<text x="521" y="162">13</text>
				<circle cx="35" cy="243" r="35"/>
				<text x="35" y="243">14</text>
				<circle cx="116" cy="243" r="35"/>
				<text x="116" y="243">15</text>
				<circle cx="197" cy="243" r="35"/>
				<text x="197" y="243">16</text>
				<circle cx="278" cy="243" r="35"/>
				<text x="278" y="243">17</text>
				<circle cx="359" cy="243" r="35"/>
				<text x="359" y="243">18</text>
				<circle cx="440" cy="243" r="35"/>
				<text x="440" y="243">19</text>
				<circle cx="521" cy="243" r="35"/>
				<text x="521" y="243">20</text>
				<circle cx="35" cy="324" r="35"/>
				<text x="35" y="324">21</text>
				<circle cx="116" cy="324" r="35"/>
				<text x="116" y="324">22</text>
				<circle cx="197" cy="324" r="35"/>
				<text x="197" y="324">23</text>
				<circle cx="278" cy="324" r="35"/>
				<text x="278" y="324">24</text>
				<circle cx="359" cy="324" r="35"/>
				<text x="359" y="324">25</text>
				<circle cx="440" cy="324" r="35"/>
				<text x="440" y="324">26</text>
				<circle cx="521" cy="324" r="35"/>
				<text x="521" y="324">27</text>
				<circle cx="35" cy="405" r="35"/>
				<text x="35" y="405">28</text>
				<circle cx="116" cy="405" r="35"/>
				<text x="116" y="405">29</text>
				<circle cx="197" cy="405" r="35"/>
				<text x="197" y="405">30</text>
				<circle cx="278" cy="405" r="35"/>
				<text x="278" y="405">31</text>
			</g>
		</g>
		<g id="February" transform="translate(736, 0)">
			<text x="0" y="0" style="font-family:'Helvetica';font-size:70px;fill:rgb(102,102,102);" text-anchor="left" dominant-baseline="central">February</text>
			<g id="February_weekbar" transform="translate(0, 105.0)" style="font-family:'Helvetica';font-size:35px;fill:rgb(102,102,102);" text-anchor="middle" dominant-baseline="central">
				<text x="35" y="0">Su</text>
				<text x="116" y="0">Mo</text>
				<text x="197" y="0">Tu</text>
				<text x="278" y="0">We</text>
				<text x="359" y="0">Th</text>
				<text x="440" y="0">Fr</text>
				<text x="521" y="0">Sa</text>
			</g>
			<g id="February_days" transform="translate(0, 105.0)" text-anchor="middle" dominant-baseline="central" style="font-family:'Helvetica';font-size:35px;fill:rgb(102,102,102);" >
				<circle cx="359" cy="81" r="35"/>
				<text x="359" y="81">01</text>
				<circle cx="440" cy="81" r="35"/>
				<text x="440" y="81">02</text>
				<circle cx="521" cy="81" r="35"/>
				<text x="521" y="81">03</text>
				<circle cx="35" cy="162" r="35"/>
				<text x="35" y="162">04</text>
				<circle cx="116" cy="162" r="35"/>
				<text x="116" y="162">05</text>
				<circle cx="197" cy="162" r="35"/>
				<text x="197" y="162">06</text>
				<circle cx="278" cy="162" r="35"/>
				<text x="278" y="162">07</text>
				<circle cx="359" cy="162" r="35"/>
				<text x="359" y="162">08</text>
				<circle cx="440" cy="162" r="35"/>
				<text x="440" y="162">09</text>
				<circle cx="521" cy="162" r="35"/>
				<text x="521" y="162">10</text>
				<circle cx="35" cy="243" r="35"/>
				<text x="35" y="243">11</text>
				<circle cx="116" cy="243" r="35"/>
				<text x="116" y="243">12</text>
				<circle cx="197" cy="243" r="35"/>
				<text x="197" y="243">13</text>
				<circle cx="278" cy="243" r="35"/>
				<text x="278" y="243">14</text>
				<circle cx="359" cy="243" r="35"/>
				<text x="359" y="243">15</text>
				<circle cx="440" cy="243" r="35"/>
				<text x="440" y="243">16</text>
				<circle cx="521" cy="243" r="35"/>
				<text x="521" y="243">17</text>
				<circle cx="35" cy="324" r="35"/>
				<text x="35" y="324">18</text>
				<circle cx="116" cy="324" r="35"/>
				<text x="116" y="324">19</text>
				<circle cx="197" cy="324" r="35"/>
				<text x="197" y="324">20</text>
				<circle cx="278" cy="324" r="35"/>
				<text x="278" y="324">21</text>
				<circle cx="359" cy="324" r="35"/>
				<text x="359" y="324">22</text>
				<circle cx="440" cy="324" r="35"/>
				<text x="440" y="324">23</text>
				<circle cx="521" cy="324" r="35"/>
				<text x="521" y="324">24</text>
				<circle cx="35" cy="405" r="35"/>
				<text x="35" y="405">25</text>
				<circle cx="116" cy="405" r="35"/>
				<text x="116" y="405">26</text>
				<circle cx="197" cy="405" r="35"/>
				<text x="197" y="405">27</text>
				<circle cx="278" cy="405" r="35"/>
				<text x="278" y="405">28</text>
			</g>
		</g>
		<g id="March" transform="translate(1472, 0)">
			<text x="0" y="0" style="font-family:'Helvetica';font-size:70px;fill:rgb(102,102,102);" text-anchor="left" dominant-baseline="central">March</text>
			<g id="March_weekbar" transform="translate(0, 105.0)" style="font-family:'Helvetica';font-size:35px;fill:rgb(102,102,102);" text-anchor="middle" dominant-baseline="central">
				<text x="35" y="0">Su</text>
				<text x="116" y="0">Mo</text>
				<text x="197" y="0">Tu</text>
				<text x="278" y="0">We</text>
				<text x="359" y="0">Th</text>
				<text x="440" y="0">Fr</text>
				<text x="521" y="0">Sa</text>
			</g>
			<g id="March_days" transform="translate(0, 105.0)" text-anchor="middle" dominant-baseline="central" style="font-family:'Helvetica';font-size:35px;fill:rgb(102,102,102);" >
				<circle cx="359" cy="81" r="35"/>
				<text x="359" y="81">01</text>
				<circle cx="440" cy="81" r="35"/>
				<text x="440" y="81">02</text>
				<circle cx="521" cy="81" r="35"/>
				<text x="521" y="81">03</text>
				<circle cx="35" cy="162" r="35"/>
				<text x="35" y="162">04</text>
				<circle cx="116" cy="162" r="35"/>
				<text x="116" y="162">05</text>
				<circle cx="197" cy="162" r="35"/>
				<text x="197" y="162">06</text>
				<circle cx="278" cy="162" r="35"/>
				<text x="278" y="162">07</text>
				<circle cx="359" cy="162" r="35"/>
				<text x="359" y="162">08</text>
				<circle cx="440" cy="162" r="35"/>
				<text x="440" y="162">09</text>
				<circle cx="521" cy="162" r="35"/>
				<text x="521" y="162">10</text>
				<circle cx="35" cy="243" r="35"/>
				<text x="35" y="243">11</text>
				<circle cx="116" cy="243" r="35"/>
				<text x="116" y="243">12</text>
				<circle cx="197" cy="243" r="35"/>
				<text x="197" y="243">13</text>
				<circle cx="278" cy="243" r="35"/>
				<text x="278" y="243">14</text>
				<circle cx="359" cy="243" r="35"/>
				<text x="359" y="243">15</text>
				<circle cx="440" cy="243" r="35"/>
				<text x="440" y="243">16</text>
				<circle cx="521" cy="243" r="35"/>
				<text x="521" y="243">17</text>
				<circle cx="35" cy="324" r="35"/>
				<text x="35" y="324">18</text>
				<circle cx="116" cy="324" r="35"/>
				<text x="116" y="324">19</text>
				<circle cx="197" cy="324" r="35"/>
				<text x="197" y="324">20</text>
				<circle cx="278" cy="324" r="35"/>
				<text x="278" y="324">21</text>
				<circle cx="359" cy="324" r="35"/>
				<text x="359" y="324">22</text>
				<circle cx="440" cy="324" r="35"/>
				<text x="440" y="324">23</text>
				<circle cx="521" cy="324" r="35"/>
				<text x="521" y="324">24</text>
				<circle cx="35" cy="405" r="35"/>
				<text x="35" y="405">25</text>
				<circle cx="116" cy="405" r="35"/>
				<text x="116" y="405">26</text>
				<circle cx="197" cy="405" r="35"/>
				<text x="197" y="405">27</text>
				<circle cx="278" cy="405" r="35"/>
				<text x="278" y="405">28</text>
				<circle cx="359" cy="405" r="35"/>
				<text x="359" y="405">29</text>
				<circle cx="440" cy="405" r="35"/>
				<text x="440" y="405">30</text>
				<circle cx="521" cy="405" r="35"/>
				<text x="521" y="405">31</text>
			</g>
		</g>
		<g id="April" transform="translate(0, 720)">
			<text x="0" y="0" style="font-family:'Helvetica';font-size:70px;fill:rgb(102,102,102);" text-anchor="left" dominant-baseline="central">April</text>
			<g id="April_weekbar" transform="translate(0, 105.0)" style="font-family:'Helvetica';font-size:35px;fill:rgb(102,102,102);" text-anchor="middle" dominant-baseline="central">
				<text x="35" y="0">Su</text>
				<text x="116" y="0">Mo</text>
				<text x="197" y="0">Tu</text>
				<text x="278" y="0">We</text>
				<text x="359" y="0">Th</text>
				<text x="440" y="0">Fr</text>
				<text x="521" y="0">Sa</text>
			</g>
			<g id="April_days" transform="translate(0, 105.0)" text-anchor="middle" dominant-baseline="central" style="font-family:'Helvetica';font-size:35px;fill:rgb(102,102,102);" >
				<circle cx="35" cy="81" r="35"/>
				<text x="35" y="81">01</text>
				<circle cx="116" cy="81" r="35"/>
				<text x="116" y="81">02</text>
				<circle cx="197" cy="81" r="35"/>
				<text x="197" y="81">03</text>
				<circle cx="278" cy="81" r="35"/>
				<text x="278" y="81">04</text>
				<circle cx="359" cy="81" r="35"/>
				<text x="359" y="81">05</text>
				<circle cx="440" cy="81" r="35"/>
				<text x="440" y="81">06</text>
				<circle cx="521" cy="81" r="35"/>
				<text x="521" y="81">07</text>
				<circle cx="35" cy="162" r="35"/>
				<text x="35" y="162">08</text>
				<circle cx="116" cy="162" r="35"/>
				<text x="116" y="162">09</text>
				<circle cx="197" cy="162" r="35"/>
				<text x="197" y="162">10</text>
				<circle cx="278" cy="162" r="35"/>
				<text x="278" y="162">11</text>
				<circle cx="359" cy="162" r="35"/>
				<text x="359" y="162">12</text>
				<circle cx="440" cy="162" r="35"/>
				<text x="440" y="162">13</text>
				<circle cx="521" cy="162" r="35"/>
				<text x="521" y="162">14</text>
				<circle cx="35" cy="243" r="35"/>
				<text x="35" y="243">15</text>
				<circle cx="116" cy="243" r="35"/>
				<text x="116" y="243">16</text>
				<circle cx="197" cy="243" r="35"/>
				<text x="197" y="243">17</text>
				<circle cx="278" cy="243" r="35"/>
				<text x="278" y="243">18</text>
				<circle cx="359" cy="243" r="35"/>
				<text x="359" y="243">19</text>
				<circle cx="440" cy="243" r="35"/>
				<text x="440" y="243">20</text>
				<circle cx="521" cy="243" r="35"/>
				<text x="521" y="243">21</text>
				<circle cx="35" cy="324" r="35"/>
				<text x="35" y="324">22</text>
				<circle cx="116" cy="324" r="35"/>
				<text x="116" y="324">23</text>
				<circle cx="197" cy="324" r="35"/>
				<text x="197" y="324">24</text>
				<circle cx="278" cy="324" r="35"/>
				<text x="278" y="324">25</text>
				<circle cx="359" cy="324" r="35"/>
				<text x="359" y="324">26</text>
				<circle cx="440" cy="324" r="35"/>
				<text x="440" y="324">27</text>
				<circle cx="521" cy="324" r="35"/>
				<text x="521" y="324">28</text>
				<circle cx="35" cy="405" r="35"/>
				<text x="35" y="405">29</text>
				<circle cx="116" cy="405" r="35"/>
				<text x="116" y="405">30</text>
			</g>
		</g>
		<g id="May" transform="translate(736, 720)">
			<text x="0" y="0" style="font-family:'Helvetica';font-size:70px;fill:rgb(102,102,102);" text-anchor="left" dominant-baseline="central">May</text>
			<g id="May_weekbar" transform="translate(0, 105.0)" style="font-family:'Helvetica';font-size:35px;fill:rgb(102,102,102);" text-anchor="middle" dominant-baseline="central">
				<text x="35" y="0">Su</text>
				<text x="116" y="0">Mo</text>
				<text x="197" y="0">Tu</text>
				<text x="278" y="0">We</text>
				<text x="359" y="0">Th</text>
				<text x="440" y="0">Fr</text>
				<text x="521" y="0">Sa</text>
			</g>
			<g id="May_days" transform="translate(0, 105.0)" text-anchor="middle" dominant-baseline="central" style="font-family:'Helvetica';font-size:35px;fill:rgb(102,102,102);" >
				<circle cx="197" cy="81" r="35"/>
				<text x="197" y="81">01</text>
				<circle cx="278" cy="81" r="35"/>
				<text x="278" y="81">02</text>
				<circle cx="359" cy="81" r="35"/>
				<text x="359" y="81">03</text>
				<circle cx="440" cy="81" r="35"/>
				<text x="440" y="81">04</text>
				<circle cx="521" cy="81" r="35"/>
				<text x="521" y="81">05</text>
				<circle cx="35" cy="162" r="35"/>
				<text x="35" y="162">06</text>
				<circle cx="116" cy="162" r="35"/>
				<text x="116" y="162">07</text>
				<circle cx="197" cy="162" r="35"/>
				<text x="197" y="162">08</text>
				<circle cx="278" cy="162" r="35"/>
				<text x="278" y="162">09</text>
				<circle cx="359" cy="162" r="35"/>
				<text x="359" y="162">10</text>
				<circle cx="440" cy="162" r="35"/>
				<text x="440" y="162">11</text>
				<circle cx="521" cy="162" r="35"/>
				<text x="521" y="162">12</text>
				<circle cx="35" cy="243" r="35"/>
				<text x="35" y="243">13</text>
				<circle cx="116" cy="243" r="35"/>
				<text x="116" y="243">14</text>
				<circle cx="197" cy="243" r="35"/>
				<text x="197" y="243">15</text>
				<circle cx="278" cy="243" r="35"/>
				<text x="278" y="243">16</text>
				<circle cx="359" cy="243" r="35"/>
				<text x="359" y="243">17</text>
				<circle cx="440" cy="243" r="35"/>
				<text x="440" y="243">18</text>
				<circle cx="521" cy="243" r="35"/>
				<text x="521" y="243">19</text>
				<circle cx="35" cy="324" r="35"/>
				<text x="35" y="324">20</text>
				<circle cx="116" cy="324" r="35"/>
				<text x="116" y="324">21</text>
				<circle cx="197" cy="324" r="35"/>
				<text x="197" y="324">22</text>
				<circle cx="278" cy="324" r="35"/>
				<text x="278" y="324">23</text>
				<circle cx="359" cy="324" r="35"/>
				<text x="359" y="324">24</text>
				<circle cx="440" cy="324" r="35"/>
				<text x="440" y="324">25</text>
				<circle cx="521" cy="324" r="35"/>
				<text x="521" y="324">26</text>
				<circle cx="35" cy="405" r="35"/>
				<text x="35" y="405">27</text>
				<circle cx="116" cy="405" r="35"/>
				<text x="116" y="405">28</text>
				<circle cx="197" cy="405" r="35"/>
				<text x="197" y="405">29</text>
				<circle cx="278" cy="405" r="35"/>
				<text x="278" y="405">30</text>
				<circle cx="359" cy="405" r="35"/>
				<text x="359" y="405">31</text>
			</g>
		</g>
		<g id="June" transform="translate(1472, 720)">
			<text x="0" y="0" style="font-family:'Helvetica';font-size:70px;fill:rgb(102,102,102);" text-anchor="left" dominant-baseline="central">June</text>
			<g id="June_weekbar" transform="translate(0, 105.0)" style="font-family:'Helvetica';font-size:35px;fill:rgb(102,102,102);" text-anchor="middle" dominant-baseline="central">
				<text x="35" y="0">Su</text>
				<text x="116" y="0">Mo</text>
				<text x="197" y="0">Tu</text>
				<text x="278" y="0">We</text>
				<text x="359" y="0">Th</text>
				<text x="440" y="0">Fr</text>
				<text x="521" y="0">Sa</text>
			</g>
			<g id="June_days" transform="translate(0, 105.0)" text-anchor="middle" dominant-baseline="central" style="font-family:'Helvetica';font-size:35px;fill:rgb(102,102,102);" >
				<circle cx="440" cy="81" r="35"/>
				<text x="440" y="81">01</text>
				<circle cx="521" cy="81" r="35"/>
				<text x="521" y="81">02</text>
				<circle cx="35" cy="162" r="35"/>
				<text x="35" y="162">03</text>
				<circle cx="116" cy="162" r="35"/>
				<text x="116" y="162">04</text>
				<circle cx="197" cy="162" r="35"/>
				<text x="197" y="162">05</text>
				<circle cx="278" cy="162" r="35"/>
				<text x="278" y="162">06</text>
				<circle cx="359" cy="162" r="35"/>
				<text x="359" y="162">07</text>
				<circle cx="440" cy="162" r="35"/>
				<text x="440" y="162">08</text>
				<circle cx="521" cy="162" r="35"/>
				<text x="521" y="162">09</text>
				<circle cx="35" cy="243" r="35"/>
				<text x="35" y="243">10</text>
				<circle cx="116" cy="243" r="35"/>
				<text x="116" y="243">11</text>
				<circle cx="197" cy="243" r="35"/>
				<text x="197" y="243">12</text>
				<circle cx="278" cy="243" r="35"/>
				<text x="278" y="243">13</text>
				<circle cx="359" cy="243" r="35"/>
				<text x="359" y="243">14</text>
				<circle cx="440" cy="243" r="35"/>
				<text x="440" y="243">15</text>
				<circle cx="521" cy="243" r="35"/>
				<text x="521" y="243">16</text>
				<circle cx="35" cy="324" r="35"/>
				<text x="35" y="324">17</text>
				<circle cx="116" cy="324" r="35"/>
				<text x="116" y="324">18</text>
				<circle cx="197" cy="324" r="35"/>
				<text x="197" y="324">19</text>
				<circle cx="278" cy="324" r="35"/>
				<text x="278" y="324">20</text>
				<circle cx="359" cy="324" r="35"/>
				<text x="359" y="324">21</text>
				<circle cx="440" cy="324" r="35"/>
				<text x="440" y="324">22</text>
				<circle cx="521" cy="324" r="35"/>
				<text x="521" y="324">23</text>
				<circle cx="35" cy="405" r="35"/>
				<text x="35" y="405">24</text>
				<circle cx="116" cy="405" r="35"/>
				<text x="116" y="405">25</text>
				<circle cx="197" cy="405" r="35"/>
				<text x="197" y="405">26</text>
				<circle cx="278" cy="405" r="35"/>
				<text x="278" y="405">27</text>
				<circle cx="359" cy="405" r="35"/>
				<text x="359" y="405">28</text>
				<circle cx="440" cy="405" r="35"/>
				<text x="440" y="405">29</text>
				<circle cx="521" cy="405" r="35"/>
				<text x="521" y="405">30</text>
			</g>
		</g>
		<g id="July" transform="translate(0, 1440)">
			<text x="0" y="0" style="font-family:'Helvetica';font-size:70px;fill:rgb(102,102,102);" text-anchor="left" dominant-baseline="central">July</text>
			<g id="July_weekbar" transform="translate(0, 105.0)" style="font-family:'Helvetica';font-size:35px;fill:rgb(102,102,102);" text-anchor="middle" dominant-baseline="central">
				<text x="35" y="0">Su</text>
				<text x="116" y="0">Mo</text>
				<text x="197" y="0">Tu</text>
				<text x="278" y="0">We</text>
				<text x="359" y="0">Th</text>
				<text x="440" y="0">Fr</text>
				<text x="521" y="0">Sa</text>
			</g>
			<g id="July_days" transform="translate(0, 105.0)" text-anchor="middle" dominant-baseline="central" style="font-family:'Helvetica';font-size:35px;fill:rgb(102,102,102);" >
				<circle cx="35" cy="81" r="35"/>
				<text x="35" y="81">01</text>
				<circle cx="116" cy="81" r="35"/>
				<text x="116" y="81">02</text>
				<circle cx="197" cy="81" r="35"/>
				<text x="197" y="81">03</text>
				<circle cx="278" cy="81" r="35"/>
				<text x="278" y="81">04</text>
				<circle cx="359" cy="81" r="35"/>
				<text x="359" y="81">05</text>
				<circle cx="440" cy="81" r="35"/>
				<text x="440" y="81">06</text>
				<circle cx="521" cy="81" r="35"/>
				<text x="521" y="81">07</text>
				<circle cx="35" cy="162" r="35"/>
				<text x="35" y="162">08</text>
				<circle cx="116" cy="162" r="35"/>
				<text x="116" y="162">09</text>
				<circle cx="197" cy="162" r="35"/>
				<text x="197" y="162">10</text>
				<circle cx="278" cy="162" r="35"/>
				<text x="278" y="162">11</text>
				<circle cx="359" cy="162" r="35"/>
				<text x="359" y="162">12</text>
				<circle cx="440" cy="162" r="35"/>
				<text x="440" y="162">13</text>
				<circle cx="521" cy="162" r="35"/>
				<text x="521" y="162">14</text>
				<circle cx="35" cy="243" r="35"/>
				<text x="35" y="243">15</text>
				<circle cx="116" cy="243" r="35"/>
				<text x="116" y="243">16</text>
				<circle cx="197" cy="243" r="35"/>
				<text x="197" y="243">17</text>
				<circle cx="278" cy="243" r="35"/>
				<text x="278" y="243">18</text>
				<circle cx="359" cy="243" r="35"/>
				<text x="359" y="243">19</text>
				<circle cx="440" cy="243" r="35"/>
				<text x="440" y="243">20</text>
				<circle cx="521" cy="243" r="35"/>
				<text x="521" y="243">21</text>
				<circle cx="35" cy="324" r="35"/>
				<text x="35" y="324">22</text>
				<circle cx="116" cy="324" r="35"/>
				<text x="116" y="324">23</text>
				<circle cx="197" cy="324" r="35"/>
				<text x="197" y="324">24</text>
				<circle cx="278" cy="324" r="35"/>
				<text x="278" y="324">25</text>
				<circle cx="359" cy="324" r="35"/>
				<text x="359" y="324">26</text>
				<circle cx="440" cy="324" r="35"/>
				<text x="440" y="324">27</text>
				<circle cx="521" cy="324" r="35"/>
				<text x="521" y="324">28</text>
				<circle cx="35" cy="405" r="35"/>
				<text x="35" y="405">29</text>
				<circle cx="116" cy="405" r="35"/>
				<text x="116" y="405">30</text>
				<circle cx="197" cy="405" r="35"/>
				<text x="197" y="405">31</text>
			</g>
		</g>
		<g id="August" transform="translate(736, 1440)">
			<text x="0" y="0" style="font-family:'Helvetica';font-size:70px;fill:rgb(102,102,102);" text-anchor="left" dominant-baseline="central">August</text>
			<g id="August_weekbar" transform="translate(0, 105.0)" style="font-family:'Helvetica';font-size:35px;fill:rgb(102,102,102);" text-anchor="middle" dominant-baseline="central">
				<text x="35" y="0">Su</text>
				<text x="116" y="0">Mo</text>
				<text x="197" y="0">Tu</text>
				<text x="278" y="0">We</text>
				<text x="359" y="0">Th</text>
				<text x="440" y="0">Fr</text>
				<text x="521" y="0">Sa</text>
			</g>
			<g id="August_days" transform="translate(0, 105.0)" text-anchor="middle" dominant-baseline="central" style="font-family:'Helvetica';font-size:35px;fill:rgb(102,102,102);" >
				<circle cx="278" cy="81" r="35"/>
				<text x="278" y="81">01</text>
				<circle cx="359" cy="81" r="35"/>
				<text x="359" y="81">02</text>
				<circle cx="440" cy="81" r="35"/>
				<text x="440" y="81">03</text>
				<circle cx="521" cy="81" r="35"/>
				<text x="521" y="81">04</text>
				<circle cx="35" cy="162" r="35"/>
				<text x="35" y="162">05</text>
				<circle cx="116" cy="162" r="35"/>
				<text x="116" y="162">06</text>
				<circle cx="197" cy="162" r="35"/>
				<text x="197" y="162">07</text>
				<circle cx="278" cy="162" r="35"/>
				<text x="278" y="162">08</text>
				<circle cx="359" cy="162" r="35"/>
				<text x="359" y="162">09</text>
				<circle cx="440" cy="162" r="35"/>
				<text x="440" y="162">10</text>
				<circle cx="521" cy="162" r="35"/>
				<text x="521" y="162">11</text>
				<circle cx="35" cy="243" r="35"/>
				<text x="35" y="243">12</text>
				<circle cx="116" cy="243" r="35"/>
				<text x="116" y="243">13</text>
				<circle cx="197" cy="243" r="35"/>
				<text x="197" y="243">14</text>
				<circle cx="278" cy="243" r="35"/>
				<text x="278" y="243">15</text>
				<circle cx="359" cy="243" r="35"/>
				<text x="359" y="243">16</text>
				<circle cx="440" cy="243" r="35"/>
				<text x="440" y="243">17</text>
				<circle cx="521" cy="243" r="35"/>
				<text x="521" y="243">18</text>
				<circle cx="35" cy="324" r="35"/>
				<text x="35" y="324">19</text>
				<circle cx="116" cy="324" r="35"/>
				<text x="116" y="324">20</text>
				<circle cx="197" cy="324" r="35"/>
				<text x="197" y="324">21</text>
				<circle cx="278" cy="324" r="35"/>
				<text x="278" y="324">22</text>
				<circle cx="359" cy="324" r="35"/>
				<text x="359" y="324">23</text>
				<circle cx="440" cy="324" r="35"/>
				<text x="440" y="324">24</text>
				<circle cx="521" cy="324" r="35"/>
				<text x="521" y="324">25</text>
				<circle cx="35" cy="405" r="35"/>
				<text x="35" y="405">26</text>
				<circle cx="116" cy="405" r="35"/>
				<text x="116" y="405">27</text>
				<circle cx="197" cy="405" r="35"/>
				<text x="197" y="405">28</text>
				<circle cx="278" cy="405" r="35"/>
				<text x="278" y="405">29</text>
				<circle cx="359" cy="405" r="35"/>
				<text x="359" y="405">30</text>
				<circle cx="440" cy="405" r="35"/>
				<text x="440" y="405">31</text>
			</g>
		</g>
		<g id="September" transform="translate(1472, 1440)">
			<text x="0" y="0" style="font-family:'Helvetica';font-size:70px;fill:rgb(102,102,102);" text-anchor="left" dominant-baseline="central">September</text>
			<g id="September_weekbar" transform="translate(0, 105.0)" style="font-family:'Helvetica';font-size:35px;fill:rgb(102,102,102);" text-anchor="middle" dominant-baseline="central">
				<text x="35" y="0">Su</text>
				<text x="116" y="0">Mo</text>
				<text x="197" y="0">Tu</text>
				<text x="278" y="0">We</text>
				<text x="359" y="0">Th</text>
				<text x="440" y="0">Fr</text>
				<text x="521" y="0">Sa</text>
			</g>
			<g id="September_days" transform="translate(0, 105.0)" text-anchor="middle" dominant-baseline="central" style="font-family:'Helvetica';font-size:35px;fill:rgb(102,102,102);" >
				<circle cx="521" cy="81" r="35"/>
				<text x="521" y="81">01</text>
				<circle cx="35" cy="162" r="35"/>
				<text x="35" y="162">02</text>
				<circle cx="116" cy="162" r="35"/>
				<text x="116" y="162">03</text>
				<circle cx="197" cy="162" r="35"/>
				<text x="197" y="162">04</text>
				<circle cx="278" cy="162" r="35"/>
				<text x="278" y="162">05</text>
				<circle cx="359" cy="162" r="35"/>
				<text x="359" y="162">06</text>
				<circle cx="440" cy="162" r="35"/>
				<text x="440" y="162">07</text>
				<circle cx="521" cy="162" r="35"/>
				<text x="521" y="162">08</text>
				<circle cx="35" cy="243" r="35"/>
				<text x="35" y="243">09</text>
				<circle cx="116" cy="243" r="35"/>
				<text x="116" y="243">10</text>
				<circle cx="197" cy="243" r="35"/>
				<text x="197" y="243">11</text>
				<circle cx="278" cy="243" r="35"/>
				<text x="278" y="243">12</text>
				<circle cx="359" cy="243" r="35"/>
				<text x="359" y="243">13</text>
				<circle cx="440" cy="243" r="35"/>
				<text x="440" y="243">14</text>
				<circle cx="521" cy="243" r="35"/>
				<text x="521" y="243">15</text>
				<circle cx="35" cy="324" r="35"/>
				<text x="35" y="324">16</text>
				<circle cx="116" cy="324" r="35"/>
				<text x="116" y="324">17</text>
				<circle cx="197" cy="324" r="35"/>
				<text x="197" y="324">18</text>
				<circle cx="278" cy="324" r="35"/>
				<text x="278" y="324">19</text>
				<circle cx="359" cy="324" r="35"/>
				<text x="359" y="324">20</text>
				<circle cx="440" cy="324" r="35"/>
				<text x="440" y="324">21</text>
				<circle cx="521" cy="324" r="35"/>
				<text x="521" y="324">22</text>
				<circle cx="35" cy="405" r="35"/>
				<text x="35" y="405">23</text>
				<circle cx="116" cy="405" r="35"/>
				<text x="116" y="405">24</text>
				<circle cx="197" cy="405" r="35"/>
				<text x="197" y="405">25</text>
				<circle cx="278" cy="405" r="35"/>
				<text x="278" y="405">26</text>
				<circle cx="359" cy="405" r="35"/>
				<text x="359" y="405">27</text>
				<circle cx="440" cy="405" r="35"/>
				<text x="440" y="405">28</text>
				<circle cx="521" cy="405" r="35"/>
				<text x="521" y="405">29</text>
				<circle cx="35" cy="486" r="35"/>
				<text x="35" y="486">30</text>
			</g>
		</g>
		<g id="October" transform="translate(0, 2160)">
			<text x="0" y="0" style="font-family:'Helvetica';font-size:70px;fill:rgb(102,102,102);" text-anchor="left" dominant-baseline="central">October</text>
			<g id="October_weekbar" transform="translate(0, 105.0)" style="font-family:'Helvetica';font-size:35px;fill:rgb(102,102,102);" text-anchor="middle" dominant-baseline="central">
				<text x="35" y="0">Su</text>
				<text x="116" y="0">Mo</text>
				<text x="197" y="0">Tu</text>
				<text x="278" y="0">We</text>
				<text x="359" y="0">Th</text>
				<text x="440" y="0">Fr</text>
				<text x="521" y="0">Sa</text>
			</g>
			<g id="October_days" transform="translate(0, 105.0)" text-anchor="middle" dominant-baseline="central" style="font-family:'Helvetica';font-size:35px;fill:rgb(102,102,102);" >
				<circle cx="116" cy="81" r="35"/>
				<text x="116" y="81">01</text>
				<circle cx="197" cy="81" r="35"/>
				<text x="197" y="81">02</text>
				<circle cx="278" cy="81" r="35"/>
				<text x="278" y="81">03</text>
				<circle cx="359" cy="81" r="35"/>
				<text x="359" y="81">04</text>
				<circle cx="440" cy="81" r="35"/>
				<text x="440" y="81">05</text>
				<circle cx="521" cy="81" r="35"/>
				<text x="521" y="81">06</text>
				<circle cx="35" cy="162" r="35"/>
				<text x="35" y="162">07</text>
				<circle cx="116" cy="162" r="35"/>
				<text x="116" y="162">08</text>
				<circle cx="197" cy="162" r="35"/>
				<text x="197" y="162">09</text>
				<circle cx="278" cy="162" r="35"/>
				<text x="278" y="162">10</text>
				<circle cx="359" cy="162" r="35"/>
				<text x="359" y="162">11</text>
				<circle cx="440" cy="162" r="35"/>
				<text x="440" y="162">12</text>
				<circle cx="521" cy="162" r="35"/>
				<text x="521" y="162">13</text>
				<circle cx="35" cy="243" r="35"/>
				<text x="35" y="243">14</text>
				<circle cx="116" cy="243" r="35"/>
				<text x="116" y="243">15</text>
				<circle cx="197" cy="243" r="35"/>
				<text x="197" y="243">16</text>
				<circle cx="278" cy="243" r="35"/>
				<text x="278" y="243">17</text>
				<circle cx="359" cy="243" r="35"/>
				<text x="359" y="243">18</text>
				<circle cx="440" cy="243" r="35"/>
				<text x="440" y="243">19</text>
				<circle cx="521" cy="243" r="35"/>
				<text x="521" y="243">20</text>
				<circle cx="35" cy="324" r="35"/>
				<text x="35" y="324">21</text>
				<circle cx="116" cy="324" r="35"/>
				<text x="116" y="324">22</text>
				<circle cx="197" cy="324" r="35"/>
				<text x="197" y="324">23</text>
				<circle cx="278" cy="324" r="35"/>
				<text x="278" y="324">24</text>
				<circle cx="359" cy="324" r="35"/>
				<text x="359" y="324">25</text>
				<circle cx="440" cy="324" r="35"/>
				<text x="440" y="324">26</text>
				<circle cx="521" cy="324" r="35"/>
				<text x="521" y="324">27</text>
				<circle cx="35" cy="405" r="35"/>
				<text x="35" y="405">28</text>
				<circle cx="116" cy="405" r="35"/>
				<text x="116" y="405">29</text>
				<circle cx="197" cy="405" r="35"/>
				<text x="197" y="405">30</text>
				<circle cx="278" cy="405" r="35"/>
				<text x="278" y="405">31</text>
			</g>
		</g>
		<g id="November" transform="translate(736, 2160)">
			<text x="0" y="0" style="font-family:'Helvetica';font-size:70px;fill:rgb(102,102,102);" text-anchor="left" dominant-baseline="central">November</text>
			<g id="November_weekbar" transform="translate(0, 105.0)" style="font-family:'Helvetica';font-size:35px;fill:rgb(102,102,102);" text-anchor="middle" dominant-baseline="central">
				<text x="35" y="0">Su</text>
				<text x="116" y="0">Mo</text>
				<text x="197" y="0">Tu</text>
				<text x="278" y="0">We</text>
				<text x="359" y="0">Th</text>
				<text x="440" y="0">Fr</text>
				<text x="521" y="0">Sa</text>
			</g>
			<g id="November_days" transform="translate(0, 105.0)" text-anchor="middle" dominant-baseline="central" style="font-family:'Helvetica';font-size:35px;fill:rgb(102,102,102);" >
				<circle cx="359" cy="81" r="35"/>
				<text x="359" y="81">01</text>
				<circle cx="440" cy="81" r="35"/>
				<text x="440" y="81">02</text>
				<circle cx="521" cy="81" r="35"/>
				<text x="521" y="81">03</text>
				<circle cx="35" cy="162" r="35"/>
				<text x="35" y="162">04</text>
				<circle cx="116" cy="162" r="35"/>
				<text x="116" y="162">05</text>
				<circle cx="197" cy="162" r="35"/>
				<text x="197" y="162">06</text>
				<circle cx="278" cy="162" r="35"/>
				<text x="278" y="162">07</text>
				<circle cx="359" cy="162" r="35"/>
				<text x="359" y="162">08</text>
				<circle cx="440" cy="162" r="35"/>
				<text x="440" y="162">09</text>
				<circle cx="521" cy="162" r="35"/>
				<text x="521" y="162">10</text>
				<circle cx="35" cy="243" r="35"/>
				<text x="35" y="243">11</text>
				<circle cx="116" cy="243" r="35"/>
				<text x="116" y="243">12</text>
				<circle cx="197" cy="243" r="35"/>
				<text x="197" y="243">13</text>
				<circle cx="278" cy="243" r="35"/>
				<text x="278" y="243">14</text>
				<circle cx="359" cy="243" r="35"/>
				<text x="359" y="243">15</text>
				<circle cx="440" cy="243" r="35"/>
				<text x="440" y="243">16</text>
				<circle cx="521" cy="243" r="35"/>
				<text x="521" y="243">17</text>
				<circle cx="35" cy="324" r="35"/>
				<text x="35" y="324">18</text>
				<circle cx="116" cy="324" r="35"/>
				<text x="116" y="324">19</text>
				<circle cx="197" cy="324" r="35"/>
				<text x="197" y="324">20</text>
				<circle cx="278" cy="324" r="35"/>
				<text x="278" y="324">21</text>
				<circle cx="359" cy="324" r="35"/>
				<text x="359" y="324">22</text>
				<circle cx="440" cy="324" r="35"/>
				<text x="440" y="324">23</text>
				<circle cx="521" cy="324" r="35"/>
				<text x="521" y="324">24</text>
				<circle cx="35" cy="405" r="35"/>
				<text x="35" y="405">25</text>
				<circle cx="116" cy="405" r="35"/>
				<text x="116" y="405">26</text>
				<circle cx="197" cy="405" r="35"/>
				<text x="197" y="405">27</text>
				<circle cx="278" cy="405" r="35"/>
				<text x="278" y="405">28</text>
				<circle cx="359" cy="405" r="35"/>
				<text x="359" y="405">29</text>
				<circle cx="440" cy="405" r="35"/>
				<text x="440" y="405">30</text>
			</g>
		</g>
		<g id="December" transform="translate(1472, 2160)">
			<text x="0" y="0" style="font-family:'Helvetica';font-size:70px;fill:rgb(102,102,102);" text-anchor="left" dominant-baseline="central">December</text>
			<g id="December_weekbar" transform="translate(0, 105.0)" style="font-family:'Helvetica';font-size:35px;fill:rgb(102,102,102);" text-anchor="middle" dominant-baseline="central">
				<text x="35" y="0">Su</text>
				<text x="116" y="0">Mo</text>
				<text x="197" y="0">Tu</text>
				<text x="278" y="0">We</text>
				<text x="359" y="0">Th</text>
				<text x="440" y="0">Fr</text>
				<text x="521" y="0">Sa</text>
			</g>
			<g id="December_days" transform="translate(0, 105.0)" text-anchor="middle" dominant-baseline="central" style="font-family:'Helvetica';font-size:35px;fill:rgb(102,102,102);" >
				<circle cx="521" cy="81" r="35"/>
				<text x="521" y="81">01</text>
				<circle cx="35" cy="162" r="35"/>
				<text x="35" y="162">02</text>
				<circle cx="116" cy="162" r="35"/>
				<text x="116" y="162">03</text>
				<circle cx="197" cy="162" r="35"/>
				<text x="197" y="162">04</text>
				<circle cx="278" cy="162" r="35"/>
				<text x="278" y="162">05</text>
				<circle cx="359" cy="162" r="35"/>
				<text x="359" y="162">06</text>
				<circle cx="440" cy="162" r="35"/>
				<text x="440" y="162">07</text>
				<circle cx="521" cy="162" r="35"/>
				<text x="521" y="162">08</text>
				<circle cx="35" cy="243" r="35"/>
				<text x="35" y="243">09</text>
				<circle cx="116" cy="243" r="35"/>
				<text x="116" y="243">10</text>
				<circle cx="197" cy="243" r="35"/>
				<text x="197" y="243">11</text>
				<circle cx="278" cy="243" r="35"/>
				<text x="278" y="243">12</text>
				<circle cx="359" cy="243" r="35"/>
				<text x="359" y="243">13</text>
				<circle cx="440" cy="243" r="35"/>
				<text x="440" y="243">14</text>
				<circle cx="521" cy="243" r="35"/>
				<text x="521" y="243">15</text>
				<circle cx="35" cy="324" r="35"/>
				<text x="35" y="324">16</text>
				<circle cx="116" cy="324" r="35"/>
				<text x="116" y="324">17</text>
				<circle cx="197" cy="324" r="35"/>
				<text x="197" y="324">18</text>
				<circle cx="278" cy="324" r="35"/>
				<text x="278" y="324">19</text>
				<circle cx="359" cy="324" r="35"/>
				<text x="359" y="324">20</text>
				<circle cx="440" cy="324" r="35"/>
				<text x="440" y="324">21</text>
				<circle cx="521" cy="324" r="35"/>
				<text x="521" y="324">22</text>
				<circle cx="35" cy="405" r="35"/>
				<text x="35" y="405">23</text>
				<circle cx="116" cy="405" r="35"/>
				<text x="116" y="405">24</text>
				<circle cx="197" cy="405" r="35"/>
				<text x="197" y="405">25</text>
				<circle cx="278" cy="405" r="35"/>
				<text x="278" y="405">26</text>
				<circle cx="359" cy="405" r="35"/>
				<text x="359" y="405">27</text>
				<circle cx="440" cy="405" r="35"/>
				<text x="440" y="405">28</text>
				<circle cx="521" cy="405" r="35"/>
				<text x="521" y="405">29</text>
				<circle cx="35" cy="486" r="35"/>
				<text x="35" y="486">30</text>
				<circle cx="116" cy="486" r="35"/>
				<text x="116" y="486">31</text>
			</g>
		</g>
	</g>
</svg>