<?xml version="1.0" encoding="UTF-8" standalone="no"?>
<!DOCTYPE svg PUBLIC "-//W3C//DTD SVG 1.1//EN" "http://www.w3.org/Graphics/SVG/1.1/DTD/svg11.dtd">
<svg width="100%" height="100%" viewBox="0 0 2550 3300" xmlns="http://www.w3.org/2000/svg">
 <style>/* <![CDATA[ */circle{fill:rgb(200,200,255);}/* ]]> */</style>
<g id="calendar" transform="translate(0, 0)">
		<g id="January" transform="translate(0, 0)">
			<text x="0" y="0" style="font-family:'Helvetica';font-size:68px;fill:rgb(102,102,102);" text-anchor="middle" dominant-baseline="central">January, 2018</text>
			<g id="January_weekbar" transform="translate(0, 102.0)" style="font-family:'Helvetica';font-size:34px;fill:rgb(102,102,102);" text-anchor="middle" dominant-baseline="central">
				<text x="0" y="0">Su</text>
				<text x="102" y="0">Mo</text>
				<text x="204" y="0">Tu</text>
				<text x="306" y="0">We</text>
				<text x="408" y="0">Th</text>
				<text x="510" y="0">Fr</text>
				<text x="612" y="0">Sa</text>
			</g>
			<g id="January_days" transform="translate(0, 102.0)" text-anchor="middle" dominant-baseline="central" style="font-family:'Helvetica';font-size:34px;fill:rgb(102,102,102);" >
				<circle cx="102" cy="102" r="34"/>
				<text x="102" y="102">01</text>
				<circle cx="204" cy="102" r="34"/>
				<text x="204" y="102">02</text>
				<circle cx="306" cy="102" r="34"/>
				<text x="306" y="102">03</text>
				<circle cx="408" cy="102" r="34"/>
				<text x="408" y="102">04</text>
				<circle cx="510" cy="102" r="34"/>
				<text x="510" y="102">05</text>
				<circle cx="612" cy="102" r="34"/>
				<text x="612" y="102">06</text>
				<circle cx="0" cy="204" r="34"/>
				<text x="0" y="204">07</text>
				<circle cx="102" cy="204" r="34"/>
				<text x="102" y="204">08</text>
				<circle cx="204" cy="204" r="34"/>
				<text x="204" y="204">09</text>
				<circle cx="306" cy="204" r="34"/>
				<text x="306" y="204">10</text>
				<circle cx="408" cy="204" r="34"/>
				<text x="408" y="204">11</text>
				<circle cx="510" cy="204" r="34"/>
				<text x="510" y="204">12</text>
				<circle cx="612" cy="204" r="34"/>
				<text x="612" y="204">13</text>
				<circle cx="0" cy="306" r="34"/>
				<text x="0" y="306">14</text>
				<circle cx="102" cy="306" r="34"/>
				<text x="102" y="306">15</text>
				<circle cx="204" cy="306" r="34"/>
				<text x="204" y="306">16</text>
				<circle cx="306" cy="306" r="34"/>
				<text x="306" y="306">17</text>
				<circle cx="408" cy="306" r="34"/>
				<text x="408" y="306">18</text>
				<circle cx="510" cy="306" r="34"/>
				<text x="510" y="306">19</text>
				<circle cx="612" cy="306" r="34"/>
				<text x="612" y="306">20</text>
				<circle cx="0" cy="408" r="34"/>
				<text x="0" y="408">21</text>
				<circle cx="102" cy="408" r="34"/>
				<text x="102" y="408">22</text>
				<circle cx="204" cy="408" r="34"/>
				<text x="204" y="408">23</text>
				<circle cx="306" cy="408" r="34"/>
				<text x="306" y="408">24</text>
				<circle cx="408" cy="408" r="34"/>
				<text x="408" y="408">25</text>
				<circle cx="510" cy="408" r="34"/>
				<text x="510" y="408">26</text>
				<circle cx="612" cy="408" r="34"/>
				<text x="612" y="408">27</text>
				<circle cx="0" cy="510" r="34"/>
				<text x="0" y="510">28</text>
				<circle cx="102" cy="510" r="34"/>
				<text x="102" y="510">29</text>
				<circle cx="204" cy="510" r="34"/>
				<text x="204" y="510">30</text>
				<circle cx="306" cy="510" r="34"/>
				<text x="306" y="510">31</text>
			</g>
		</g>
		<g id="February" transform="translate(850, 0)">
			<text x="0" y="0" style="font-family:'Helvetica';font-size:68px;fill:rgb(102,102,102);" text-anchor="middle" dominant-baseline="central">February, 2018</text>
			<g id="February_weekbar" transform="translate(0, 102.0)" style="font-family:'Helvetica';font-size:34px;fill:rgb(102,102,102);" text-anchor="middle" dominant-baseline="central">
				<text x="0" y="0">Su</text>
				<text x="102" y="0">Mo</text>
				<text x="204" y="0">Tu</text>
				<text x="306" y="0">We</text>
				<text x="408" y="0">Th</text>
				<text x="510" y="0">Fr</text>
				<text x="612" y="0">Sa</text>
			</g>
			<g id="February_days" transform="translate(0, 102.0)" text-anchor="middle" dominant-baseline="central" style="font-family:'Helvetica';font-size:34px;fill:rgb(102,102,102);" >
				<circle cx="408" cy="102" r="34"/>
				<text x="408" y="102">01</text>
				<circle cx="510" cy="102" r="34"/>
				<text x="510" y="102">02</text>
				<circle cx="612" cy="102" r="34"/>
				<text x="612" y="102">03</text>
				<circle cx="0" cy="204" r="34"/>
				<text x="0" y="204">04</text>
				<circle cx="102" cy="204" r="34"/>
				<text x="102" y="204">05</text>
				<circle cx="204" cy="204" r="34"/>
				<text x="204" y="204">06</text>
				<circle cx="306" cy="204" r="34"/>
				<text x="306" y="204">07</text>
				<circle cx="408" cy="204" r="34"/>
				<text x="408" y="204">08</text>
				<circle cx="510" cy="204" r="34"/>
				<text x="510" y="204">09</text>
				<circle cx="612" cy="204" r="34"/>
				<text x="612" y="204">10</text>
				<circle cx="0" cy="306" r="34"/>
				<text x="0" y="306">11</text>
				<circle cx="102" cy="306" r="34"/>
				<text x="102" y="306">12</text>
				<circle cx="204" cy="306" r="34"/>
				<text x="204" y="306">13</text>
				<circle cx="306" cy="306" r="34"/>
				<text x="306" y="306">14</text>
				<circle cx="408" cy="306" r="34"/>
				<text x="408" y="306">15</text>
				<circle cx="510" cy="306" r="34"/>
				<text x="510" y="306">16</text>
				<circle cx="612" cy="306" r="34"/>
				<text x="612" y="306">17</text>
				<circle cx="0" cy="408" r="34"/>
				<text x="0" y="408">18</text>
				<circle cx="102" cy="408" r="34"/>
				<text x="102" y="408">19</text>
				<circle cx="204" cy="408" r="34"/>
				<text x="204" y="408">20</text>
				<circle cx="306" cy="408" r="34"/>
				<text x="306" y="408">21</text>
				<circle cx="408" cy="408" r="34"/>
				<text x="408" y="408">22</text>
				<circle cx="510" cy="408" r="34"/>
				<text x="510" y="408">23</text>
				<circle cx="612" cy="408" r="34"/>
				<text x="612" y="408">24</text>
				<circle cx="0" cy="510" r="34"/>
				<text x="0" y="510">25</text>
				<circle cx="102" cy="510" r="34"/>
				<text x="102" y="510">26</text>
				<circle cx="204" cy="510" r="34"/>
				<text x="204" y="510">27</text>
				<circle cx="306" cy="510" r="34"/>
				<text x="306" y="510">28</text>
			</g>
		</g>
		<g id="March" transform="translate(1700, 0)">
			<text x="0" y="0" style="font-family:'Helvetica';font-size:68px;fill:rgb(102,102,102);" text-anchor="middle" dominant-baseline="central">March, 2018</text>
			<g id="March_weekbar" transform="translate(0, 102.0)" style="font-family:'Helvetica';font-size:34px;fill:rgb(102,102,102);" text-anchor="middle" dominant-baseline="central">
				<text x="0" y="0">Su</text>
				<text x="102" y="0">Mo</text>
				<text x="204" y="0">Tu</text>
				<text x="306" y="0">We</text>
				<text x="408" y="0">Th</text>
				<text x="510" y="0">Fr</text>
				<text x="612" y="0">Sa</text>
			</g>
			<g id="March_days" transform="translate(0, 102.0)" text-anchor="middle" dominant-baseline="central" style="font-family:'Helvetica';font-size:34px;fill:rgb(102,102,102);" >
				<circle cx="408" cy="102" r="34"/>
				<text x="408" y="102">01</text>
				<circle cx="510" cy="102" r="34"/>
				<text x="510" y="102">02</text>
				<circle cx="612" cy="102" r="34"/>
				<text x="612" y="102">03</text>
				<circle cx="0" cy="204" r="34"/>
				<text x="0" y="204">04</text>
				<circle cx="102" cy="204" r="34"/>
				<text x="102" y="204">05</text>
				<circle cx="204" cy="204" r="34"/>
				<text x="204" y="204">06</text>
				<circle cx="306" cy="204" r="34"/>
				<text x="306" y="204">07</text>
				<circle cx="408" cy="204" r="34"/>
				<text x="408" y="204">08</text>
				<circle cx="510" cy="204" r="34"/>
				<text x="510" y="204">09</text>
				<circle cx="612" cy="204" r="34"/>
				<text x="612" y="204">10</text>
				<circle cx="0" cy="306" r="34"/>
				<text x="0" y="306">11</text>
				<circle cx="102" cy="306" r="34"/>
				<text x="102" y="306">12</text>
				<circle cx="204" cy="306" r="34"/>
				<text x="204" y="306">13</text>
				<circle cx="306" cy="306" r="34"/>
				<text x="306" y="306">14</text>
				<circle cx="408" cy="306" r="34"/>
				<text x="408" y="306">15</text>
				<circle cx="510" cy="306" r="34"/>
				<text x="510" y="306">16</text>
				<circle cx="612" cy="306" r="34"/>
				<text x="612" y="306">17</text>
				<circle cx="0" cy="408" r="34"/>
				<text x="0" y="408">18</text>
				<circle cx="102" cy="408" r="34"/>
				<text x="102" y="408">19</text>
				<circle cx="204" cy="408" r="34"/>
				<text x="204" y="408">20</text>
				<circle cx="306" cy="408" r="34"/>
				<text x="306" y="408">21</text>
				<circle cx="408" cy="408" r="34"/>
				<text x="408" y="408">22</text>
				<circle cx="510" cy="408" r="34"/>
				<text x="510" y="408">23</text>
				<circle cx="612" cy="408" r="34"/>
				<text x="612" y="408">24</text>
				<circle cx="0" cy="510" r="34"/>
				<text x="0" y="510">25</text>
				<circle cx="102" cy="510" r="34"/>
				<text x="102" y="510">26</text>
				<circle cx="204" cy="510" r="34"/>
				<text x="204" y="510">27</text>
				<circle cx="306" cy="510" r="34"/>
				<text x="306" y="510">28</text>
				<circle cx="408" cy="510" r="34"/>
				<text x="408" y="510">29</text>
				<circle cx="510" cy="510" r="34"/>
				<text x="510" y="510">30</text>
				<circle cx="612" cy="510" r="34"/>
				<text x="612" y="510">31</text>
			</g>
		</g>
		<g id="April" transform="translate(0, 825)">
			<text x="0" y="0" style="font-family:'Helvetica';font-size:68px;fill:rgb(102,102,102);" text-anchor="middle" dominant-baseline="central">April, 2018</text>
			<g id="April_weekbar" transform="translate(0, 102.0)" style="font-family:'Helvetica';font-size:34px;fill:rgb(102,102,102);" text-anchor="middle" dominant-baseline="central">
				<text x="0" y="0">Su</text>
				<text x="102" y="0">Mo</text>
				<text x="204" y="0">Tu</text>
				<text x="306" y="0">We</text>
				<text x="408" y="0">Th</text>
				<text x="510" y="0">Fr</text>
				<text x="612" y="0">Sa</text>
			</g>
			<g id="April_days" transform="translate(0, 102.0)" text-anchor="middle" dominant-baseline="central" style="font-family:'Helvetica';font-size:34px;fill:rgb(102,102,102);" >
				<circle cx="0" cy="102" r="34"/>
				<text x="0" y="102">01</text>
				<circle cx="102" cy="102" r="34"/>
				<text x="102" y="102">02</text>
				<circle cx="204" cy="102" r="34"/>
				<text x="204" y="102">03</text>
				<circle cx="306" cy="102" r="34"/>
				<text x="306" y="102">04</text>
				<circle cx="408" cy="102" r="34"/>
				<text x="408" y="102">05</text>
				<circle cx="510" cy="102" r="34"/>
				<text x="510" y="102">06</text>
				<circle cx="612" cy="102" r="34"/>
				<text x="612" y="102">07</text>
				<circle cx="0" cy="204" r="34"/>
				<text x="0" y="204">08</text>
				<circle cx="102" cy="204" r="34"/>
				<text x="102" y="204">09</text>
				<circle cx="204" cy="204" r="34"/>
				<text x="204" y="204">10</text>
				<circle cx="306" cy="204" r="34"/>
				<text x="306" y="204">11</text>
				<circle cx="408" cy="204" r="34"/>
				<text x="408" y="204">12</text>
				<circle cx="510" cy="204" r="34"/>
				<text x="510" y="204">13</text>
				<circle cx="612" cy="204" r="34"/>
				<text x="612" y="204">14</text>
				<circle cx="0" cy="306" r="34"/>
				<text x="0" y="306">15</text>
				<circle cx="102" cy="306" r="34"/>
				<text x="102" y="306">16</text>
				<circle cx="204" cy="306" r="34"/>
				<text x="204" y="306">17</text>
				<circle cx="306" cy="306" r="34"/>
				<text x="306" y="306">18</text>
				<circle cx="408" cy="306" r="34"/>
				<text x="408" y="306">19</text>
				<circle cx="510" cy="306" r="34"/>
				<text x="510" y="306">20</text>
				<circle cx="612" cy="306" r="34"/>
				<text x="612" y="306">21</text>
				<circle cx="0" cy="408" r="34"/>
				<text x="0" y="408">22</text>
				<circle cx="102" cy="408" r="34"/>
				<text x="102" y="408">23</text>
				<circle cx="204" cy="408" r="34"/>
				<text x="204" y="408">24</text>
				<circle cx="306" cy="408" r="34"/>
				<text x="306" y="408">25</text>
				<circle cx="408" cy="408" r="34"/>
				<text x="408" y="408">26</text>
				<circle cx="510" cy="408" r="34"/>
				<text x="510" y="408">27</text>
				<circle cx="612" cy="408" r="34"/>
				<text x="612" y="408">28</text>
				<circle cx="0" cy="510" r="34"/>
				<text x="0" y="510">29</text>
				<circle cx="102" cy="510" r="34"/>
				<text x="102" y="510">30</text>
			</g>
		</g>
		<g id="May" transform="translate(850, 825)">
			<text x="0" y="0" style="font-family:'Helvetica';font-size:68px;fill:rgb(102,102,102);" text-anchor="middle" dominant-baseline="central">May, 2018</text>
			<g id="May_weekbar" transform="translate(0, 102.0)" style="font-family:'Helvetica';font-size:34px;fill:rgb(102,102,102);" text-anchor="middle" dominant-baseline="central">
				<text x="0" y="0">Su</text>
				<text x="102" y="0">Mo</text>
				<text x="204" y="0">Tu</text>
				<text x="306" y="0">We</text>
				<text x="408" y="0">Th</text>
				<text x="510" y="0">Fr</text>
				<text x="612" y="0">Sa</text>
			</g>
			<g id="May_days" transform="translate(0, 102.0)" text-anchor="middle" dominant-baseline="central" style="font-family:'Helvetica';font-size:34px;fill:rgb(102,102,102);" >
				<circle cx="204" cy="102" r="34"/>
				<text x="204" y="102">01</text>
				<circle cx="306" cy="102" r="34"/>
				<text x="306" y="102">02</text>
				<circle cx="408" cy="102" r="34"/>
				<text x="408" y="102">03</text>
				<circle cx="510" cy="102" r="34"/>
				<text x="510" y="102">04</text>
				<circle cx="612" cy="102" r="34"/>
				<text x="612" y="102">05</text>
				<circle cx="0" cy="204" r="34"/>
				<text x="0" y="204">06</text>
				<circle cx="102" cy="204" r="34"/>
				<text x="102" y="204">07</text>
				<circle cx="204" cy="204" r="34"/>
				<text x="204" y="204">08</text>
				<circle cx="306" cy="204" r="34"/>
				<text x="306" y="204">09</text>
				<circle cx="408" cy="204" r="34"/>
				<text x="408" y="204">10</text>
				<circle cx="510" cy="204" r="34"/>
				<text x="510" y="204">11</text>
				<circle cx="612" cy="204" r="34"/>
				<text x="612" y="204">12</text>
				<circle cx="0" cy="306" r="34"/>
				<text x="0" y="306">13</text>
				<circle cx="102" cy="306" r="34"/>
				<text x="102" y="306">14</text>
				<circle cx="204" cy="306" r="34"/>
				<text x="204" y="306">15</text>
				<circle cx="306" cy="306" r="34"/>
				<text x="306" y="306">16</text>
				<circle cx="408" cy="306" r="34"/>
				<text x="408" y="306">17</text>
				<circle cx="510" cy="306" r="34"/>
				<text x="510" y="306">18</text>
				<circle cx="612" cy="306" r="34"/>
				<text x="612" y="306">19</text>
				<circle cx="0" cy="408" r="34"/>
				<text x="0" y="408">20</text>
				<circle cx="102" cy="408" r="34"/>
				<text x="102" y="408">21</text>
				<circle cx="204" cy="408" r="34"/>
				<text x="204" y="408">22</text>
				<circle cx="306" cy="408" r="34"/>
				<text x="306" y="408">23</text>
				<circle cx="408" cy="408" r="34"/>
				<text x="408" y="408">24</text>
				<circle cx="510" cy="408" r="34"/>
				<text x="510" y="408">25</text>
				<circle cx="612" cy="408" r="34"/>
				<text x="612" y="408">26</text>
				<circle cx="0" cy="510" r="34"/>
				<text x="0" y="510">27</text>
				<circle cx="102" cy="510" r="34"/>
				<text x="102" y="510">28</text>
				<circle cx="204" cy="510" r="34"/>
				<text x="204" y="510">29</text>
				<circle cx="306" cy="510" r="34"/>
				<text x="306" y="510">30</text>
				<circle cx="408" cy="510" r="34"/>
				<text x="408" y="510">31</text>
			</g>
		</g>
		<g id="June" transform="translate(1700, 825)">
			<text x="0" y="0" style="font-family:'Helvetica';font-size:68px;fill:rgb(102,102,102);" text-anchor="middle" dominant-baseline="central">June, 2018</text>
			<g id="June_weekbar" transform="translate(0, 102.0)" style="font-family:'Helvetica';font-size:34px;fill:rgb(102,102,102);" text-anchor="middle" dominant-baseline="central">
				<text x="0" y="0">Su</text>
				<text x="102" y="0">Mo</text>
				<text x="204" y="0">Tu</text>
				<text x="306" y="0">We</text>
				<text x="408" y="0">Th</text>
				<text x="510" y="0">Fr</text>
				<text x="612" y="0">Sa</text>
			</g>
			<g id="June_days" transform="translate(0, 102.0)" text-anchor="middle" dominant-baseline="central" style="font-family:'Helvetica';font-size:34px;fill:rgb(102,102,102);" >
				<circle cx="510" cy="102" r="34"/>
				<text x="510" y="102">01</text>
				<circle cx="612" cy="102" r="34"/>
				<text x="612" y="102">02</text>
				<circle cx="0" cy="204" r="34"/>
				<text x="0" y="204">03</text>
				<circle cx="102" cy="204" r="34"/>
				<text x="102" y="204">04</text>
				<circle cx="204" cy="204" r="34"/>
				<text x="204" y="204">05</text>
				<circle cx="306" cy="204" r="34"/>
				<text x="306" y="204">06</text>
				<circle cx="408" cy="204" r="34"/>
				<text x="408" y="204">07</text>
				<circle cx="510" cy="204" r="34"/>
				<text x="510" y="204">08</text>
				<circle cx="612" cy="204" r="34"/>
				<text x="612" y="204">09</text>
				<circle cx="0" cy="306" r="34"/>
				<text x="0" y="306">10</text>
				<circle cx="102" cy="306" r="34"/>
				<text x="102" y="306">11</text>
				<circle cx="204" cy="306" r="34"/>
				<text x="204" y="306">12</text>
				<circle cx="306" cy="306" r="34"/>
				<text x="306" y="306">13</text>
				<circle cx="408" cy="306" r="34"/>
				<text x="408" y="306">14</text>
				<circle cx="510" cy="306" r="34"/>
				<text x="510" y="306">15</text>
				<circle cx="612" cy="306" r="34"/>
				<text x="612" y="306">16</text>
				<circle cx="0" cy="408" r="34"/>
				<text x="0" y="408">17</text>
				<circle cx="102" cy="408" r="34"/>
				<text x="102" y="408">18</text>
				<circle cx="204" cy="408" r="34"/>
				<text x="204" y="408">19</text>
				<circle cx="306" cy="408" r="34"/>
				<text x="306" y="408">20</text>
				<circle cx="408" cy="408" r="34"/>
				<text x="408" y="408">21</text>
				<circle cx="510" cy="408" r="34"/>
				<text x="510" y="408">22</text>
				<circle cx="612" cy="408" r="34"/>
				<text x="612" y="408">23</text>
				<circle cx="0" cy="510" r="34"/>
				<text x="0" y="510">24</text>
				<circle cx="102" cy="510" r="34"/>
				<text x="102" y="510">25</text>
				<circle cx="204" cy="510" r="34"/>
				<text x="204" y="510">26</text>
				<circle cx="306" cy="510" r="34"/>
				<text x="306" y="510">27</text>
				<circle cx="408" cy="510" r="34"/>
				<text x="408" y="510">28</text>
				<circle cx="510" cy="510" r="34"/>
				<text x="510" y="510">29</text>
				<circle cx="612" cy="510" r="34"/>
				<text x="612" y="510">30</text>
			</g>
		</g>
		<g id="July" transform="translate(0, 1650)">
			<text x="0" y="0" style="font-family:'Helvetica';font-size:68px;fill:rgb(102,102,102);" text-anchor="middle" dominant-baseline="central">July, 2018</text>
			<g id="July_weekbar" transform="translate(0, 102.0)" style="font-family:'Helvetica';font-size:34px;fill:rgb(102,102,102);" text-anchor="middle" dominant-baseline="central">
				<text x="0" y="0">Su</text>
				<text x="102" y="0">Mo</text>
				<text x="204" y="0">Tu</text>
				<text x="306" y="0">We</text>
				<text x="408" y="0">Th</text>
				<text x="510" y="0">Fr</text>
				<text x="612" y="0">Sa</text>
			</g>
			<g id="July_days" transform="translate(0, 102.0)" text-anchor="middle" dominant-baseline="central" style="font-family:'Helvetica';font-size:34px;fill:rgb(102,102,102);" >
				<circle cx="0" cy="102" r="34"/>
				<text x="0" y="102">01</text>
				<circle cx="102" cy="102" r="34"/>
				<text x="102" y="102">02</text>
				<circle cx="204" cy="102" r="34"/>
				<text x="204" y="102">03</text>
				<circle cx="306" cy="102" r="34"/>
				<text x="306" y="102">04</text>
				<circle cx="408" cy="102" r="34"/>
				<text x="408" y="102">05</text>
				<circle cx="510" cy="102" r="34"/>
				<text x="510" y="102">06</text>
				<circle cx="612" cy="102" r="34"/>
				<text x="612" y="102">07</text>
				<circle cx="0" cy="204" r="34"/>
				<text x="0" y="204">08</text>
				<circle cx="102" cy="204" r="34"/>
				<text x="102" y="204">09</text>
				<circle cx="204" cy="204" r="34"/>
				<text x="204" y="204">10</text>
				<circle cx="306" cy="204" r="34"/>
				<text x="306" y="204">11</text>
				<circle cx="408" cy="204" r="34"/>
				<text x="408" y="204">12</text>
				<circle cx="510" cy="204" r="34"/>
				<text x="510" y="204">13</text>
				<circle cx="612" cy="204" r="34"/>
				<text x="612" y="204">14</text>
				<circle cx="0" cy="306" r="34"/>
				<text x="0" y="306">15</text>
				<circle cx="102" cy="306" r="34"/>
				<text x="102" y="306">16</text>
				<circle cx="204" cy="306" r="34"/>
				<text x="204" y="306">17</text>
				<circle cx="306" cy="306" r="34"/>
				<text x="306" y="306">18</text>
				<circle cx="408" cy="306" r="34"/>
				<text x="408" y="306">19</text>
				<circle cx="510" cy="306" r="34"/>
				<text x="510" y="306">20</text>
				<circle cx="612" cy="306" r="34"/>
				<text x="612" y="306">21</text>
				<circle cx="0" cy="408" r="34"/>
				<text x="0" y="408">22</text>
				<circle cx="102" cy="408" r="34"/>
				<text x="102" y="408">23</text>
				<circle cx="204" cy="408" r="34"/>
				<text x="204" y="408">24</text>
				<circle cx="306" cy="408" r="34"/>
				<text x="306" y="408">25</text>
				<circle cx="408" cy="408" r="34"/>
				<text x="408" y="408">26</text>
				<circle cx="510" cy="408" r="34"/>
				<text x="510" y="408">27</text>
				<circle cx="612" cy="408" r="34"/>
				<text x="612" y="408">28</text>
				<circle cx="0" cy="510" r="34"/>
				<text x="0" y="510">29</text>
				<circle cx="102" cy="510" r="34"/>
				<text x="102" y="510">30</text>
				<circle cx="204" cy="510" r="34"/>
				<text x="204" y="510">31</text>
			</g>
		</g>
		<g id="August" transform="translate(850, 1650)">
			<text x="0" y="0" style="font-family:'Helvetica';font-size:68px;fill:rgb(102,102,102);" text-anchor="middle" dominant-baseline="central">August, 2018</text>
			<g id="August_weekbar" transform="translate(0, 102.0)" style="font-family:'Helvetica';font-size:34px;fill:rgb(102,102,102);" text-anchor="middle" dominant-baseline="central">
				<text x="0" y="0">Su</text>
				<text x="102" y="0">Mo</text>
				<text x="204" y="0">Tu</text>
				<text x="306" y="0">We</text>
				<text x="408" y="0">Th</text>
				<text x="510" y="0">Fr</text>
				<text x="612" y="0">Sa</text>
			</g>
			<g id="August_days" transform="translate(0, 102.0)" text-anchor="middle" dominant-baseline="central" style="font-family:'Helvetica';font-size:34px;fill:rgb(102,102,102);" >
				<circle cx="306" cy="102" r="34"/>
				<text x="306" y="102">01</text>
				<circle cx="408" cy="102" r="34"/>
				<text x="408" y="102">02</text>
				<circle cx="510" cy="102" r="34"/>
				<text x="510" y="102">03</text>
				<circle cx="612" cy="102" r="34"/>
				<text x="612" y="102">04</text>
				<circle cx="0" cy="204" r="34"/>
				<text x="0" y="204">05</text>
				<circle cx="102" cy="204" r="34"/>
				<text x="102" y="204">06</text>
				<circle cx="204" cy="204" r="34"/>
				<text x="204" y="204">07</text>
				<circle cx="306" cy="204" r="34"/>
				<text x="306" y="204">08</text>
				<circle cx="408" cy="204" r="34"/>
				<text x="408" y="204">09</text>
				<circle cx="510" cy="204" r="34"/>
				<text x="510" y="204">10</text>
				<circle cx="612" cy="204" r="34"/>
				<text x="612" y="204">11</text>
				<circle cx="0" cy="306" r="34"/>
				<text x="0" y="306">12</text>
				<circle cx="102" cy="306" r="34"/>
				<text x="102" y="306">13</text>
				<circle cx="204" cy="306" r="34"/>
				<text x="204" y="306">14</text>
				<circle cx="306" cy="306" r="34"/>
				<text x="306" y="306">15</text>
				<circle cx="408" cy="306" r="34"/>
				<text x="408" y="306">16</text>
				<circle cx="510" cy="306" r="34"/>
				<text x="510" y="306">17</text>
				<circle cx="612" cy="306" r="34"/>
				<text x="612" y="306">18</text>
				<circle cx="0" cy="408" r="34"/>
				<text x="0" y="408">19</text>
				<circle cx="102" cy="408" r="34"/>
				<text x="102" y="408">20</text>
				<circle cx="204" cy="408" r="34"/>
				<text x="204" y="408">21</text>
				<circle cx="306" cy="408" r="34"/>
				<text x="306" y="408">22</text>
				<circle cx="408" cy="408" r="34"/>
				<text x="408" y="408">23</text>
				<circle cx="510" cy="408" r="34"/>
				<text x="510" y="408">24</text>
				<circle cx="612" cy="408" r="34"/>
				<text x="612" y="408">25</text>
				<circle cx="0" cy="510" r="34"/>
				<text x="0" y="510">26</text>
				<circle cx="102" cy="510" r="34"/>
				<text x="102" y="510">27</text>
				<circle cx="204" cy="510" r="34"/>
				<text x="204" y="510">28</text>
				<circle cx="306" cy="510" r="34"/>
				<text x="306" y="510">29</text>
				<circle cx="408" cy="510" r="34"/>
				<text x="408" y="510">30</text>
				<circle cx="510" cy="510" r="34"/>
				<text x="510" y="510">31</text>
			</g>
		</g>
		<g id="September" transform="translate(1700, 1650)">
			<text x="0" y="0" style="font-family:'Helvetica';font-size:68px;fill:rgb(102,102,102);" text-anchor="middle" dominant-baseline="central">September, 2018</text>
			<g id="September_weekbar" transform="translate(0, 102.0)" style="font-family:'Helvetica';font-size:34px;fill:rgb(102,102,102);" text-anchor="middle" dominant-baseline="central">
				<text x="0" y="0">Su</text>
				<text x="102" y="0">Mo</text>
				<text x="204" y="0">Tu</text>
				<text x="306" y="0">We</text>
				<text x="408" y="0">Th</text>
				<text x="510" y="0">Fr</text>
				<text x="612" y="0">Sa</text>
			</g>
			<g id="September_days" transform="translate(0, 102.0)" text-anchor="middle" dominant-baseline="central" style="font-family:'Helvetica';font-size:34px;fill:rgb(102,102,102);" >
				<circle cx="612" cy="102" r="34"/>
				<text x="612" y="102">01</text>
				<circle cx="0" cy="204" r="34"/>
				<text x="0" y="204">02</text>
				<circle cx="102" cy="204" r="34"/>
				<text x="102" y="204">03</text>
				<circle cx="204" cy="204" r="34"/>
				<text x="204" y="204">04</text>
				<circle cx="306" cy="204" r="34"/>
				<text x="306" y="204">05</text>
				<circle cx="408" cy="204" r="34"/>
				<text x="408" y="204">06</text>
				<circle cx="510" cy="204" r="34"/>
				<text x="510" y="204">07</text>
				<circle cx="612" cy="204" r="34"/>
				<text x="612" y="204">08</text>
				<circle cx="0" cy="306" r="34"/>
				<text x="0" y="306">09</text>
				<circle cx="102" cy="306" r="34"/>
				<text x="102" y="306">10</text>
				<circle cx="204" cy="306" r="34"/>
				<text x="204" y="306">11</text>
				<circle cx="306" cy="306" r="34"/>
				<text x="306" y="306">12</text>
				<circle cx="408" cy="306" r="34"/>
				<text x="408" y="306">13</text>
				<circle cx="510" cy="306" r="34"/>
				<text x="510" y="306">14</text>
				<circle cx="612" cy="306" r="34"/>
				<text x="612" y="306">15</text>
				<circle cx="0" cy="408" r="34"/>
				<text x="0" y="408">16</text>
				<circle cx="102" cy="408" r="34"/>
				<text x="102" y="408">17</text>
				<circle cx="204" cy="408" r="34"/>
				<text x="204" y="408">18</text>
				<circle cx="306" cy="408" r="34"/>
				<text x="306" y="408">19</text>
				<circle cx="408" cy="408" r="34"/>
				<text x="408" y="408">20</text>
				<circle cx="510" cy="408" r="34"/>
				<text x="510" y="408">21</text>
				<circle cx="612" cy="408" r="34"/>
				<text x="612" y="408">22</text>
				<circle cx="0" cy="510" r="34"/>
				<text x="0" y="510">23</text>
				<circle cx="102" cy="510" r="34"/>
				<text x="102" y="510">24</text>
				<circle cx="204" cy="510" r="34"/>
				<text x="204" y="510">25</text>
				<circle cx="306" cy="510" r="34"/>
				<text x="306" y="510">26</text>
				<circle cx="408" cy="510" r="34"/>
				<text x="408" y="510">27</text>
				<circle cx="510" cy="510" r="34"/>
				<text x="510" y="510">28</text>
				<circle cx="612" cy="510" r="34"/>
				<text x="612" y="510">29</text>
				<circle cx="0" cy="612" r="34"/>
				<text x="0" y="612">30</text>
			</g>
		</g>
		<g id="October" transform="translate(0, 2475)">
			<text x="0" y="0" style="font-family:'Helvetica';font-size:68px;fill:rgb(102,102,102);" text-anchor="middle" dominant-baseline="central">October, 2018</text>
			<g id="October_weekbar" transform="translate(0, 102.0)" style="font-family:'Helvetica';font-size:34px;fill:rgb(102,102,102);" text-anchor="middle" dominant-baseline="central">
				<text x="0" y="0">Su</text>
				<text x="102" y="0">Mo</text>
				<text x="204" y="0">Tu</text>
				<text x="306" y="0">We</text>
				<text x="408" y="0">Th</text>
				<text x="510" y="0">Fr</text>
				<text x="612" y="0">Sa</text>
			</g>
			<g id="October_days" transform="translate(0, 102.0)" text-anchor="middle" dominant-baseline="central" style="font-family:'Helvetica';font-size:34px;fill:rgb(102,102,102);" >
				<circle cx="102" cy="102" r="34"/>
				<text x="102" y="102">01</text>
				<circle cx="204" cy="102" r="34"/>
				<text x="204" y="102">02</text>
				<circle cx="306" cy="102" r="34"/>
				<text x="306" y="102">03</text>
				<circle cx="408" cy="102" r="34"/>
				<text x="408" y="102">04</text>
				<circle cx="510" cy="102" r="34"/>
				<text x="510" y="102">05</text>
				<circle cx="612" cy="102" r="34"/>
				<text x="612" y="102">06</text>
				<circle cx="0" cy="204" r="34"/>
				<text x="0" y="204">07</text>
				<circle cx="102" cy="204" r="34"/>
				<text x="102" y="204">08</text>
				<circle cx="204" cy="204" r="34"/>
				<text x="204" y="204">09</text>
				<circle cx="306" cy="204" r="34"/>
				<text x="306" y="204">10</text>
				<circle cx="408" cy="204" r="34"/>
				<text x="408" y="204">11</text>
				<circle cx="510" cy="204" r="34"/>
				<text x="510" y="204">12</text>
				<circle cx="612" cy="204" r="34"/>
				<text x="612" y="204">13</text>
				<circle cx="0" cy="306" r="34"/>
				<text x="0" y="306">14</text>
				<circle cx="102" cy="306" r="34"/>
				<text x="102" y="306">15</text>
				<circle cx="204" cy="306" r="34"/>
				<text x="204" y="306">16</text>
				<circle cx="306" cy="306" r="34"/>
				<text x="306" y="306">17</text>
				<circle cx="408" cy="306" r="34"/>
				<text x="408" y="306">18</text>
				<circle cx="510" cy="306" r="34"/>
				<text x="510" y="306">19</text>
				<circle cx="612" cy="306" r="34"/>
				<text x="612" y="306">20</text>
				<circle cx="0" cy="408" r="34"/>
				<text x="0" y="408">21</text>
				<circle cx="102" cy="408" r="34"/>
				<text x="102" y="408">22</text>
				<circle cx="204" cy="408" r="34"/>
				<text x="204" y="408">23</text>
				<circle cx="306" cy="408" r="34"/>
				<text x="306" y="408">24</text>
				<circle cx="408" cy="408" r="34"/>
				<text x="408" y="408">25</text>
				<circle cx="510" cy="408" r="34"/>
				<text x="510" y="408">26</text>
				<circle cx="612" cy="408" r="34"/>
				<text x="612" y="408">27</text>
				<circle cx="0" cy="510" r="34"/>
				<text x="0" y="510">28</text>
				<circle cx="102" cy="510" r="34"/>
				<text x="102" y="510">29</text>
				<circle cx="204" cy="510" r="34"/>
				<text x="204" y="510">30</text>
				<circle cx="306" cy="510" r="34"/>
				<text x="306" y="510">31</text>
			</g>
		</g>
		<g id="November" transform="translate(850, 2475)">
			<text x="0" y="0" style="font-family:'Helvetica';font-size:68px;fill:rgb(102,102,102);" text-anchor="middle" dominant-baseline="central">November, 2018</text>
			<g id="November_weekbar" transform="translate(0, 102.0)" style="font-family:'Helvetica';font-size:34px;fill:rgb(102,102,102);" text-anchor="middle" dominant-baseline="central">
				<text x="0" y="0">Su</text>
				<text x="102" y="0">Mo</text>
				<text x="204" y="0">Tu</text>
				<text x="306" y="0">We</text>
				<text x="408" y="0">Th</text>
				<text x="510" y="0">Fr</text>
				<text x="612" y="0">Sa</text>
			</g>
			<g id="November_days" transform="translate(0, 102.0)" text-anchor="middle" dominant-baseline="central" style="font-family:'Helvetica';font-size:34px;fill:rgb(102,102,102);" >
				<circle cx="408" cy="102" r="34"/>
				<text x="408" y="102">01</text>
				<circle cx="510" cy="102" r="34"/>
				<text x="510" y="102">02</text>
				<circle cx="612" cy="102" r="34"/>
				<text x="612" y="102">03</text>
				<circle cx="0" cy="204" r="34"/>
				<text x="0" y="204">04</text>
				<circle cx="102" cy="204" r="34"/>
				<text x="102" y="204">05</text>
				<circle cx="204" cy="204" r="34"/>
				<text x="204" y="204">06</text>
				<circle cx="306" cy="204" r="34"/>
				<text x="306" y="204">07</text>
				<circle cx="408" cy="204" r="34"/>
				<text x="408" y="204">08</text>
				<circle cx="510" cy="204" r="34"/>
				<text x="510" y="204">09</text>
				<circle cx="612" cy="204" r="34"/>
				<text x="612" y="204">10</text>
				<circle cx="0" cy="306" r="34"/>
				<text x="0" y="306">11</text>
				<circle cx="102" cy="306" r="34"/>
				<text x="102" y="306">12</text>
				<circle cx="204" cy="306" r="34"/>
				<text x="204" y="306">13</text>
				<circle cx="306" cy="306" r="34"/>
				<text x="306" y="306">14</text>
				<circle cx="408" cy="306" r="34"/>
				<text x="408" y="306">15</text>
				<circle cx="510" cy="306" r="34"/>
				<text x="510" y="306">16</text>
				<circle cx="612" cy="306" r="34"/>
				<text x="612" y="306">17</text>
				<circle cx="0" cy="408" r="34"/>
				<text x="0" y="408">18</text>
				<circle cx="102" cy="408" r="34"/>
				<text x="102" y="408">19</text>
				<circle cx="204" cy="408" r="34"/>
				<text x="204" y="408">20</text>
				<circle cx="306" cy="408" r="34"/>
				<text x="306" y="408">21</text>
				<circle cx="408" cy="408" r="34"/>
				<text x="408" y="408">22</text>
				<circle cx="510" cy="408" r="34"/>
				<text x="510" y="408">23</text>
				<circle cx="612" cy="408" r="34"/>
				<text x="612" y="408">24</text>
				<circle cx="0" cy="510" r="34"/>
				<text x="0" y="510">25</text>
				<circle cx="102" cy="510" r="34"/>
				<text x="102" y="510">26</text>
				<circle cx="204" cy="510" r="34"/>
				<text x="204" y="510">27</text>
				<circle cx="306" cy="510" r="34"/>
				<text x="306" y="510">28</text>
				<circle cx="408" cy="510" r="34"/>
				<text x="408" y="510">29</text>
				<circle cx="510" cy="510" r="34"/>
				<text x="510" y="510">30</text>
			</g>
		</g>
		<g id="December" transform="translate(1700, 2475)">
			<text x="0" y="0" style="font-family:'Helvetica';font-size:68px;fill:rgb(102,102,102);" text-anchor="middle" dominant-baseline="central">December, 2018</text>
			<g id="December_weekbar" transform="translate(0, 102.0)" style="font-family:'Helvetica';font-size:34px;fill:rgb(102,102,102);" text-anchor="middle" dominant-baseline="central">
				<text x="0" y="0">Su</text>
				<text x="102" y="0">Mo</text>
				<text x="204" y="0">Tu</text>
				<text x="306" y="0">We</text>
				<text x="408" y="0">Th</text>
				<text x="510" y="0">Fr</text>
				<text x="612" y="0">Sa</text>
			</g>
			<g id="December_days" transform="translate(0, 102.0)" text-anchor="middle" dominant-baseline="central" style="font-family:'Helvetica';font-size:34px;fill:rgb(102,102,102);" >
				<circle cx="612" cy="102" r="34"/>
				<text x="612" y="102">01</text>
				<circle cx="0" cy="204" r="34"/>
				<text x="0" y="204">02</text>
				<circle cx="102" cy="204" r="34"/>
				<text x="102" y="204">03</text>
				<circle cx="204" cy="204" r="34"/>
				<text x="204" y="204">04</text>
				<circle cx="306" cy="204" r="34"/>
				<text x="306" y="204">05</text>
				<circle cx="408" cy="204" r="34"/>
				<text x="408" y="204">06</text>
				<circle cx="510" cy="204" r="34"/>
				<text x="510" y="204">07</text>
				<circle cx="612" cy="204" r="34"/>
				<text x="612" y="204">08</text>
				<circle cx="0" cy="306" r="34"/>
				<text x="0" y="306">09</text>
				<circle cx="102" cy="306" r="34"/>
				<text x="102" y="306">10</text>
				<circle cx="204" cy="306" r="34"/>
				<text x="204" y="306">11</text>
				<circle cx="306" cy="306" r="34"/>
				<text x="306" y="306">12</text>
				<circle cx="408" cy="306" r="34"/>
				<text x="408" y="306">13</text>
				<circle cx="510" cy="306" r="34"/>
				<text x="510" y="306">14</text>
				<circle cx="612" cy="306" r="34"/>
				<text x="612" y="306">15</text>
				<circle cx="0" cy="408" r="34"/>
				<text x="0" y="408">16</text>
				<circle cx="102" cy="408" r="34"/>
				<text x="102" y="408">17</text>
				<circle cx="204" cy="408" r="34"/>
				<text x="204" y="408">18</text>
				<circle cx="306" cy="408" r="34"/>
				<text x="306" y="408">19</text>
				<circle cx="408" cy="408" r="34"/>
				<text x="408" y="408">20</text>
				<circle cx="510" cy="408" r="34"/>
				<text x="510" y="408">21</text>
				<circle cx="612" cy="408" r="34"/>
				<text x="612" y="408">22</text>
				<circle cx="0" cy="510" r="34"/>
				<text x="0" y="510">23</text>
				<circle cx="102" cy="510" r="34"/>
				<text x="102" y="510">24</text>
				<circle cx="204" cy="510" r="34"/>
				<text x="204" y="510">25</text>
				<circle cx="306" cy="510" r="34"/>
				<text x="306" y="510">26</text>
				<circle cx="408" cy="510" r="34"/>
				<text x="408" y="510">27</text>
				<circle cx="510" cy="510" r="34"/>
				<text x="510" y="510">28</text>
				<circle cx="612" cy="510" r="34"/>
				<text x="612" y="510">29</text>
				<circle cx="0" cy="612" r="34"/>
				<text x="0" y="612">30</text>
				<circle cx="102" cy="612" r="34"/>
				<text x="102" y="612">31</text>
			</g>
		</g>
	</g>
</svg>