<?xml version="1.0" encoding="UTF-8" standalone="no"?>
<!DOCTYPE svg PUBLIC "-//W3C//DTD SVG 1.1//EN" "http://www.w3.org/Graphics/SVG/1.1/DTD/svg11.dtd">
<svg width="100%" height="100%" viewBox="0 0 2550 3300" xmlns="http://www.w3.org/2000/svg">
<style>/* <![CDATA[ */circle{fill:rgb(220,230,255);}/* ]]> */</style>
	<g id="page_title" transform="translate(1275, 165)">
		<text x="0" y="0" style="font-family:'Helvetica';font-size:126.98412698412699px;fill:rgb(102,102,102);" text-anchor="middle" dominant-baseline="central">2018</text>
		</g>
<g id="calendar" width="2000" height="2600" transform="translate(275, 440)">
		<g id="January" transform="translate(0, 0)">
			<text x="0" y="0" style="font-family:'Helvetica';font-size:95.23809523809524px;fill:rgb(102,102,102);" text-anchor="left" dominant-baseline="central">January</text>
			<g id="January_weekbar" transform="translate(0, 142.85714285714286)" style="font-family:'Helvetica';font-size:31.746031746031747px;fill:rgb(51,51,51);" text-anchor="middle" dominant-baseline="central">
				<text x="31.746031746031747" y="0">Su</text>
				<text x="105.82010582010582" y="0">Mo</text>
				<text x="179.8941798941799" y="0">Tu</text>
				<text x="253.96825396825398" y="0">We</text>
				<text x="328.04232804232805" y="0">Th</text>
				<text x="402.1164021164021" y="0">Fr</text>
				<text x="476.1904761904762" y="0">Sa</text>
			</g>
			<g id="January_days" transform="translate(0, 142.85714285714286)" text-anchor="middle" dominant-baseline="central" style="font-family:'Helvetica';font-size:31.746031746031747px;fill:rgb(51,51,51);" >
				<circle cx="105.82010582010582" cy="74.07407407407408" r="31.746031746031747"/>
				<text x="105.82010582010582" y="74.07407407407408">01</text>
				<circle cx="179.8941798941799" cy="74.07407407407408" r="31.746031746031747"/>
				<text x="179.8941798941799" y="74.07407407407408">02</text>
				<circle cx="253.96825396825398" cy="74.07407407407408" r="31.746031746031747"/>
				<text x="253.96825396825398" y="74.07407407407408">03</text>
				<circle cx="328.04232804232805" cy="74.07407407407408" r="31.746031746031747"/>
				<text x="328.04232804232805" y="74.07407407407408">04</text>
				<circle cx="402.1164021164021" cy="74.07407407407408" r="31.746031746031747"/>
				<text x="402.1164021164021" y="74.07407407407408">05</text>
				<circle cx="476.1904761904762" cy="74.07407407407408" r="31.746031746031747"/>
				<text x="476.1904761904762" y="74.07407407407408">06</text>
				<circle cx="31.746031746031747" cy="148.14814814814815" r="31.746031746031747"/>
				<text x="31.746031746031747" y="148.14814814814815">07</text>
				<circle cx="105.82010582010582" cy="148.14814814814815" r="31.746031746031747"/>
				<text x="105.82010582010582" y="148.14814814814815">08</text>
				<circle cx="179.8941798941799" cy="148.14814814814815" r="31.746031746031747"/>
				<text x="179.8941798941799" y="148.14814814814815">09</text>
				<circle cx="253.96825396825398" cy="148.14814814814815" r="31.746031746031747"/>
				<text x="253.96825396825398" y="148.14814814814815">10</text>
				<circle cx="328.04232804232805" cy="148.14814814814815" r="31.746031746031747"/>
				<text x="328.04232804232805" y="148.14814814814815">11</text>
				<circle cx="402.1164021164021" cy="148.14814814814815" r="31.746031746031747"/>
				<text x="402.1164021164021" y="148.14814814814815">12</text>
				<circle cx="476.1904761904762" cy="148.14814814814815" r="31.746031746031747"/>
				<text x="476.1904761904762" y="148.14814814814815">13</text>
				<circle cx="31.746031746031747" cy="222.22222222222223" r="31.746031746031747"/>
				<text x="31.746031746031747" y="222.22222222222223">14</text>
				<circle cx="105.82010582010582" cy="222.22222222222223" r="31.746031746031747"/>
				<text x="105.82010582010582" y="222.22222222222223">15</text>
				<circle cx="179.8941798941799" cy="222.22222222222223" r="31.746031746031747"/>
				<text x="179.8941798941799" y="222.22222222222223">16</text>
				<circle cx="253.96825396825398" cy="222.22222222222223" r="31.746031746031747"/>
				<text x="253.96825396825398" y="222.22222222222223">17</text>
				<circle cx="328.04232804232805" cy="222.22222222222223" r="31.746031746031747"/>
				<text x="328.04232804232805" y="222.22222222222223">18</text>
				<circle cx="402.1164021164021" cy="222.22222222222223" r="31.746031746031747"/>
				<text x="402.1164021164021" y="222.22222222222223">19</text>
				<circle cx="476.1904761904762" cy="222.22222222222223" r="31.746031746031747"/>
				<text x="476.1904761904762" y="222.22222222222223">20</text>
				<circle cx="31.746031746031747" cy="296.2962962962963" r="31.746031746031747"/>
				<text x="31.746031746031747" y="296.2962962962963">21</text>
				<circle cx="105.82010582010582" cy="296.2962962962963" r="31.746031746031747"/>
				<text x="105.82010582010582" y="296.2962962962963">22</text>
				<circle cx="179.8941798941799" cy="296.2962962962963" r="31.746031746031747"/>
				<text x="179.8941798941799" y="296.2962962962963">23</text>
				<circle cx="253.96825396825398" cy="296.2962962962963" r="31.746031746031747"/>
				<text x="253.96825396825398" y="296.2962962962963">24</text>
				<circle cx="328.04232804232805" cy="296.2962962962963" r="31.746031746031747"/>
				<text x="328.04232804232805" y="296.2962962962963">25</text>
				<circle cx="402.1164021164021" cy="296.2962962962963" r="31.746031746031747"/>
				<text x="402.1164021164021" y="296.2962962962963">26</text>
				<circle cx="476.1904761904762" cy="296.2962962962963" r="31.746031746031747"/>
				<text x="476.1904761904762" y="296.2962962962963">27</text>
				<circle cx="31.746031746031747" cy="370.3703703703704" r="31.746031746031747"/>
				<text x="31.746031746031747" y="370.3703703703704">28</text>
				<circle cx="105.82010582010582" cy="370.3703703703704" r="31.746031746031747"/>
				<text x="105.82010582010582" y="370.3703703703704">29</text>
				<circle cx="179.8941798941799" cy="370.3703703703704" r="31.746031746031747"/>
				<text x="179.8941798941799" y="370.3703703703704">30</text>
				<circle cx="253.96825396825398" cy="370.3703703703704" r="31.746031746031747"/>
				<text x="253.96825396825398" y="370.3703703703704">31</text>
			</g>
		</g>
		<g id="February" transform="translate(730.1587301587301, 0)">
			<text x="0" y="0" style="font-family:'Helvetica';font-size:95.23809523809524px;fill:rgb(102,102,102);" text-anchor="left" dominant-baseline="central">February</text>
			<g id="February_weekbar" transform="translate(0, 142.85714285714286)" style="font-family:'Helvetica';font-size:31.746031746031747px;fill:rgb(51,51,51);" text-anchor="middle" dominant-baseline="central">
				<text x="31.746031746031747" y="0">Su</text>
				<text x="105.82010582010582" y="0">Mo</text>
				<text x="179.8941798941799" y="0">Tu</text>
				<text x="253.96825396825398" y="0">We</text>
				<text x="328.04232804232805" y="0">Th</text>
				<text x="402.1164021164021" y="0">Fr</text>
				<text x="476.1904761904762" y="0">Sa</text>
			</g>
			<g id="February_days" transform="translate(0, 142.85714285714286)" text-anchor="middle" dominant-baseline="central" style="font-family:'Helvetica';font-size:31.746031746031747px;fill:rgb(51,51,51);" >
				<circle cx="328.04232804232805" cy="74.07407407407408" r="31.746031746031747"/>
				<text x="328.04232804232805" y="74.07407407407408">01</text>
				<circle cx="402.1164021164021" cy="74.07407407407408" r="31.746031746031747"/>
				<text x="402.1164021164021" y="74.07407407407408">02</text>
				<circle cx="476.1904761904762" cy="74.07407407407408" r="31.746031746031747"/>
				<text x="476.1904761904762" y="74.07407407407408">03</text>
				<circle cx="31.746031746031747" cy="148.14814814814815" r="31.746031746031747"/>
				<text x="31.746031746031747" y="148.14814814814815">04</text>
				<circle cx="105.82010582010582" cy="148.14814814814815" r="31.746031746031747"/>
				<text x="105.82010582010582" y="148.14814814814815">05</text>
				<circle cx="179.8941798941799" cy="148.14814814814815" r="31.746031746031747"/>
				<text x="179.8941798941799" y="148.14814814814815">06</text>
				<circle cx="253.96825396825398" cy="148.14814814814815" r="31.746031746031747"/>
				<text x="253.96825396825398" y="148.14814814814815">07</text>
				<circle cx="328.04232804232805" cy="148.14814814814815" r="31.746031746031747"/>
				<text x="328.04232804232805" y="148.14814814814815">08</text>
				<circle cx="402.1164021164021" cy="148.14814814814815" r="31.746031746031747"/>
				<text x="402.1164021164021" y="148.14814814814815">09</text>
				<circle cx="476.1904761904762" cy="148.14814814814815" r="31.746031746031747"/>
				<text x="476.1904761904762" y="148.14814814814815">10</text>
				<circle cx="31.746031746031747" cy="222.22222222222223" r="31.746031746031747"/>
				<text x="31.746031746031747" y="222.22222222222223">11</text>
				<circle cx="105.82010582010582" cy="222.22222222222223" r="31.746031746031747"/>
				<text x="105.82010582010582" y="222.22222222222223">12</text>
				<circle cx="179.8941798941799" cy="222.22222222222223" r="31.746031746031747"/>
				<text x="179.8941798941799" y="222.22222222222223">13</text>
				<circle cx="253.96825396825398" cy="222.22222222222223" r="31.746031746031747"/>
				<text x="253.96825396825398" y="222.22222222222223">14</text>
				<circle cx="328.04232804232805" cy="222.22222222222223" r="31.746031746031747"/>
				<text x="328.04232804232805" y="222.22222222222223">15</text>
				<circle cx="402.1164021164021" cy="222.22222222222223" r="31.746031746031747"/>
				<text x="402.1164021164021" y="222.22222222222223">16</text>
				<circle cx="476.1904761904762" cy="222.22222222222223" r="31.746031746031747"/>
				<text x="476.1904761904762" y="222.22222222222223">17</text>
				<circle cx="31.746031746031747" cy="296.2962962962963" r="31.746031746031747"/>
				<text x="31.746031746031747" y="296.2962962962963">18</text>
				<circle cx="105.82010582010582" cy="296.2962962962963" r="31.746031746031747"/>
				<text x="105.82010582010582" y="296.2962962962963">19</text>
				<circle cx="179.8941798941799" cy="296.2962962962963" r="31.746031746031747"/>
				<text x="179.8941798941799" y="296.2962962962963">20</text>
				<circle cx="253.96825396825398" cy="296.2962962962963" r="31.746031746031747"/>
				<text x="253.96825396825398" y="296.2962962962963">21</text>
				<circle cx="328.04232804232805" cy="296.2962962962963" r="31.746031746031747"/>
				<text x="328.04232804232805" y="296.2962962962963">22</text>
				<circle cx="402.1164021164021" cy="296.2962962962963" r="31.746031746031747"/>
				<text x="402.1164021164021" y="296.2962962962963">23</text>
				<circle cx="476.1904761904762" cy="296.2962962962963" r="31.746031746031747"/>
				<text x="476.1904761904762" y="296.2962962962963">24</text>
				<circle cx="31.746031746031747" cy="370.3703703703704" r="31.746031746031747"/>
				<text x="31.746031746031747" y="370.3703703703704">25</text>
				<circle cx="105.82010582010582" cy="370.3703703703704" r="31.746031746031747"/>
				<text x="105.82010582010582" y="370.3703703703704">26</text>
				<circle cx="179.8941798941799" cy="370.3703703703704" r="31.746031746031747"/>
				<text x="179.8941798941799" y="370.3703703703704">27</text>
				<circle cx="253.96825396825398" cy="370.3703703703704" r="31.746031746031747"/>
				<text x="253.96825396825398" y="370.3703703703704">28</text>
			</g>
		</g>
		<g id="March" transform="translate(1460.3174603174602, 0)">
			<text x="0" y="0" style="font-family:'Helvetica';font-size:95.23809523809524px;fill:rgb(102,102,102);" text-anchor="left" dominant-baseline="central">March</text>
			<g id="March_weekbar" transform="translate(0, 142.85714285714286)" style="font-family:'Helvetica';font-size:31.746031746031747px;fill:rgb(51,51,51);" text-anchor="middle" dominant-baseline="central">
				<text x="31.746031746031747" y="0">Su</text>
				<text x="105.82010582010582" y="0">Mo</text>
				<text x="179.8941798941799" y="0">Tu</text>
				<text x="253.96825396825398" y="0">We</text>
				<text x="328.04232804232805" y="0">Th</text>
				<text x="402.1164021164021" y="0">Fr</text>
				<text x="476.1904761904762" y="0">Sa</text>
			</g>
			<g id="March_days" transform="translate(0, 142.85714285714286)" text-anchor="middle" dominant-baseline="central" style="font-family:'Helvetica';font-size:31.746031746031747px;fill:rgb(51,51,51);" >
				<circle cx="328.04232804232805" cy="74.07407407407408" r="31.746031746031747"/>
				<text x="328.04232804232805" y="74.07407407407408">01</text>
				<circle cx="402.1164021164021" cy="74.07407407407408" r="31.746031746031747"/>
				<text x="402.1164021164021" y="74.07407407407408">02</text>
				<circle cx="476.1904761904762" cy="74.07407407407408" r="31.746031746031747"/>
				<text x="476.1904761904762" y="74.07407407407408">03</text>
				<circle cx="31.746031746031747" cy="148.14814814814815" r="31.746031746031747"/>
				<text x="31.746031746031747" y="148.14814814814815">04</text>
				<circle cx="105.82010582010582" cy="148.14814814814815" r="31.746031746031747"/>
				<text x="105.82010582010582" y="148.14814814814815">05</text>
				<circle cx="179.8941798941799" cy="148.14814814814815" r="31.746031746031747"/>
				<text x="179.8941798941799" y="148.14814814814815">06</text>
				<circle cx="253.96825396825398" cy="148.14814814814815" r="31.746031746031747"/>
				<text x="253.96825396825398" y="148.14814814814815">07</text>
				<circle cx="328.04232804232805" cy="148.14814814814815" r="31.746031746031747"/>
				<text x="328.04232804232805" y="148.14814814814815">08</text>
				<circle cx="402.1164021164021" cy="148.14814814814815" r="31.746031746031747"/>
				<text x="402.1164021164021" y="148.14814814814815">09</text>
				<circle cx="476.1904761904762" cy="148.14814814814815" r="31.746031746031747"/>
				<text x="476.1904761904762" y="148.14814814814815">10</text>
				<circle cx="31.746031746031747" cy="222.22222222222223" r="31.746031746031747"/>
				<text x="31.746031746031747" y="222.22222222222223">11</text>
				<circle cx="105.82010582010582" cy="222.22222222222223" r="31.746031746031747"/>
				<text x="105.82010582010582" y="222.22222222222223">12</text>
				<circle cx="179.8941798941799" cy="222.22222222222223" r="31.746031746031747"/>
				<text x="179.8941798941799" y="222.22222222222223">13</text>
				<circle cx="253.96825396825398" cy="222.22222222222223" r="31.746031746031747"/>
				<text x="253.96825396825398" y="222.22222222222223">14</text>
				<circle cx="328.04232804232805" cy="222.22222222222223" r="31.746031746031747"/>
				<text x="328.04232804232805" y="222.22222222222223">15</text>
				<circle cx="402.1164021164021" cy="222.22222222222223" r="31.746031746031747"/>
				<text x="402.1164021164021" y="222.22222222222223">16</text>
				<circle cx="476.1904761904762" cy="222.22222222222223" r="31.746031746031747"/>
				<text x="476.1904761904762" y="222.22222222222223">17</text>
				<circle cx="31.746031746031747" cy="296.2962962962963" r="31.746031746031747"/>
				<text x="31.746031746031747" y="296.2962962962963">18</text>
				<circle cx="105.82010582010582" cy="296.2962962962963" r="31.746031746031747"/>
				<text x="105.82010582010582" y="296.2962962962963">19</text>
				<circle cx="179.8941798941799" cy="296.2962962962963" r="31.746031746031747"/>
				<text x="179.8941798941799" y="296.2962962962963">20</text>
				<circle cx="253.96825396825398" cy="296.2962962962963" r="31.746031746031747"/>
				<text x="253.96825396825398" y="296.2962962962963">21</text>
				<circle cx="328.04232804232805" cy="296.2962962962963" r="31.746031746031747"/>
				<text x="328.04232804232805" y="296.2962962962963">22</text>
				<circle cx="402.1164021164021" cy="296.2962962962963" r="31.746031746031747"/>
				<text x="402.1164021164021" y="296.2962962962963">23</text>
				<circle cx="476.1904761904762" cy="296.2962962962963" r="31.746031746031747"/>
				<text x="476.1904761904762" y="296.2962962962963">24</text>
				<circle cx="31.746031746031747" cy="370.3703703703704" r="31.746031746031747"/>
				<text x="31.746031746031747" y="370.3703703703704">25</text>
				<circle cx="105.82010582010582" cy="370.3703703703704" r="31.746031746031747"/>
				<text x="105.82010582010582" y="370.3703703703704">26</text>
				<circle cx="179.8941798941799" cy="370.3703703703704" r="31.746031746031747"/>
				<text x="179.8941798941799" y="370.3703703703704">27</text>
				<circle cx="253.96825396825398" cy="370.3703703703704" r="31.746031746031747"/>
				<text x="253.96825396825398" y="370.3703703703704">28</text>
				<circle cx="328.04232804232805" cy="370.3703703703704" r="31.746031746031747"/>
				<text x="328.04232804232805" y="370.3703703703704">29</text>
				<circle cx="402.1164021164021" cy="370.3703703703704" r="31.746031746031747"/>
				<text x="402.1164021164021" y="370.3703703703704">30</text>
				<circle cx="476.1904761904762" cy="370.3703703703704" r="31.746031746031747"/>
				<text x="476.1904761904762" y="370.3703703703704">31</text>
			</g>
		</g>
		<g id="April" transform="translate(0, 713.4920634920635)">
			<text x="0" y="0" style="font-family:'Helvetica';font-size:95.23809523809524px;fill:rgb(102,102,102);" text-anchor="left" dominant-baseline="central">April</text>
			<g id="April_weekbar" transform="translate(0, 142.85714285714286)" style="font-family:'Helvetica';font-size:31.746031746031747px;fill:rgb(51,51,51);" text-anchor="middle" dominant-baseline="central">
				<text x="31.746031746031747" y="0">Su</text>
				<text x="105.82010582010582" y="0">Mo</text>
				<text x="179.8941798941799" y="0">Tu</text>
				<text x="253.96825396825398" y="0">We</text>
				<text x="328.04232804232805" y="0">Th</text>
				<text x="402.1164021164021" y="0">Fr</text>
				<text x="476.1904761904762" y="0">Sa</text>
			</g>
			<g id="April_days" transform="translate(0, 142.85714285714286)" text-anchor="middle" dominant-baseline="central" style="font-family:'Helvetica';font-size:31.746031746031747px;fill:rgb(51,51,51);" >
				<circle cx="31.746031746031747" cy="74.07407407407408" r="31.746031746031747"/>
				<text x="31.746031746031747" y="74.07407407407408">01</text>
				<circle cx="105.82010582010582" cy="74.07407407407408" r="31.746031746031747"/>
				<text x="105.82010582010582" y="74.07407407407408">02</text>
				<circle cx="179.8941798941799" cy="74.07407407407408" r="31.746031746031747"/>
				<text x="179.8941798941799" y="74.07407407407408">03</text>
				<circle cx="253.96825396825398" cy="74.07407407407408" r="31.746031746031747"/>
				<text x="253.96825396825398" y="74.07407407407408">04</text>
				<circle cx="328.04232804232805" cy="74.07407407407408" r="31.746031746031747"/>
				<text x="328.04232804232805" y="74.07407407407408">05</text>
				<circle cx="402.1164021164021" cy="74.07407407407408" r="31.746031746031747"/>
				<text x="402.1164021164021" y="74.07407407407408">06</text>
				<circle cx="476.1904761904762" cy="74.07407407407408" r="31.746031746031747"/>
				<text x="476.1904761904762" y="74.07407407407408">07</text>
				<circle cx="31.746031746031747" cy="148.14814814814815" r="31.746031746031747"/>
				<text x="31.746031746031747" y="148.14814814814815">08</text>
				<circle cx="105.82010582010582" cy="148.14814814814815" r="31.746031746031747"/>
				<text x="105.82010582010582" y="148.14814814814815">09</text>
				<circle cx="179.8941798941799" cy="148.14814814814815" r="31.746031746031747"/>
				<text x="179.8941798941799" y="148.14814814814815">10</text>
				<circle cx="253.96825396825398" cy="148.14814814814815" r="31.746031746031747"/>
				<text x="253.96825396825398" y="148.14814814814815">11</text>
				<circle cx="328.04232804232805" cy="148.14814814814815" r="31.746031746031747"/>
				<text x="328.04232804232805" y="148.14814814814815">12</text>
				<circle cx="402.1164021164021" cy="148.14814814814815" r="31.746031746031747"/>
				<text x="402.1164021164021" y="148.14814814814815">13</text>
				<circle cx="476.1904761904762" cy="148.14814814814815" r="31.746031746031747"/>
				<text x="476.1904761904762" y="148.14814814814815">14</text>
				<circle cx="31.746031746031747" cy="222.22222222222223" r="31.746031746031747"/>
				<text x="31.746031746031747" y="222.22222222222223">15</text>
				<circle cx="105.82010582010582" cy="222.22222222222223" r="31.746031746031747"/>
				<text x="105.82010582010582" y="222.22222222222223">16</text>
				<circle cx="179.8941798941799" cy="222.22222222222223" r="31.746031746031747"/>
				<text x="179.8941798941799" y="222.22222222222223">17</text>
				<circle cx="253.96825396825398" cy="222.22222222222223" r="31.746031746031747"/>
				<text x="253.96825396825398" y="222.22222222222223">18</text>
				<circle cx="328.04232804232805" cy="222.22222222222223" r="31.746031746031747"/>
				<text x="328.04232804232805" y="222.22222222222223">19</text>
				<circle cx="402.1164021164021" cy="222.22222222222223" r="31.746031746031747"/>
				<text x="402.1164021164021" y="222.22222222222223">20</text>
				<circle cx="476.1904761904762" cy="222.22222222222223" r="31.746031746031747"/>
				<text x="476.1904761904762" y="222.22222222222223">21</text>
				<circle cx="31.746031746031747" cy="296.2962962962963" r="31.746031746031747"/>
				<text x="31.746031746031747" y="296.2962962962963">22</text>
				<circle cx="105.82010582010582" cy="296.2962962962963" r="31.746031746031747"/>
				<text x="105.82010582010582" y="296.2962962962963">23</text>
				<circle cx="179.8941798941799" cy="296.2962962962963" r="31.746031746031747"/>
				<text x="179.8941798941799" y="296.2962962962963">24</text>
				<circle cx="253.96825396825398" cy="296.2962962962963" r="31.746031746031747"/>
				<text x="253.96825396825398" y="296.2962962962963">25</text>
				<circle cx="328.04232804232805" cy="296.2962962962963" r="31.746031746031747"/>
				<text x="328.04232804232805" y="296.2962962962963">26</text>
				<circle cx="402.1164021164021" cy="296.2962962962963" r="31.746031746031747"/>
				<text x="402.1164021164021" y="296.2962962962963">27</text>
				<circle cx="476.1904761904762" cy="296.2962962962963" r="31.746031746031747"/>
				<text x="476.1904761904762" y="296.2962962962963">28</text>
				<circle cx="31.746031746031747" cy="370.3703703703704" r="31.746031746031747"/>
				<text x="31.746031746031747" y="370.3703703703704">29</text>
				<circle cx="105.82010582010582" cy="370.3703703703704" r="31.746031746031747"/>
				<text x="105.82010582010582" y="370.3703703703704">30</text>
			</g>
		</g>
		<g id="May" transform="translate(730.1587301587301, 713.4920634920635)">
			<text x="0" y="0" style="font-family:'Helvetica';font-size:95.23809523809524px;fill:rgb(102,102,102);" text-anchor="left" dominant-baseline="central">May</text>
			<g id="May_weekbar" transform="translate(0, 142.85714285714286)" style="font-family:'Helvetica';font-size:31.746031746031747px;fill:rgb(51,51,51);" text-anchor="middle" dominant-baseline="central">
				<text x="31.746031746031747" y="0">Su</text>
				<text x="105.82010582010582" y="0">Mo</text>
				<text x="179.8941798941799" y="0">Tu</text>
				<text x="253.96825396825398" y="0">We</text>
				<text x="328.04232804232805" y="0">Th</text>
				<text x="402.1164021164021" y="0">Fr</text>
				<text x="476.1904761904762" y="0">Sa</text>
			</g>
			<g id="May_days" transform="translate(0, 142.85714285714286)" text-anchor="middle" dominant-baseline="central" style="font-family:'Helvetica';font-size:31.746031746031747px;fill:rgb(51,51,51);" >
				<circle cx="179.8941798941799" cy="74.07407407407408" r="31.746031746031747"/>
				<text x="179.8941798941799" y="74.07407407407408">01</text>
				<circle cx="253.96825396825398" cy="74.07407407407408" r="31.746031746031747"/>
				<text x="253.96825396825398" y="74.07407407407408">02</text>
				<circle cx="328.04232804232805" cy="74.07407407407408" r="31.746031746031747"/>
				<text x="328.04232804232805" y="74.07407407407408">03</text>
				<circle cx="402.1164021164021" cy="74.07407407407408" r="31.746031746031747"/>
				<text x="402.1164021164021" y="74.07407407407408">04</text>
				<circle cx="476.1904761904762" cy="74.07407407407408" r="31.746031746031747"/>
				<text x="476.1904761904762" y="74.07407407407408">05</text>
				<circle cx="31.746031746031747" cy="148.14814814814815" r="31.746031746031747"/>
				<text x="31.746031746031747" y="148.14814814814815">06</text>
				<circle cx="105.82010582010582" cy="148.14814814814815" r="31.746031746031747"/>
				<text x="105.82010582010582" y="148.14814814814815">07</text>
				<circle cx="179.8941798941799" cy="148.14814814814815" r="31.746031746031747"/>
				<text x="179.8941798941799" y="148.14814814814815">08</text>
				<circle cx="253.96825396825398" cy="148.14814814814815" r="31.746031746031747"/>
				<text x="253.96825396825398" y="148.14814814814815">09</text>
				<circle cx="328.04232804232805" cy="148.14814814814815" r="31.746031746031747"/>
				<text x="328.04232804232805" y="148.14814814814815">10</text>
				<circle cx="402.1164021164021" cy="148.14814814814815" r="31.746031746031747"/>
				<text x="402.1164021164021" y="148.14814814814815">11</text>
				<circle cx="476.1904761904762" cy="148.14814814814815" r="31.746031746031747"/>
				<text x="476.1904761904762" y="148.14814814814815">12</text>
				<circle cx="31.746031746031747" cy="222.22222222222223" r="31.746031746031747"/>
				<text x="31.746031746031747" y="222.22222222222223">13</text>
				<circle cx="105.82010582010582" cy="222.22222222222223" r="31.746031746031747"/>
				<text x="105.82010582010582" y="222.22222222222223">14</text>
				<circle cx="179.8941798941799" cy="222.22222222222223" r="31.746031746031747"/>
				<text x="179.8941798941799" y="222.22222222222223">15</text>
				<circle cx="253.96825396825398" cy="222.22222222222223" r="31.746031746031747"/>
				<text x="253.96825396825398" y="222.22222222222223">16</text>
				<circle cx="328.04232804232805" cy="222.22222222222223" r="31.746031746031747"/>
				<text x="328.04232804232805" y="222.22222222222223">17</text>
				<circle cx="402.1164021164021" cy="222.22222222222223" r="31.746031746031747"/>
				<text x="402.1164021164021" y="222.22222222222223">18</text>
				<circle cx="476.1904761904762" cy="222.22222222222223" r="31.746031746031747"/>
				<text x="476.1904761904762" y="222.22222222222223">19</text>
				<circle cx="31.746031746031747" cy="296.2962962962963" r="31.746031746031747"/>
				<text x="31.746031746031747" y="296.2962962962963">20</text>
				<circle cx="105.82010582010582" cy="296.2962962962963" r="31.746031746031747"/>
				<text x="105.82010582010582" y="296.2962962962963">21</text>
				<circle cx="179.8941798941799" cy="296.2962962962963" r="31.746031746031747"/>
				<text x="179.8941798941799" y="296.2962962962963">22</text>
				<circle cx="253.96825396825398" cy="296.2962962962963" r="31.746031746031747"/>
				<text x="253.96825396825398" y="296.2962962962963">23</text>
				<circle cx="328.04232804232805" cy="296.2962962962963" r="31.746031746031747"/>
				<text x="328.04232804232805" y="296.2962962962963">24</text>
				<circle cx="402.1164021164021" cy="296.2962962962963" r="31.746031746031747"/>
				<text x="402.1164021164021" y="296.2962962962963">25</text>
				<circle cx="476.1904761904762" cy="296.2962962962963" r="31.746031746031747"/>
				<text x="476.1904761904762" y="296.2962962962963">26</text>
				<circle cx="31.746031746031747" cy="370.3703703703704" r="31.746031746031747"/>
				<text x="31.746031746031747" y="370.3703703703704">27</text>
				<circle cx="105.82010582010582" cy="370.3703703703704" r="31.746031746031747"/>
				<text x="105.82010582010582" y="370.3703703703704">28</text>
				<circle cx="179.8941798941799" cy="370.3703703703704" r="31.746031746031747"/>
				<text x="179.8941798941799" y="370.3703703703704">29</text>
				<circle cx="253.96825396825398" cy="370.3703703703704" r="31.746031746031747"/>
				<text x="253.96825396825398" y="370.3703703703704">30</text>
				<circle cx="328.04232804232805" cy="370.3703703703704" r="31.746031746031747"/>
				<text x="328.04232804232805" y="370.3703703703704">31</text>
			</g>
		</g>
		<g id="June" transform="translate(1460.3174603174602, 713.4920634920635)">
			<text x="0" y="0" style="font-family:'Helvetica';font-size:95.23809523809524px;fill:rgb(102,102,102);" text-anchor="left" dominant-baseline="central">June</text>
			<g id="June_weekbar" transform="translate(0, 142.85714285714286)" style="font-family:'Helvetica';font-size:31.746031746031747px;fill:rgb(51,51,51);" text-anchor="middle" dominant-baseline="central">
				<text x="31.746031746031747" y="0">Su</text>
				<text x="105.82010582010582" y="0">Mo</text>
				<text x="179.8941798941799" y="0">Tu</text>
				<text x="253.96825396825398" y="0">We</text>
				<text x="328.04232804232805" y="0">Th</text>
				<text x="402.1164021164021" y="0">Fr</text>
				<text x="476.1904761904762" y="0">Sa</text>
			</g>
			<g id="June_days" transform="translate(0, 142.85714285714286)" text-anchor="middle" dominant-baseline="central" style="font-family:'Helvetica';font-size:31.746031746031747px;fill:rgb(51,51,51);" >
				<circle cx="402.1164021164021" cy="74.07407407407408" r="31.746031746031747"/>
				<text x="402.1164021164021" y="74.07407407407408">01</text>
				<circle cx="476.1904761904762" cy="74.07407407407408" r="31.746031746031747"/>
				<text x="476.1904761904762" y="74.07407407407408">02</text>
				<circle cx="31.746031746031747" cy="148.14814814814815" r="31.746031746031747"/>
				<text x="31.746031746031747" y="148.14814814814815">03</text>
				<circle cx="105.82010582010582" cy="148.14814814814815" r="31.746031746031747"/>
				<text x="105.82010582010582" y="148.14814814814815">04</text>
				<circle cx="179.8941798941799" cy="148.14814814814815" r="31.746031746031747"/>
				<text x="179.8941798941799" y="148.14814814814815">05</text>
				<circle cx="253.96825396825398" cy="148.14814814814815" r="31.746031746031747"/>
				<text x="253.96825396825398" y="148.14814814814815">06</text>
				<circle cx="328.04232804232805" cy="148.14814814814815" r="31.746031746031747"/>
				<text x="328.04232804232805" y="148.14814814814815">07</text>
				<circle cx="402.1164021164021" cy="148.14814814814815" r="31.746031746031747"/>
				<text x="402.1164021164021" y="148.14814814814815">08</text>
				<circle cx="476.1904761904762" cy="148.14814814814815" r="31.746031746031747"/>
				<text x="476.1904761904762" y="148.14814814814815">09</text>
				<circle cx="31.746031746031747" cy="222.22222222222223" r="31.746031746031747"/>
				<text x="31.746031746031747" y="222.22222222222223">10</text>
				<circle cx="105.82010582010582" cy="222.22222222222223" r="31.746031746031747"/>
				<text x="105.82010582010582" y="222.22222222222223">11</text>
				<circle cx="179.8941798941799" cy="222.22222222222223" r="31.746031746031747"/>
				<text x="179.8941798941799" y="222.22222222222223">12</text>
				<circle cx="253.96825396825398" cy="222.22222222222223" r="31.746031746031747"/>
				<text x="253.96825396825398" y="222.22222222222223">13</text>
				<circle cx="328.04232804232805" cy="222.22222222222223" r="31.746031746031747"/>
				<text x="328.04232804232805" y="222.22222222222223">14</text>
				<circle cx="402.1164021164021" cy="222.22222222222223" r="31.746031746031747"/>
				<text x="402.1164021164021" y="222.22222222222223">15</text>
				<circle cx="476.1904761904762" cy="222.22222222222223" r="31.746031746031747"/>
				<text x="476.1904761904762" y="222.22222222222223">16</text>
				<circle cx="31.746031746031747" cy="296.2962962962963" r="31.746031746031747"/>
				<text x="31.746031746031747" y="296.2962962962963">17</text>
				<circle cx="105.82010582010582" cy="296.2962962962963" r="31.746031746031747"/>
				<text x="105.82010582010582" y="296.2962962962963">18</text>
				<circle cx="179.8941798941799" cy="296.2962962962963" r="31.746031746031747"/>
				<text x="179.8941798941799" y="296.2962962962963">19</text>
				<circle cx="253.96825396825398" cy="296.2962962962963" r="31.746031746031747"/>
				<text x="253.96825396825398" y="296.2962962962963">20</text>
				<circle cx="328.04232804232805" cy="296.2962962962963" r="31.746031746031747"/>
				<text x="328.04232804232805" y="296.2962962962963">21</text>
				<circle cx="402.1164021164021" cy="296.2962962962963" r="31.746031746031747"/>
				<text x="402.1164021164021" y="296.2962962962963">22</text>
				<circle cx="476.1904761904762" cy="296.2962962962963" r="31.746031746031747"/>
				<text x="476.1904761904762" y="296.2962962962963">23</text>
				<circle cx="31.746031746031747" cy="370.3703703703704" r="31.746031746031747"/>
				<text x="31.746031746031747" y="370.3703703703704">24</text>
				<circle cx="105.82010582010582" cy="370.3703703703704" r="31.746031746031747"/>
				<text x="105.82010582010582" y="370.3703703703704">25</text>
				<circle cx="179.8941798941799" cy="370.3703703703704" r="31.746031746031747"/>
				<text x="179.8941798941799" y="370.3703703703704">26</text>
				<circle cx="253.96825396825398" cy="370.3703703703704" r="31.746031746031747"/>
				<text x="253.96825396825398" y="370.3703703703704">27</text>
				<circle cx="328.04232804232805" cy="370.3703703703704" r="31.746031746031747"/>
				<text x="328.04232804232805" y="370.3703703703704">28</text>
				<circle cx="402.1164021164021" cy="370.3703703703704" r="31.746031746031747"/>
				<text x="402.1164021164021" y="370.3703703703704">29</text>
				<circle cx="476.1904761904762" cy="370.3703703703704" r="31.746031746031747"/>
				<text x="476.1904761904762" y="370.3703703703704">30</text>
			</g>
		</g>
		<g id="July" transform="translate(0, 1426.984126984127)">
			<text x="0" y="0" style="font-family:'Helvetica';font-size:95.23809523809524px;fill:rgb(102,102,102);" text-anchor="left" dominant-baseline="central">July</text>
			<g id="July_weekbar" transform="translate(0, 142.85714285714286)" style="font-family:'Helvetica';font-size:31.746031746031747px;fill:rgb(51,51,51);" text-anchor="middle" dominant-baseline="central">
				<text x="31.746031746031747" y="0">Su</text>
				<text x="105.82010582010582" y="0">Mo</text>
				<text x="179.8941798941799" y="0">Tu</text>
				<text x="253.96825396825398" y="0">We</text>
				<text x="328.04232804232805" y="0">Th</text>
				<text x="402.1164021164021" y="0">Fr</text>
				<text x="476.1904761904762" y="0">Sa</text>
			</g>
			<g id="July_days" transform="translate(0, 142.85714285714286)" text-anchor="middle" dominant-baseline="central" style="font-family:'Helvetica';font-size:31.746031746031747px;fill:rgb(51,51,51);" >
				<circle cx="31.746031746031747" cy="74.07407407407408" r="31.746031746031747"/>
				<text x="31.746031746031747" y="74.07407407407408">01</text>
				<circle cx="105.82010582010582" cy="74.07407407407408" r="31.746031746031747"/>
				<text x="105.82010582010582" y="74.07407407407408">02</text>
				<circle cx="179.8941798941799" cy="74.07407407407408" r="31.746031746031747"/>
				<text x="179.8941798941799" y="74.07407407407408">03</text>
				<circle cx="253.96825396825398" cy="74.07407407407408" r="31.746031746031747"/>
				<text x="253.96825396825398" y="74.07407407407408">04</text>
				<circle cx="328.04232804232805" cy="74.07407407407408" r="31.746031746031747"/>
				<text x="328.04232804232805" y="74.07407407407408">05</text>
				<circle cx="402.1164021164021" cy="74.07407407407408" r="31.746031746031747"/>
				<text x="402.1164021164021" y="74.07407407407408">06</text>
				<circle cx="476.1904761904762" cy="74.07407407407408" r="31.746031746031747"/>
				<text x="476.1904761904762" y="74.07407407407408">07</text>
				<circle cx="31.746031746031747" cy="148.14814814814815" r="31.746031746031747"/>
				<text x="31.746031746031747" y="148.14814814814815">08</text>
				<circle cx="105.82010582010582" cy="148.14814814814815" r="31.746031746031747"/>
				<text x="105.82010582010582" y="148.14814814814815">09</text>
				<circle cx="179.8941798941799" cy="148.14814814814815" r="31.746031746031747"/>
				<text x="179.8941798941799" y="148.14814814814815">10</text>
				<circle cx="253.96825396825398" cy="148.14814814814815" r="31.746031746031747"/>
				<text x="253.96825396825398" y="148.14814814814815">11</text>
				<circle cx="328.04232804232805" cy="148.14814814814815" r="31.746031746031747"/>
				<text x="328.04232804232805" y="148.14814814814815">12</text>
				<circle cx="402.1164021164021" cy="148.14814814814815" r="31.746031746031747"/>
				<text x="402.1164021164021" y="148.14814814814815">13</text>
				<circle cx="476.1904761904762" cy="148.14814814814815" r="31.746031746031747"/>
				<text x="476.1904761904762" y="148.14814814814815">14</text>
				<circle cx="31.746031746031747" cy="222.22222222222223" r="31.746031746031747"/>
				<text x="31.746031746031747" y="222.22222222222223">15</text>
				<circle cx="105.82010582010582" cy="222.22222222222223" r="31.746031746031747"/>
				<text x="105.82010582010582" y="222.22222222222223">16</text>
				<circle cx="179.8941798941799" cy="222.22222222222223" r="31.746031746031747"/>
				<text x="179.8941798941799" y="222.22222222222223">17</text>
				<circle cx="253.96825396825398" cy="222.22222222222223" r="31.746031746031747"/>
				<text x="253.96825396825398" y="222.22222222222223">18</text>
				<circle cx="328.04232804232805" cy="222.22222222222223" r="31.746031746031747"/>
				<text x="328.04232804232805" y="222.22222222222223">19</text>
				<circle cx="402.1164021164021" cy="222.22222222222223" r="31.746031746031747"/>
				<text x="402.1164021164021" y="222.22222222222223">20</text>
				<circle cx="476.1904761904762" cy="222.22222222222223" r="31.746031746031747"/>
				<text x="476.1904761904762" y="222.22222222222223">21</text>
				<circle cx="31.746031746031747" cy="296.2962962962963" r="31.746031746031747"/>
				<text x="31.746031746031747" y="296.2962962962963">22</text>
				<circle cx="105.82010582010582" cy="296.2962962962963" r="31.746031746031747"/>
				<text x="105.82010582010582" y="296.2962962962963">23</text>
				<circle cx="179.8941798941799" cy="296.2962962962963" r="31.746031746031747"/>
				<text x="179.8941798941799" y="296.2962962962963">24</text>
				<circle cx="253.96825396825398" cy="296.2962962962963" r="31.746031746031747"/>
				<text x="253.96825396825398" y="296.2962962962963">25</text>
				<circle cx="328.04232804232805" cy="296.2962962962963" r="31.746031746031747"/>
				<text x="328.04232804232805" y="296.2962962962963">26</text>
				<circle cx="402.1164021164021" cy="296.2962962962963" r="31.746031746031747"/>
				<text x="402.1164021164021" y="296.2962962962963">27</text>
				<circle cx="476.1904761904762" cy="296.2962962962963" r="31.746031746031747"/>
				<text x="476.1904761904762" y="296.2962962962963">28</text>
				<circle cx="31.746031746031747" cy="370.3703703703704" r="31.746031746031747"/>
				<text x="31.746031746031747" y="370.3703703703704">29</text>
				<circle cx="105.82010582010582" cy="370.3703703703704" r="31.746031746031747"/>
				<text x="105.82010582010582" y="370.3703703703704">30</text>
				<circle cx="179.8941798941799" cy="370.3703703703704" r="31.746031746031747"/>
				<text x="179.8941798941799" y="370.3703703703704">31</text>
			</g>
		</g>
		<g id="August" transform="translate(730.1587301587301, 1426.984126984127)">
			<text x="0" y="0" style="font-family:'Helvetica';font-size:95.23809523809524px;fill:rgb(102,102,102);" text-anchor="left" dominant-baseline="central">August</text>
			<g id="August_weekbar" transform="translate(0, 142.85714285714286)" style="font-family:'Helvetica';font-size:31.746031746031747px;fill:rgb(51,51,51);" text-anchor="middle" dominant-baseline="central">
				<text x="31.746031746031747" y="0">Su</text>
				<text x="105.82010582010582" y="0">Mo</text>
				<text x="179.8941798941799" y="0">Tu</text>
				<text x="253.96825396825398" y="0">We</text>
				<text x="328.04232804232805" y="0">Th</text>
				<text x="402.1164021164021" y="0">Fr</text>
				<text x="476.1904761904762" y="0">Sa</text>
			</g>
			<g id="August_days" transform="translate(0, 142.85714285714286)" text-anchor="middle" dominant-baseline="central" style="font-family:'Helvetica';font-size:31.746031746031747px;fill:rgb(51,51,51);" >
				<circle cx="253.96825396825398" cy="74.07407407407408" r="31.746031746031747"/>
				<text x="253.96825396825398" y="74.07407407407408">01</text>
				<circle cx="328.04232804232805" cy="74.07407407407408" r="31.746031746031747"/>
				<text x="328.04232804232805" y="74.07407407407408">02</text>
				<circle cx="402.1164021164021" cy="74.07407407407408" r="31.746031746031747"/>
				<text x="402.1164021164021" y="74.07407407407408">03</text>
				<circle cx="476.1904761904762" cy="74.07407407407408" r="31.746031746031747"/>
				<text x="476.1904761904762" y="74.07407407407408">04</text>
				<circle cx="31.746031746031747" cy="148.14814814814815" r="31.746031746031747"/>
				<text x="31.746031746031747" y="148.14814814814815">05</text>
				<circle cx="105.82010582010582" cy="148.14814814814815" r="31.746031746031747"/>
				<text x="105.82010582010582" y="148.14814814814815">06</text>
				<circle cx="179.8941798941799" cy="148.14814814814815" r="31.746031746031747"/>
				<text x="179.8941798941799" y="148.14814814814815">07</text>
				<circle cx="253.96825396825398" cy="148.14814814814815" r="31.746031746031747"/>
				<text x="253.96825396825398" y="148.14814814814815">08</text>
				<circle cx="328.04232804232805" cy="148.14814814814815" r="31.746031746031747"/>
				<text x="328.04232804232805" y="148.14814814814815">09</text>
				<circle cx="402.1164021164021" cy="148.14814814814815" r="31.746031746031747"/>
				<text x="402.1164021164021" y="148.14814814814815">10</text>
				<circle cx="476.1904761904762" cy="148.14814814814815" r="31.746031746031747"/>
				<text x="476.1904761904762" y="148.14814814814815">11</text>
				<circle cx="31.746031746031747" cy="222.22222222222223" r="31.746031746031747"/>
				<text x="31.746031746031747" y="222.22222222222223">12</text>
				<circle cx="105.82010582010582" cy="222.22222222222223" r="31.746031746031747"/>
				<text x="105.82010582010582" y="222.22222222222223">13</text>
				<circle cx="179.8941798941799" cy="222.22222222222223" r="31.746031746031747"/>
				<text x="179.8941798941799" y="222.22222222222223">14</text>
				<circle cx="253.96825396825398" cy="222.22222222222223" r="31.746031746031747"/>
				<text x="253.96825396825398" y="222.22222222222223">15</text>
				<circle cx="328.04232804232805" cy="222.22222222222223" r="31.746031746031747"/>
				<text x="328.04232804232805" y="222.22222222222223">16</text>
				<circle cx="402.1164021164021" cy="222.22222222222223" r="31.746031746031747"/>
				<text x="402.1164021164021" y="222.22222222222223">17</text>
				<circle cx="476.1904761904762" cy="222.22222222222223" r="31.746031746031747"/>
				<text x="476.1904761904762" y="222.22222222222223">18</text>
				<circle cx="31.746031746031747" cy="296.2962962962963" r="31.746031746031747"/>
				<text x="31.746031746031747" y="296.2962962962963">19</text>
				<circle cx="105.82010582010582" cy="296.2962962962963" r="31.746031746031747"/>
				<text x="105.82010582010582" y="296.2962962962963">20</text>
				<circle cx="179.8941798941799" cy="296.2962962962963" r="31.746031746031747"/>
				<text x="179.8941798941799" y="296.2962962962963">21</text>
				<circle cx="253.96825396825398" cy="296.2962962962963" r="31.746031746031747"/>
				<text x="253.96825396825398" y="296.2962962962963">22</text>
				<circle cx="328.04232804232805" cy="296.2962962962963" r="31.746031746031747"/>
				<text x="328.04232804232805" y="296.2962962962963">23</text>
				<circle cx="402.1164021164021" cy="296.2962962962963" r="31.746031746031747"/>
				<text x="402.1164021164021" y="296.2962962962963">24</text>
				<circle cx="476.1904761904762" cy="296.2962962962963" r="31.746031746031747"/>
				<text x="476.1904761904762" y="296.2962962962963">25</text>
				<circle cx="31.746031746031747" cy="370.3703703703704" r="31.746031746031747"/>
				<text x="31.746031746031747" y="370.3703703703704">26</text>
				<circle cx="105.82010582010582" cy="370.3703703703704" r="31.746031746031747"/>
				<text x="105.82010582010582" y="370.3703703703704">27</text>
				<circle cx="179.8941798941799" cy="370.3703703703704" r="31.746031746031747"/>
				<text x="179.8941798941799" y="370.3703703703704">28</text>
				<circle cx="253.96825396825398" cy="370.3703703703704" r="31.746031746031747"/>
				<text x="253.96825396825398" y="370.3703703703704">29</text>
				<circle cx="328.04232804232805" cy="370.3703703703704" r="31.746031746031747"/>
				<text x="328.04232804232805" y="370.3703703703704">30</text>
				<circle cx="402.1164021164021" cy="370.3703703703704" r="31.746031746031747"/>
				<text x="402.1164021164021" y="370.3703703703704">31</text>
			</g>
		</g>
		<g id="September" transform="translate(1460.3174603174602, 1426.984126984127)">
			<text x="0" y="0" style="font-family:'Helvetica';font-size:95.23809523809524px;fill:rgb(102,102,102);" text-anchor="left" dominant-baseline="central">September</text>
			<g id="September_weekbar" transform="translate(0, 142.85714285714286)" style="font-family:'Helvetica';font-size:31.746031746031747px;fill:rgb(51,51,51);" text-anchor="middle" dominant-baseline="central">
				<text x="31.746031746031747" y="0">Su</text>
				<text x="105.82010582010582" y="0">Mo</text>
				<text x="179.8941798941799" y="0">Tu</text>
				<text x="253.96825396825398" y="0">We</text>
				<text x="328.04232804232805" y="0">Th</text>
				<text x="402.1164021164021" y="0">Fr</text>
				<text x="476.1904761904762" y="0">Sa</text>
			</g>
			<g id="September_days" transform="translate(0, 142.85714285714286)" text-anchor="middle" dominant-baseline="central" style="font-family:'Helvetica';font-size:31.746031746031747px;fill:rgb(51,51,51);" >
				<circle cx="476.1904761904762" cy="74.07407407407408" r="31.746031746031747"/>
				<text x="476.1904761904762" y="74.07407407407408">01</text>
				<circle cx="31.746031746031747" cy="148.14814814814815" r="31.746031746031747"/>
				<text x="31.746031746031747" y="148.14814814814815">02</text>
				<circle cx="105.82010582010582" cy="148.14814814814815" r="31.746031746031747"/>
				<text x="105.82010582010582" y="148.14814814814815">03</text>
				<circle cx="179.8941798941799" cy="148.14814814814815" r="31.746031746031747"/>
				<text x="179.8941798941799" y="148.14814814814815">04</text>
				<circle cx="253.96825396825398" cy="148.14814814814815" r="31.746031746031747"/>
				<text x="253.96825396825398" y="148.14814814814815">05</text>
				<circle cx="328.04232804232805" cy="148.14814814814815" r="31.746031746031747"/>
				<text x="328.04232804232805" y="148.14814814814815">06</text>
				<circle cx="402.1164021164021" cy="148.14814814814815" r="31.746031746031747"/>
				<text x="402.1164021164021" y="148.14814814814815">07</text>
				<circle cx="476.1904761904762" cy="148.14814814814815" r="31.746031746031747"/>
				<text x="476.1904761904762" y="148.14814814814815">08</text>
				<circle cx="31.746031746031747" cy="222.22222222222223" r="31.746031746031747"/>
				<text x="31.746031746031747" y="222.22222222222223">09</text>
				<circle cx="105.82010582010582" cy="222.22222222222223" r="31.746031746031747"/>
				<text x="105.82010582010582" y="222.22222222222223">10</text>
				<circle cx="179.8941798941799" cy="222.22222222222223" r="31.746031746031747"/>
				<text x="179.8941798941799" y="222.22222222222223">11</text>
				<circle cx="253.96825396825398" cy="222.22222222222223" r="31.746031746031747"/>
				<text x="253.96825396825398" y="222.22222222222223">12</text>
				<circle cx="328.04232804232805" cy="222.22222222222223" r="31.746031746031747"/>
				<text x="328.04232804232805" y="222.22222222222223">13</text>
				<circle cx="402.1164021164021" cy="222.22222222222223" r="31.746031746031747"/>
				<text x="402.1164021164021" y="222.22222222222223">14</text>
				<circle cx="476.1904761904762" cy="222.22222222222223" r="31.746031746031747"/>
				<text x="476.1904761904762" y="222.22222222222223">15</text>
				<circle cx="31.746031746031747" cy="296.2962962962963" r="31.746031746031747"/>
				<text x="31.746031746031747" y="296.2962962962963">16</text>
				<circle cx="105.82010582010582" cy="296.2962962962963" r="31.746031746031747"/>
				<text x="105.82010582010582" y="296.2962962962963">17</text>
				<circle cx="179.8941798941799" cy="296.2962962962963" r="31.746031746031747"/>
				<text x="179.8941798941799" y="296.2962962962963">18</text>
				<circle cx="253.96825396825398" cy="296.2962962962963" r="31.746031746031747"/>
				<text x="253.96825396825398" y="296.2962962962963">19</text>
				<circle cx="328.04232804232805" cy="296.2962962962963" r="31.746031746031747"/>
				<text x="328.04232804232805" y="296.2962962962963">20</text>
				<circle cx="402.1164021164021" cy="296.2962962962963" r="31.746031746031747"/>
				<text x="402.1164021164021" y="296.2962962962963">21</text>
				<circle cx="476.1904761904762" cy="296.2962962962963" r="31.746031746031747"/>
				<text x="476.1904761904762" y="296.2962962962963">22</text>
				<circle cx="31.746031746031747" cy="370.3703703703704" r="31.746031746031747"/>
				<text x="31.746031746031747" y="370.3703703703704">23</text>
				<circle cx="105.82010582010582" cy="370.3703703703704" r="31.746031746031747"/>
				<text x="105.82010582010582" y="370.3703703703704">24</text>
				<circle cx="179.8941798941799" cy="370.3703703703704" r="31.746031746031747"/>
				<text x="179.8941798941799" y="370.3703703703704">25</text>
				<circle cx="253.96825396825398" cy="370.3703703703704" r="31.746031746031747"/>
				<text x="253.96825396825398" y="370.3703703703704">26</text>
				<circle cx="328.04232804232805" cy="370.3703703703704" r="31.746031746031747"/>
				<text x="328.04232804232805" y="370.3703703703704">27</text>
				<circle cx="402.1164021164021" cy="370.3703703703704" r="31.746031746031747"/>
				<text x="402.1164021164021" y="370.3703703703704">28</text>
				<circle cx="476.1904761904762" cy="370.3703703703704" r="31.746031746031747"/>
				<text x="476.1904761904762" y="370.3703703703704">29</text>
				<circle cx="31.746031746031747" cy="444.44444444444446" r="31.746031746031747"/>
				<text x="31.746031746031747" y="444.44444444444446">30</text>
			</g>
		</g>
		<g id="October" transform="translate(0, 2140.4761904761904)">
			<text x="0" y="0" style="font-family:'Helvetica';font-size:95.23809523809524px;fill:rgb(102,102,102);" text-anchor="left" dominant-baseline="central">October</text>
			<g id="October_weekbar" transform="translate(0, 142.85714285714286)" style="font-family:'Helvetica';font-size:31.746031746031747px;fill:rgb(51,51,51);" text-anchor="middle" dominant-baseline="central">
				<text x="31.746031746031747" y="0">Su</text>
				<text x="105.82010582010582" y="0">Mo</text>
				<text x="179.8941798941799" y="0">Tu</text>
				<text x="253.96825396825398" y="0">We</text>
				<text x="328.04232804232805" y="0">Th</text>
				<text x="402.1164021164021" y="0">Fr</text>
				<text x="476.1904761904762" y="0">Sa</text>
			</g>
			<g id="October_days" transform="translate(0, 142.85714285714286)" text-anchor="middle" dominant-baseline="central" style="font-family:'Helvetica';font-size:31.746031746031747px;fill:rgb(51,51,51);" >
				<circle cx="105.82010582010582" cy="74.07407407407408" r="31.746031746031747"/>
				<text x="105.82010582010582" y="74.07407407407408">01</text>
				<circle cx="179.8941798941799" cy="74.07407407407408" r="31.746031746031747"/>
				<text x="179.8941798941799" y="74.07407407407408">02</text>
				<circle cx="253.96825396825398" cy="74.07407407407408" r="31.746031746031747"/>
				<text x="253.96825396825398" y="74.07407407407408">03</text>
				<circle cx="328.04232804232805" cy="74.07407407407408" r="31.746031746031747"/>
				<text x="328.04232804232805" y="74.07407407407408">04</text>
				<circle cx="402.1164021164021" cy="74.07407407407408" r="31.746031746031747"/>
				<text x="402.1164021164021" y="74.07407407407408">05</text>
				<circle cx="476.1904761904762" cy="74.07407407407408" r="31.746031746031747"/>
				<text x="476.1904761904762" y="74.07407407407408">06</text>
				<circle cx="31.746031746031747" cy="148.14814814814815" r="31.746031746031747"/>
				<text x="31.746031746031747" y="148.14814814814815">07</text>
				<circle cx="105.82010582010582" cy="148.14814814814815" r="31.746031746031747"/>
				<text x="105.82010582010582" y="148.14814814814815">08</text>
				<circle cx="179.8941798941799" cy="148.14814814814815" r="31.746031746031747"/>
				<text x="179.8941798941799" y="148.14814814814815">09</text>
				<circle cx="253.96825396825398" cy="148.14814814814815" r="31.746031746031747"/>
				<text x="253.96825396825398" y="148.14814814814815">10</text>
				<circle cx="328.04232804232805" cy="148.14814814814815" r="31.746031746031747"/>
				<text x="328.04232804232805" y="148.14814814814815">11</text>
				<circle cx="402.1164021164021" cy="148.14814814814815" r="31.746031746031747"/>
				<text x="402.1164021164021" y="148.14814814814815">12</text>
				<circle cx="476.1904761904762" cy="148.14814814814815" r="31.746031746031747"/>
				<text x="476.1904761904762" y="148.14814814814815">13</text>
				<circle cx="31.746031746031747" cy="222.22222222222223" r="31.746031746031747"/>
				<text x="31.746031746031747" y="222.22222222222223">14</text>
				<circle cx="105.82010582010582" cy="222.22222222222223" r="31.746031746031747"/>
				<text x="105.82010582010582" y="222.22222222222223">15</text>
				<circle cx="179.8941798941799" cy="222.22222222222223" r="31.746031746031747"/>
				<text x="179.8941798941799" y="222.22222222222223">16</text>
				<circle cx="253.96825396825398" cy="222.22222222222223" r="31.746031746031747"/>
				<text x="253.96825396825398" y="222.22222222222223">17</text>
				<circle cx="328.04232804232805" cy="222.22222222222223" r="31.746031746031747"/>
				<text x="328.04232804232805" y="222.22222222222223">18</text>
				<circle cx="402.1164021164021" cy="222.22222222222223" r="31.746031746031747"/>
				<text x="402.1164021164021" y="222.22222222222223">19</text>
				<circle cx="476.1904761904762" cy="222.22222222222223" r="31.746031746031747"/>
				<text x="476.1904761904762" y="222.22222222222223">20</text>
				<circle cx="31.746031746031747" cy="296.2962962962963" r="31.746031746031747"/>
				<text x="31.746031746031747" y="296.2962962962963">21</text>
				<circle cx="105.82010582010582" cy="296.2962962962963" r="31.746031746031747"/>
				<text x="105.82010582010582" y="296.2962962962963">22</text>
				<circle cx="179.8941798941799" cy="296.2962962962963" r="31.746031746031747"/>
				<text x="179.8941798941799" y="296.2962962962963">23</text>
				<circle cx="253.96825396825398" cy="296.2962962962963" r="31.746031746031747"/>
				<text x="253.96825396825398" y="296.2962962962963">24</text>
				<circle cx="328.04232804232805" cy="296.2962962962963" r="31.746031746031747"/>
				<text x="328.04232804232805" y="296.2962962962963">25</text>
				<circle cx="402.1164021164021" cy="296.2962962962963" r="31.746031746031747"/>
				<text x="402.1164021164021" y="296.2962962962963">26</text>
				<circle cx="476.1904761904762" cy="296.2962962962963" r="31.746031746031747"/>
				<text x="476.1904761904762" y="296.2962962962963">27</text>
				<circle cx="31.746031746031747" cy="370.3703703703704" r="31.746031746031747"/>
				<text x="31.746031746031747" y="370.3703703703704">28</text>
				<circle cx="105.82010582010582" cy="370.3703703703704" r="31.746031746031747"/>
				<text x="105.82010582010582" y="370.3703703703704">29</text>
				<circle cx="179.8941798941799" cy="370.3703703703704" r="31.746031746031747"/>
				<text x="179.8941798941799" y="370.3703703703704">30</text>
				<circle cx="253.96825396825398" cy="370.3703703703704" r="31.746031746031747"/>
				<text x="253.96825396825398" y="370.3703703703704">31</text>
			</g>
		</g>
		<g id="November" transform="translate(730.1587301587301, 2140.4761904761904)">
			<text x="0" y="0" style="font-family:'Helvetica';font-size:95.23809523809524px;fill:rgb(102,102,102);" text-anchor="left" dominant-baseline="central">November</text>
			<g id="November_weekbar" transform="translate(0, 142.85714285714286)" style="font-family:'Helvetica';font-size:31.746031746031747px;fill:rgb(51,51,51);" text-anchor="middle" dominant-baseline="central">
				<text x="31.746031746031747" y="0">Su</text>
				<text x="105.82010582010582" y="0">Mo</text>
				<text x="179.8941798941799" y="0">Tu</text>
				<text x="253.96825396825398" y="0">We</text>
				<text x="328.04232804232805" y="0">Th</text>
				<text x="402.1164021164021" y="0">Fr</text>
				<text x="476.1904761904762" y="0">Sa</text>
			</g>
			<g id="November_days" transform="translate(0, 142.85714285714286)" text-anchor="middle" dominant-baseline="central" style="font-family:'Helvetica';font-size:31.746031746031747px;fill:rgb(51,51,51);" >
				<circle cx="328.04232804232805" cy="74.07407407407408" r="31.746031746031747"/>
				<text x="328.04232804232805" y="74.07407407407408">01</text>
				<circle cx="402.1164021164021" cy="74.07407407407408" r="31.746031746031747"/>
				<text x="402.1164021164021" y="74.07407407407408">02</text>
				<circle cx="476.1904761904762" cy="74.07407407407408" r="31.746031746031747"/>
				<text x="476.1904761904762" y="74.07407407407408">03</text>
				<circle cx="31.746031746031747" cy="148.14814814814815" r="31.746031746031747"/>
				<text x="31.746031746031747" y="148.14814814814815">04</text>
				<circle cx="105.82010582010582" cy="148.14814814814815" r="31.746031746031747"/>
				<text x="105.82010582010582" y="148.14814814814815">05</text>
				<circle cx="179.8941798941799" cy="148.14814814814815" r="31.746031746031747"/>
				<text x="179.8941798941799" y="148.14814814814815">06</text>
				<circle cx="253.96825396825398" cy="148.14814814814815" r="31.746031746031747"/>
				<text x="253.96825396825398" y="148.14814814814815">07</text>
				<circle cx="328.04232804232805" cy="148.14814814814815" r="31.746031746031747"/>
				<text x="328.04232804232805" y="148.14814814814815">08</text>
				<circle cx="402.1164021164021" cy="148.14814814814815" r="31.746031746031747"/>
				<text x="402.1164021164021" y="148.14814814814815">09</text>
				<circle cx="476.1904761904762" cy="148.14814814814815" r="31.746031746031747"/>
				<text x="476.1904761904762" y="148.14814814814815">10</text>
				<circle cx="31.746031746031747" cy="222.22222222222223" r="31.746031746031747"/>
				<text x="31.746031746031747" y="222.22222222222223">11</text>
				<circle cx="105.82010582010582" cy="222.22222222222223" r="31.746031746031747"/>
				<text x="105.82010582010582" y="222.22222222222223">12</text>
				<circle cx="179.8941798941799" cy="222.22222222222223" r="31.746031746031747"/>
				<text x="179.8941798941799" y="222.22222222222223">13</text>
				<circle cx="253.96825396825398" cy="222.22222222222223" r="31.746031746031747"/>
				<text x="253.96825396825398" y="222.22222222222223">14</text>
				<circle cx="328.04232804232805" cy="222.22222222222223" r="31.746031746031747"/>
				<text x="328.04232804232805" y="222.22222222222223">15</text>
				<circle cx="402.1164021164021" cy="222.22222222222223" r="31.746031746031747"/>
				<text x="402.1164021164021" y="222.22222222222223">16</text>
				<circle cx="476.1904761904762" cy="222.22222222222223" r="31.746031746031747"/>
				<text x="476.1904761904762" y="222.22222222222223">17</text>
				<circle cx="31.746031746031747" cy="296.2962962962963" r="31.746031746031747"/>
				<text x="31.746031746031747" y="296.2962962962963">18</text>
				<circle cx="105.82010582010582" cy="296.2962962962963" r="31.746031746031747"/>
				<text x="105.82010582010582" y="296.2962962962963">19</text>
				<circle cx="179.8941798941799" cy="296.2962962962963" r="31.746031746031747"/>
				<text x="179.8941798941799" y="296.2962962962963">20</text>
				<circle cx="253.96825396825398" cy="296.2962962962963" r="31.746031746031747"/>
				<text x="253.96825396825398" y="296.2962962962963">21</text>
				<circle cx="328.04232804232805" cy="296.2962962962963" r="31.746031746031747"/>
				<text x="328.04232804232805" y="296.2962962962963">22</text>
				<circle cx="402.1164021164021" cy="296.2962962962963" r="31.746031746031747"/>
				<text x="402.1164021164021" y="296.2962962962963">23</text>
				<circle cx="476.1904761904762" cy="296.2962962962963" r="31.746031746031747"/>
				<text x="476.1904761904762" y="296.2962962962963">24</text>
				<circle cx="31.746031746031747" cy="370.3703703703704" r="31.746031746031747"/>
				<text x="31.746031746031747" y="370.3703703703704">25</text>
				<circle cx="105.82010582010582" cy="370.3703703703704" r="31.746031746031747"/>
				<text x="105.82010582010582" y="370.3703703703704">26</text>
				<circle cx="179.8941798941799" cy="370.3703703703704" r="31.746031746031747"/>
				<text x="179.8941798941799" y="370.3703703703704">27</text>
				<circle cx="253.96825396825398" cy="370.3703703703704" r="31.746031746031747"/>
				<text x="253.96825396825398" y="370.3703703703704">28</text>
				<circle cx="328.04232804232805" cy="370.3703703703704" r="31.746031746031747"/>
				<text x="328.04232804232805" y="370.3703703703704">29</text>
				<circle cx="402.1164021164021" cy="370.3703703703704" r="31.746031746031747"/>
				<text x="402.1164021164021" y="370.3703703703704">30</text>
			</g>
		</g>
		<g id="December" transform="translate(1460.3174603174602, 2140.4761904761904)">
			<text x="0" y="0" style="font-family:'Helvetica';font-size:95.23809523809524px;fill:rgb(102,102,102);" text-anchor="left" dominant-baseline="central">December</text>
			<g id="December_weekbar" transform="translate(0, 142.85714285714286)" style="font-family:'Helvetica';font-size:31.746031746031747px;fill:rgb(51,51,51);" text-anchor="middle" dominant-baseline="central">
				<text x="31.746031746031747" y="0">Su</text>
				<text x="105.82010582010582" y="0">Mo</text>
				<text x="179.8941798941799" y="0">Tu</text>
				<text x="253.96825396825398" y="0">We</text>
				<text x="328.04232804232805" y="0">Th</text>
				<text x="402.1164021164021" y="0">Fr</text>
				<text x="476.1904761904762" y="0">Sa</text>
			</g>
			<g id="December_days" transform="translate(0, 142.85714285714286)" text-anchor="middle" dominant-baseline="central" style="font-family:'Helvetica';font-size:31.746031746031747px;fill:rgb(51,51,51);" >
				<circle cx="476.1904761904762" cy="74.07407407407408" r="31.746031746031747"/>
				<text x="476.1904761904762" y="74.07407407407408">01</text>
				<circle cx="31.746031746031747" cy="148.14814814814815" r="31.746031746031747"/>
				<text x="31.746031746031747" y="148.14814814814815">02</text>
				<circle cx="105.82010582010582" cy="148.14814814814815" r="31.746031746031747"/>
				<text x="105.82010582010582" y="148.14814814814815">03</text>
				<circle cx="179.8941798941799" cy="148.14814814814815" r="31.746031746031747"/>
				<text x="179.8941798941799" y="148.14814814814815">04</text>
				<circle cx="253.96825396825398" cy="148.14814814814815" r="31.746031746031747"/>
				<text x="253.96825396825398" y="148.14814814814815">05</text>
				<circle cx="328.04232804232805" cy="148.14814814814815" r="31.746031746031747"/>
				<text x="328.04232804232805" y="148.14814814814815">06</text>
				<circle cx="402.1164021164021" cy="148.14814814814815" r="31.746031746031747"/>
				<text x="402.1164021164021" y="148.14814814814815">07</text>
				<circle cx="476.1904761904762" cy="148.14814814814815" r="31.746031746031747"/>
				<text x="476.1904761904762" y="148.14814814814815">08</text>
				<circle cx="31.746031746031747" cy="222.22222222222223" r="31.746031746031747"/>
				<text x="31.746031746031747" y="222.22222222222223">09</text>
				<circle cx="105.82010582010582" cy="222.22222222222223" r="31.746031746031747"/>
				<text x="105.82010582010582" y="222.22222222222223">10</text>
				<circle cx="179.8941798941799" cy="222.22222222222223" r="31.746031746031747"/>
				<text x="179.8941798941799" y="222.22222222222223">11</text>
				<circle cx="253.96825396825398" cy="222.22222222222223" r="31.746031746031747"/>
				<text x="253.96825396825398" y="222.22222222222223">12</text>
				<circle cx="328.04232804232805" cy="222.22222222222223" r="31.746031746031747"/>
				<text x="328.04232804232805" y="222.22222222222223">13</text>
				<circle cx="402.1164021164021" cy="222.22222222222223" r="31.746031746031747"/>
				<text x="402.1164021164021" y="222.22222222222223">14</text>
				<circle cx="476.1904761904762" cy="222.22222222222223" r="31.746031746031747"/>
				<text x="476.1904761904762" y="222.22222222222223">15</text>
				<circle cx="31.746031746031747" cy="296.2962962962963" r="31.746031746031747"/>
				<text x="31.746031746031747" y="296.2962962962963">16</text>
				<circle cx="105.82010582010582" cy="296.2962962962963" r="31.746031746031747"/>
				<text x="105.82010582010582" y="296.2962962962963">17</text>
				<circle cx="179.8941798941799" cy="296.2962962962963" r="31.746031746031747"/>
				<text x="179.8941798941799" y="296.2962962962963">18</text>
				<circle cx="253.96825396825398" cy="296.2962962962963" r="31.746031746031747"/>
				<text x="253.96825396825398" y="296.2962962962963">19</text>
				<circle cx="328.04232804232805" cy="296.2962962962963" r="31.746031746031747"/>
				<text x="328.04232804232805" y="296.2962962962963">20</text>
				<circle cx="402.1164021164021" cy="296.2962962962963" r="31.746031746031747"/>
				<text x="402.1164021164021" y="296.2962962962963">21</text>
				<circle cx="476.1904761904762" cy="296.2962962962963" r="31.746031746031747"/>
				<text x="476.1904761904762" y="296.2962962962963">22</text>
				<circle cx="31.746031746031747" cy="370.3703703703704" r="31.746031746031747"/>
				<text x="31.746031746031747" y="370.3703703703704">23</text>
				<circle cx="105.82010582010582" cy="370.3703703703704" r="31.746031746031747"/>
				<text x="105.82010582010582" y="370.3703703703704">24</text>
				<circle cx="179.8941798941799" cy="370.3703703703704" r="31.746031746031747"/>
				<text x="179.8941798941799" y="370.3703703703704">25</text>
				<circle cx="253.96825396825398" cy="370.3703703703704" r="31.746031746031747"/>
				<text x="253.96825396825398" y="370.3703703703704">26</text>
				<circle cx="328.04232804232805" cy="370.3703703703704" r="31.746031746031747"/>
				<text x="328.04232804232805" y="370.3703703703704">27</text>
				<circle cx="402.1164021164021" cy="370.3703703703704" r="31.746031746031747"/>
				<text x="402.1164021164021" y="370.3703703703704">28</text>
				<circle cx="476.1904761904762" cy="370.3703703703704" r="31.746031746031747"/>
				<text x="476.1904761904762" y="370.3703703703704">29</text>
				<circle cx="31.746031746031747" cy="-3407.4074074074074" r="31.746031746031747"/>
				<text x="31.746031746031747" y="-3407.4074074074074">30</text>
				<circle cx="105.82010582010582" cy="-3407.4074074074074" r="31.746031746031747"/>
				<text x="105.82010582010582" y="-3407.4074074074074">31</text>
			</g>
		</g>
	</g>
</svg>