<?xml version="1.0" encoding="UTF-8" standalone="no"?>
<!DOCTYPE svg PUBLIC "-//W3C//DTD SVG 1.1//EN" "http://www.w3.org/Graphics/SVG/1.1/DTD/svg11.dtd">
<svg width="100%" height="100%" viewBox="0 0 2550 3300" xmlns="http://www.w3.org/2000/svg">
	<g id="page_title" transform="translate(1275, 165)">
		<text x="0" y="0" style="font-family:'Helvetica';font-size:140.35087719298247px;fill:rgb(102,102,102);" text-anchor="middle" dominant-baseline="central">2018</text>
		</g>
<g id="calendar" width="2000" height="2600" transform="translate(275, 440)">
		<g id="January" transform="translate(0, 0)">
			<text x="0" y="0" style="font-family:'Helvetica';font-size:70.17543859649123px;fill:rgb(102,102,102);" text-anchor="left" dominant-baseline="central">January</text>
			<g id="January_weekbar" transform="translate(0, 105.26315789473685)" style="font-family:'Helvetica';font-size:35.08771929824562px;fill:rgb(51,51,51);" text-anchor="middle" dominant-baseline="central">
				<text x="35.08771929824562" y="0">Su</text>
				<text x="116.9590643274854" y="0">Mo</text>
				<text x="198.83040935672517" y="0">Tu</text>
				<text x="280.70175438596493" y="0">We</text>
				<text x="362.57309941520475" y="0">Th</text>
				<text x="444.44444444444446" y="0">Fr</text>
				<text x="526.3157894736843" y="0">Sa</text>
			</g>
			<g id="January_days" transform="translate(0, 105.26315789473685)" text-anchor="middle" dominant-baseline="central" style="font-family:'Helvetica';font-size:35.08771929824562px;fill:rgb(51,51,51);" >
				<circle cx="116.9590643274854" cy="81.87134502923978" r="35.08771929824562" style="fill:rgb(220,230,255);"/>
				<text x="116.9590643274854" y="81.87134502923978">01</text>
				<circle cx="198.83040935672517" cy="81.87134502923978" r="35.08771929824562" style="fill:rgb(220,230,255);"/>
				<text x="198.83040935672517" y="81.87134502923978">02</text>
				<circle cx="280.70175438596493" cy="81.87134502923978" r="35.08771929824562" style="fill:rgb(220,230,255);"/>
				<text x="280.70175438596493" y="81.87134502923978">03</text>
				<circle cx="362.57309941520475" cy="81.87134502923978" r="35.08771929824562" style="fill:rgb(220,230,255);"/>
				<text x="362.57309941520475" y="81.87134502923978">04</text>
				<circle cx="444.44444444444446" cy="81.87134502923978" r="35.08771929824562" style="fill:rgb(220,230,255);"/>
				<text x="444.44444444444446" y="81.87134502923978">05</text>
				<circle cx="526.3157894736843" cy="81.87134502923978" r="35.08771929824562" style="fill:rgb(220,230,255);"/>
				<text x="526.3157894736843" y="81.87134502923978">06</text>
				<circle cx="35.08771929824562" cy="163.74269005847955" r="35.08771929824562" style="fill:rgb(220,230,255);"/>
				<text x="35.08771929824562" y="163.74269005847955">07</text>
				<circle cx="116.9590643274854" cy="163.74269005847955" r="35.08771929824562" style="fill:rgb(220,230,255);"/>
				<text x="116.9590643274854" y="163.74269005847955">08</text>
				<circle cx="198.83040935672517" cy="163.74269005847955" r="35.08771929824562" style="fill:rgb(220,230,255);"/>
				<text x="198.83040935672517" y="163.74269005847955">09</text>
				<circle cx="280.70175438596493" cy="163.74269005847955" r="35.08771929824562" style="fill:rgb(220,230,255);"/>
				<text x="280.70175438596493" y="163.74269005847955">10</text>
				<circle cx="362.57309941520475" cy="163.74269005847955" r="35.08771929824562" style="fill:rgb(220,230,255);"/>
				<text x="362.57309941520475" y="163.74269005847955">11</text>
				<circle cx="444.44444444444446" cy="163.74269005847955" r="35.08771929824562" style="fill:rgb(220,230,255);"/>
				<text x="444.44444444444446" y="163.74269005847955">12</text>
				<circle cx="526.3157894736843" cy="163.74269005847955" r="35.08771929824562" style="fill:rgb(220,230,255);"/>
				<text x="526.3157894736843" y="163.74269005847955">13</text>
				<circle cx="35.08771929824562" cy="245.61403508771934" r="35.08771929824562" style="fill:rgb(220,230,255);"/>
				<text x="35.08771929824562" y="245.61403508771934">14</text>
				<circle cx="116.9590643274854" cy="245.61403508771934" r="35.08771929824562" style="fill:rgb(220,230,255);"/>
				<text x="116.9590643274854" y="245.61403508771934">15</text>
				<circle cx="198.83040935672517" cy="245.61403508771934" r="35.08771929824562" style="fill:rgb(220,230,255);"/>
				<text x="198.83040935672517" y="245.61403508771934">16</text>
				<circle cx="280.70175438596493" cy="245.61403508771934" r="35.08771929824562" style="fill:rgb(220,230,255);"/>
				<text x="280.70175438596493" y="245.61403508771934">17</text>
				<circle cx="362.57309941520475" cy="245.61403508771934" r="35.08771929824562" style="fill:rgb(220,230,255);"/>
				<text x="362.57309941520475" y="245.61403508771934">18</text>
				<circle cx="444.44444444444446" cy="245.61403508771934" r="35.08771929824562" style="fill:rgb(220,230,255);"/>
				<text x="444.44444444444446" y="245.61403508771934">19</text>
				<circle cx="526.3157894736843" cy="245.61403508771934" r="35.08771929824562" style="fill:rgb(220,230,255);"/>
				<text x="526.3157894736843" y="245.61403508771934">20</text>
				<circle cx="35.08771929824562" cy="327.4853801169591" r="35.08771929824562" style="fill:rgb(220,230,255);"/>
				<text x="35.08771929824562" y="327.4853801169591">21</text>
				<circle cx="116.9590643274854" cy="327.4853801169591" r="35.08771929824562" style="fill:rgb(220,230,255);"/>
				<text x="116.9590643274854" y="327.4853801169591">22</text>
				<circle cx="198.83040935672517" cy="327.4853801169591" r="35.08771929824562" style="fill:rgb(220,230,255);"/>
				<text x="198.83040935672517" y="327.4853801169591">23</text>
				<circle cx="280.70175438596493" cy="327.4853801169591" r="35.08771929824562" style="fill:rgb(220,230,255);"/>
				<text x="280.70175438596493" y="327.4853801169591">24</text>
				<circle cx="362.57309941520475" cy="327.4853801169591" r="35.08771929824562" style="fill:rgb(220,230,255);"/>
				<text x="362.57309941520475" y="327.4853801169591">25</text>
				<circle cx="444.44444444444446" cy="327.4853801169591" r="35.08771929824562" style="fill:rgb(220,230,255);"/>
				<text x="444.44444444444446" y="327.4853801169591">26</text>
				<circle cx="526.3157894736843" cy="327.4853801169591" r="35.08771929824562" style="fill:rgb(220,230,255);"/>
				<text x="526.3157894736843" y="327.4853801169591">27</text>
				<circle cx="35.08771929824562" cy="409.35672514619887" r="35.08771929824562" style="fill:rgb(220,230,255);"/>
				<text x="35.08771929824562" y="409.35672514619887">28</text>
				<circle cx="116.9590643274854" cy="409.35672514619887" r="35.08771929824562" style="fill:rgb(220,230,255);"/>
				<text x="116.9590643274854" y="409.35672514619887">29</text>
				<circle cx="198.83040935672517" cy="409.35672514619887" r="35.08771929824562" style="fill:rgb(220,230,255);"/>
				<text x="198.83040935672517" y="409.35672514619887">30</text>
				<circle cx="280.70175438596493" cy="409.35672514619887" r="35.08771929824562" style="fill:rgb(220,230,255);"/>
				<text x="280.70175438596493" y="409.35672514619887">31</text>
			</g>
		</g>
		<g id="February" transform="translate(736.8421052631579, 0)">
			<text x="0" y="0" style="font-family:'Helvetica';font-size:70.17543859649123px;fill:rgb(102,102,102);" text-anchor="left" dominant-baseline="central">February</text>
			<g id="February_weekbar" transform="translate(0, 105.26315789473685)" style="font-family:'Helvetica';font-size:35.08771929824562px;fill:rgb(51,51,51);" text-anchor="middle" dominant-baseline="central">
				<text x="35.08771929824562" y="0">Su</text>
				<text x="116.9590643274854" y="0">Mo</text>
				<text x="198.83040935672517" y="0">Tu</text>
				<text x="280.70175438596493" y="0">We</text>
				<text x="362.57309941520475" y="0">Th</text>
				<text x="444.44444444444446" y="0">Fr</text>
				<text x="526.3157894736843" y="0">Sa</text>
			</g>
			<g id="February_days" transform="translate(0, 105.26315789473685)" text-anchor="middle" dominant-baseline="central" style="font-family:'Helvetica';font-size:35.08771929824562px;fill:rgb(51,51,51);" >
				<circle cx="362.57309941520475" cy="81.87134502923978" r="35.08771929824562" style="fill:rgb(220,230,255);"/>
				<text x="362.57309941520475" y="81.87134502923978">01</text>
				<circle cx="444.44444444444446" cy="81.87134502923978" r="35.08771929824562" style="fill:rgb(220,230,255);"/>
				<text x="444.44444444444446" y="81.87134502923978">02</text>
				<circle cx="526.3157894736843" cy="81.87134502923978" r="35.08771929824562" style="fill:rgb(220,230,255);"/>
				<text x="526.3157894736843" y="81.87134502923978">03</text>
				<circle cx="35.08771929824562" cy="163.74269005847955" r="35.08771929824562" style="fill:rgb(220,230,255);"/>
				<text x="35.08771929824562" y="163.74269005847955">04</text>
				<circle cx="116.9590643274854" cy="163.74269005847955" r="35.08771929824562" style="fill:rgb(220,230,255);"/>
				<text x="116.9590643274854" y="163.74269005847955">05</text>
				<circle cx="198.83040935672517" cy="163.74269005847955" r="35.08771929824562" style="fill:rgb(220,230,255);"/>
				<text x="198.83040935672517" y="163.74269005847955">06</text>
				<circle cx="280.70175438596493" cy="163.74269005847955" r="35.08771929824562" style="fill:rgb(220,230,255);"/>
				<text x="280.70175438596493" y="163.74269005847955">07</text>
				<circle cx="362.57309941520475" cy="163.74269005847955" r="35.08771929824562" style="fill:rgb(220,230,255);"/>
				<text x="362.57309941520475" y="163.74269005847955">08</text>
				<circle cx="444.44444444444446" cy="163.74269005847955" r="35.08771929824562" style="fill:rgb(220,230,255);"/>
				<text x="444.44444444444446" y="163.74269005847955">09</text>
				<circle cx="526.3157894736843" cy="163.74269005847955" r="35.08771929824562" style="fill:rgb(220,230,255);"/>
				<text x="526.3157894736843" y="163.74269005847955">10</text>
				<circle cx="35.08771929824562" cy="245.61403508771934" r="35.08771929824562" style="fill:rgb(220,230,255);"/>
				<text x="35.08771929824562" y="245.61403508771934">11</text>
				<circle cx="116.9590643274854" cy="245.61403508771934" r="35.08771929824562" style="fill:rgb(220,230,255);"/>
				<text x="116.9590643274854" y="245.61403508771934">12</text>
				<circle cx="198.83040935672517" cy="245.61403508771934" r="35.08771929824562" style="fill:rgb(220,230,255);"/>
				<text x="198.83040935672517" y="245.61403508771934">13</text>
				<circle cx="280.70175438596493" cy="245.61403508771934" r="35.08771929824562" style="fill:rgb(220,230,255);"/>
				<text x="280.70175438596493" y="245.61403508771934">14</text>
				<circle cx="362.57309941520475" cy="245.61403508771934" r="35.08771929824562" style="fill:rgb(220,230,255);"/>
				<text x="362.57309941520475" y="245.61403508771934">15</text>
				<circle cx="444.44444444444446" cy="245.61403508771934" r="35.08771929824562" style="fill:rgb(220,230,255);"/>
				<text x="444.44444444444446" y="245.61403508771934">16</text>
				<circle cx="526.3157894736843" cy="245.61403508771934" r="35.08771929824562" style="fill:rgb(220,230,255);"/>
				<text x="526.3157894736843" y="245.61403508771934">17</text>
				<circle cx="35.08771929824562" cy="327.4853801169591" r="35.08771929824562" style="fill:rgb(220,230,255);"/>
				<text x="35.08771929824562" y="327.4853801169591">18</text>
				<circle cx="116.9590643274854" cy="327.4853801169591" r="35.08771929824562" style="fill:rgb(220,230,255);"/>
				<text x="116.9590643274854" y="327.4853801169591">19</text>
				<circle cx="198.83040935672517" cy="327.4853801169591" r="35.08771929824562" style="fill:rgb(220,230,255);"/>
				<text x="198.83040935672517" y="327.4853801169591">20</text>
				<circle cx="280.70175438596493" cy="327.4853801169591" r="35.08771929824562" style="fill:rgb(220,230,255);"/>
				<text x="280.70175438596493" y="327.4853801169591">21</text>
				<circle cx="362.57309941520475" cy="327.4853801169591" r="35.08771929824562" style="fill:rgb(220,230,255);"/>
				<text x="362.57309941520475" y="327.4853801169591">22</text>
				<circle cx="444.44444444444446" cy="327.4853801169591" r="35.08771929824562" style="fill:rgb(220,230,255);"/>
				<text x="444.44444444444446" y="327.4853801169591">23</text>
				<circle cx="526.3157894736843" cy="327.4853801169591" r="35.08771929824562" style="fill:rgb(220,230,255);"/>
				<text x="526.3157894736843" y="327.4853801169591">24</text>
				<circle cx="35.08771929824562" cy="409.35672514619887" r="35.08771929824562" style="fill:rgb(220,230,255);"/>
				<text x="35.08771929824562" y="409.35672514619887">25</text>
				<circle cx="116.9590643274854" cy="409.35672514619887" r="35.08771929824562" style="fill:rgb(220,230,255);"/>
				<text x="116.9590643274854" y="409.35672514619887">26</text>
				<circle cx="198.83040935672517" cy="409.35672514619887" r="35.08771929824562" style="fill:rgb(220,230,255);"/>
				<text x="198.83040935672517" y="409.35672514619887">27</text>
				<circle cx="280.70175438596493" cy="409.35672514619887" r="35.08771929824562" style="fill:rgb(220,230,255);"/>
				<text x="280.70175438596493" y="409.35672514619887">28</text>
			</g>
		</g>
		<g id="March" transform="translate(1473.6842105263158, 0)">
			<text x="0" y="0" style="font-family:'Helvetica';font-size:70.17543859649123px;fill:rgb(102,102,102);" text-anchor="left" dominant-baseline="central">March</text>
			<g id="March_weekbar" transform="translate(0, 105.26315789473685)" style="font-family:'Helvetica';font-size:35.08771929824562px;fill:rgb(51,51,51);" text-anchor="middle" dominant-baseline="central">
				<text x="35.08771929824562" y="0">Su</text>
				<text x="116.9590643274854" y="0">Mo</text>
				<text x="198.83040935672517" y="0">Tu</text>
				<text x="280.70175438596493" y="0">We</text>
				<text x="362.57309941520475" y="0">Th</text>
				<text x="444.44444444444446" y="0">Fr</text>
				<text x="526.3157894736843" y="0">Sa</text>
			</g>
			<g id="March_days" transform="translate(0, 105.26315789473685)" text-anchor="middle" dominant-baseline="central" style="font-family:'Helvetica';font-size:35.08771929824562px;fill:rgb(51,51,51);" >
				<circle cx="362.57309941520475" cy="81.87134502923978" r="35.08771929824562" style="fill:rgb(220,230,255);"/>
				<text x="362.57309941520475" y="81.87134502923978">01</text>
				<circle cx="444.44444444444446" cy="81.87134502923978" r="35.08771929824562" style="fill:rgb(220,230,255);"/>
				<text x="444.44444444444446" y="81.87134502923978">02</text>
				<circle cx="526.3157894736843" cy="81.87134502923978" r="35.08771929824562" style="fill:rgb(220,230,255);"/>
				<text x="526.3157894736843" y="81.87134502923978">03</text>
				<circle cx="35.08771929824562" cy="163.74269005847955" r="35.08771929824562" style="fill:rgb(220,230,255);"/>
				<text x="35.08771929824562" y="163.74269005847955">04</text>
				<circle cx="116.9590643274854" cy="163.74269005847955" r="35.08771929824562" style="fill:rgb(220,230,255);"/>
				<text x="116.9590643274854" y="163.74269005847955">05</text>
				<circle cx="198.83040935672517" cy="163.74269005847955" r="35.08771929824562" style="fill:rgb(220,230,255);"/>
				<text x="198.83040935672517" y="163.74269005847955">06</text>
				<circle cx="280.70175438596493" cy="163.74269005847955" r="35.08771929824562" style="fill:rgb(220,230,255);"/>
				<text x="280.70175438596493" y="163.74269005847955">07</text>
				<circle cx="362.57309941520475" cy="163.74269005847955" r="35.08771929824562" style="fill:rgb(220,230,255);"/>
				<text x="362.57309941520475" y="163.74269005847955">08</text>
				<circle cx="444.44444444444446" cy="163.74269005847955" r="35.08771929824562" style="fill:rgb(220,230,255);"/>
				<text x="444.44444444444446" y="163.74269005847955">09</text>
				<circle cx="526.3157894736843" cy="163.74269005847955" r="35.08771929824562" style="fill:rgb(220,230,255);"/>
				<text x="526.3157894736843" y="163.74269005847955">10</text>
				<circle cx="35.08771929824562" cy="245.61403508771934" r="35.08771929824562" style="fill:rgb(220,230,255);"/>
				<text x="35.08771929824562" y="245.61403508771934">11</text>
				<circle cx="116.9590643274854" cy="245.61403508771934" r="35.08771929824562" style="fill:rgb(220,230,255);"/>
				<text x="116.9590643274854" y="245.61403508771934">12</text>
				<circle cx="198.83040935672517" cy="245.61403508771934" r="35.08771929824562" style="fill:rgb(220,230,255);"/>
				<text x="198.83040935672517" y="245.61403508771934">13</text>
				<circle cx="280.70175438596493" cy="245.61403508771934" r="35.08771929824562" style="fill:rgb(220,230,255);"/>
				<text x="280.70175438596493" y="245.61403508771934">14</text>
				<circle cx="362.57309941520475" cy="245.61403508771934" r="35.08771929824562" style="fill:rgb(220,230,255);"/>
				<text x="362.57309941520475" y="245.61403508771934">15</text>
				<circle cx="444.44444444444446" cy="245.61403508771934" r="35.08771929824562" style="fill:rgb(220,230,255);"/>
				<text x="444.44444444444446" y="245.61403508771934">16</text>
				<circle cx="526.3157894736843" cy="245.61403508771934" r="35.08771929824562" style="fill:rgb(220,230,255);"/>
				<text x="526.3157894736843" y="245.61403508771934">17</text>
				<circle cx="35.08771929824562" cy="327.4853801169591" r="35.08771929824562" style="fill:rgb(220,230,255);"/>
				<text x="35.08771929824562" y="327.4853801169591">18</text>
				<circle cx="116.9590643274854" cy="327.4853801169591" r="35.08771929824562" style="fill:rgb(220,230,255);"/>
				<text x="116.9590643274854" y="327.4853801169591">19</text>
				<circle cx="198.83040935672517" cy="327.4853801169591" r="35.08771929824562" style="fill:rgb(220,230,255);"/>
				<text x="198.83040935672517" y="327.4853801169591">20</text>
				<circle cx="280.70175438596493" cy="327.4853801169591" r="35.08771929824562" style="fill:rgb(220,230,255);"/>
				<text x="280.70175438596493" y="327.4853801169591">21</text>
				<circle cx="362.57309941520475" cy="327.4853801169591" r="35.08771929824562" style="fill:rgb(220,230,255);"/>
				<text x="362.57309941520475" y="327.4853801169591">22</text>
				<circle cx="444.44444444444446" cy="327.4853801169591" r="35.08771929824562" style="fill:rgb(220,230,255);"/>
				<text x="444.44444444444446" y="327.4853801169591">23</text>
				<circle cx="526.3157894736843" cy="327.4853801169591" r="35.08771929824562" style="fill:rgb(220,230,255);"/>
				<text x="526.3157894736843" y="327.4853801169591">24</text>
				<circle cx="35.08771929824562" cy="409.35672514619887" r="35.08771929824562" style="fill:rgb(220,230,255);"/>
				<text x="35.08771929824562" y="409.35672514619887">25</text>
				<circle cx="116.9590643274854" cy="409.35672514619887" r="35.08771929824562" style="fill:rgb(220,230,255);"/>
				<text x="116.9590643274854" y="409.35672514619887">26</text>
				<circle cx="198.83040935672517" cy="409.35672514619887" r="35.08771929824562" style="fill:rgb(220,230,255);"/>
				<text x="198.83040935672517" y="409.35672514619887">27</text>
				<circle cx="280.70175438596493" cy="409.35672514619887" r="35.08771929824562" style="fill:rgb(220,230,255);"/>
				<text x="280.70175438596493" y="409.35672514619887">28</text>
				<circle cx="362.57309941520475" cy="409.35672514619887" r="35.08771929824562" style="fill:rgb(220,230,255);"/>
				<text x="362.57309941520475" y="409.35672514619887">29</text>
				<circle cx="444.44444444444446" cy="409.35672514619887" r="35.08771929824562" style="fill:rgb(220,230,255);"/>
				<text x="444.44444444444446" y="409.35672514619887">30</text>
				<circle cx="526.3157894736843" cy="409.35672514619887" r="35.08771929824562" style="fill:rgb(220,230,255);"/>
				<text x="526.3157894736843" y="409.35672514619887">31</text>
			</g>
		</g>
		<g id="April" transform="translate(0, 720.1754385964912)">
			<text x="0" y="0" style="font-family:'Helvetica';font-size:70.17543859649123px;fill:rgb(102,102,102);" text-anchor="left" dominant-baseline="central">April</text>
			<g id="April_weekbar" transform="translate(0, 105.26315789473685)" style="font-family:'Helvetica';font-size:35.08771929824562px;fill:rgb(51,51,51);" text-anchor="middle" dominant-baseline="central">
				<text x="35.08771929824562" y="0">Su</text>
				<text x="116.9590643274854" y="0">Mo</text>
				<text x="198.83040935672517" y="0">Tu</text>
				<text x="280.70175438596493" y="0">We</text>
				<text x="362.57309941520475" y="0">Th</text>
				<text x="444.44444444444446" y="0">Fr</text>
				<text x="526.3157894736843" y="0">Sa</text>
			</g>
			<g id="April_days" transform="translate(0, 105.26315789473685)" text-anchor="middle" dominant-baseline="central" style="font-family:'Helvetica';font-size:35.08771929824562px;fill:rgb(51,51,51);" >
				<circle cx="35.08771929824562" cy="81.87134502923978" r="35.08771929824562" style="fill:rgb(220,230,255);"/>
				<text x="35.08771929824562" y="81.87134502923978">01</text>
				<circle cx="116.9590643274854" cy="81.87134502923978" r="35.08771929824562" style="fill:rgb(220,230,255);"/>
				<text x="116.9590643274854" y="81.87134502923978">02</text>
				<circle cx="198.83040935672517" cy="81.87134502923978" r="35.08771929824562" style="fill:rgb(220,230,255);"/>
				<text x="198.83040935672517" y="81.87134502923978">03</text>
				<circle cx="280.70175438596493" cy="81.87134502923978" r="35.08771929824562" style="fill:rgb(220,230,255);"/>
				<text x="280.70175438596493" y="81.87134502923978">04</text>
				<circle cx="362.57309941520475" cy="81.87134502923978" r="35.08771929824562" style="fill:rgb(220,230,255);"/>
				<text x="362.57309941520475" y="81.87134502923978">05</text>
				<circle cx="444.44444444444446" cy="81.87134502923978" r="35.08771929824562" style="fill:rgb(220,230,255);"/>
				<text x="444.44444444444446" y="81.87134502923978">06</text>
				<circle cx="526.3157894736843" cy="81.87134502923978" r="35.08771929824562" style="fill:rgb(220,230,255);"/>
				<text x="526.3157894736843" y="81.87134502923978">07</text>
				<circle cx="35.08771929824562" cy="163.74269005847955" r="35.08771929824562" style="fill:rgb(220,230,255);"/>
				<text x="35.08771929824562" y="163.74269005847955">08</text>
				<circle cx="116.9590643274854" cy="163.74269005847955" r="35.08771929824562" style="fill:rgb(220,230,255);"/>
				<text x="116.9590643274854" y="163.74269005847955">09</text>
				<circle cx="198.83040935672517" cy="163.74269005847955" r="35.08771929824562" style="fill:rgb(220,230,255);"/>
				<text x="198.83040935672517" y="163.74269005847955">10</text>
				<circle cx="280.70175438596493" cy="163.74269005847955" r="35.08771929824562" style="fill:rgb(220,230,255);"/>
				<text x="280.70175438596493" y="163.74269005847955">11</text>
				<circle cx="362.57309941520475" cy="163.74269005847955" r="35.08771929824562" style="fill:rgb(220,230,255);"/>
				<text x="362.57309941520475" y="163.74269005847955">12</text>
				<circle cx="444.44444444444446" cy="163.74269005847955" r="35.08771929824562" style="fill:rgb(220,230,255);"/>
				<text x="444.44444444444446" y="163.74269005847955">13</text>
				<circle cx="526.3157894736843" cy="163.74269005847955" r="35.08771929824562" style="fill:rgb(220,230,255);"/>
				<text x="526.3157894736843" y="163.74269005847955">14</text>
				<circle cx="35.08771929824562" cy="245.61403508771934" r="35.08771929824562" style="fill:rgb(220,230,255);"/>
				<text x="35.08771929824562" y="245.61403508771934">15</text>
				<circle cx="116.9590643274854" cy="245.61403508771934" r="35.08771929824562" style="fill:rgb(220,230,255);"/>
				<text x="116.9590643274854" y="245.61403508771934">16</text>
				<circle cx="198.83040935672517" cy="245.61403508771934" r="35.08771929824562" style="fill:rgb(220,230,255);"/>
				<text x="198.83040935672517" y="245.61403508771934">17</text>
				<circle cx="280.70175438596493" cy="245.61403508771934" r="35.08771929824562" style="fill:rgb(220,230,255);"/>
				<text x="280.70175438596493" y="245.61403508771934">18</text>
				<circle cx="362.57309941520475" cy="245.61403508771934" r="35.08771929824562" style="fill:rgb(220,230,255);"/>
				<text x="362.57309941520475" y="245.61403508771934">19</text>
				<circle cx="444.44444444444446" cy="245.61403508771934" r="35.08771929824562" style="fill:rgb(220,230,255);"/>
				<text x="444.44444444444446" y="245.61403508771934">20</text>
				<circle cx="526.3157894736843" cy="245.61403508771934" r="35.08771929824562" style="fill:rgb(220,230,255);"/>
				<text x="526.3157894736843" y="245.61403508771934">21</text>
				<circle cx="35.08771929824562" cy="327.4853801169591" r="35.08771929824562" style="fill:rgb(220,230,255);"/>
				<text x="35.08771929824562" y="327.4853801169591">22</text>
				<circle cx="116.9590643274854" cy="327.4853801169591" r="35.08771929824562" style="fill:rgb(220,230,255);"/>
				<text x="116.9590643274854" y="327.4853801169591">23</text>
				<circle cx="198.83040935672517" cy="327.4853801169591" r="35.08771929824562" style="fill:rgb(220,230,255);"/>
				<text x="198.83040935672517" y="327.4853801169591">24</text>
				<circle cx="280.70175438596493" cy="327.4853801169591" r="35.08771929824562" style="fill:rgb(220,230,255);"/>
				<text x="280.70175438596493" y="327.4853801169591">25</text>
				<circle cx="362.57309941520475" cy="327.4853801169591" r="35.08771929824562" style="fill:rgb(220,230,255);"/>
				<text x="362.57309941520475" y="327.4853801169591">26</text>
				<circle cx="444.44444444444446" cy="327.4853801169591" r="35.08771929824562" style="fill:rgb(220,230,255);"/>
				<text x="444.44444444444446" y="327.4853801169591">27</text>
				<circle cx="526.3157894736843" cy="327.4853801169591" r="35.08771929824562" style="fill:rgb(220,230,255);"/>
				<text x="526.3157894736843" y="327.4853801169591">28</text>
				<circle cx="35.08771929824562" cy="409.35672514619887" r="35.08771929824562" style="fill:rgb(220,230,255);"/>
				<text x="35.08771929824562" y="409.35672514619887">29</text>
				<circle cx="116.9590643274854" cy="409.35672514619887" r="35.08771929824562" style="fill:rgb(220,230,255);"/>
				<text x="116.9590643274854" y="409.35672514619887">30</text>
			</g>
		</g>
		<g id="May" transform="translate(736.8421052631579, 720.1754385964912)">
			<text x="0" y="0" style="font-family:'Helvetica';font-size:70.17543859649123px;fill:rgb(102,102,102);" text-anchor="left" dominant-baseline="central">May</text>
			<g id="May_weekbar" transform="translate(0, 105.26315789473685)" style="font-family:'Helvetica';font-size:35.08771929824562px;fill:rgb(51,51,51);" text-anchor="middle" dominant-baseline="central">
				<text x="35.08771929824562" y="0">Su</text>
				<text x="116.9590643274854" y="0">Mo</text>
				<text x="198.83040935672517" y="0">Tu</text>
				<text x="280.70175438596493" y="0">We</text>
				<text x="362.57309941520475" y="0">Th</text>
				<text x="444.44444444444446" y="0">Fr</text>
				<text x="526.3157894736843" y="0">Sa</text>
			</g>
			<g id="May_days" transform="translate(0, 105.26315789473685)" text-anchor="middle" dominant-baseline="central" style="font-family:'Helvetica';font-size:35.08771929824562px;fill:rgb(51,51,51);" >
				<circle cx="198.83040935672517" cy="81.87134502923978" r="35.08771929824562" style="fill:rgb(220,230,255);"/>
				<text x="198.83040935672517" y="81.87134502923978">01</text>
				<circle cx="280.70175438596493" cy="81.87134502923978" r="35.08771929824562" style="fill:rgb(220,230,255);"/>
				<text x="280.70175438596493" y="81.87134502923978">02</text>
				<circle cx="362.57309941520475" cy="81.87134502923978" r="35.08771929824562" style="fill:rgb(220,230,255);"/>
				<text x="362.57309941520475" y="81.87134502923978">03</text>
				<circle cx="444.44444444444446" cy="81.87134502923978" r="35.08771929824562" style="fill:rgb(220,230,255);"/>
				<text x="444.44444444444446" y="81.87134502923978">04</text>
				<circle cx="526.3157894736843" cy="81.87134502923978" r="35.08771929824562" style="fill:rgb(220,230,255);"/>
				<text x="526.3157894736843" y="81.87134502923978">05</text>
				<circle cx="35.08771929824562" cy="163.74269005847955" r="35.08771929824562" style="fill:rgb(220,230,255);"/>
				<text x="35.08771929824562" y="163.74269005847955">06</text>
				<circle cx="116.9590643274854" cy="163.74269005847955" r="35.08771929824562" style="fill:rgb(220,230,255);"/>
				<text x="116.9590643274854" y="163.74269005847955">07</text>
				<circle cx="198.83040935672517" cy="163.74269005847955" r="35.08771929824562" style="fill:rgb(220,230,255);"/>
				<text x="198.83040935672517" y="163.74269005847955">08</text>
				<circle cx="280.70175438596493" cy="163.74269005847955" r="35.08771929824562" style="fill:rgb(220,230,255);"/>
				<text x="280.70175438596493" y="163.74269005847955">09</text>
				<circle cx="362.57309941520475" cy="163.74269005847955" r="35.08771929824562" style="fill:rgb(220,230,255);"/>
				<text x="362.57309941520475" y="163.74269005847955">10</text>
				<circle cx="444.44444444444446" cy="163.74269005847955" r="35.08771929824562" style="fill:rgb(220,230,255);"/>
				<text x="444.44444444444446" y="163.74269005847955">11</text>
				<circle cx="526.3157894736843" cy="163.74269005847955" r="35.08771929824562" style="fill:rgb(220,230,255);"/>
				<text x="526.3157894736843" y="163.74269005847955">12</text>
				<circle cx="35.08771929824562" cy="245.61403508771934" r="35.08771929824562" style="fill:rgb(220,230,255);"/>
				<text x="35.08771929824562" y="245.61403508771934">13</text>
				<circle cx="116.9590643274854" cy="245.61403508771934" r="35.08771929824562" style="fill:rgb(220,230,255);"/>
				<text x="116.9590643274854" y="245.61403508771934">14</text>
				<circle cx="198.83040935672517" cy="245.61403508771934" r="35.08771929824562" style="fill:rgb(220,230,255);"/>
				<text x="198.83040935672517" y="245.61403508771934">15</text>
				<circle cx="280.70175438596493" cy="245.61403508771934" r="35.08771929824562" style="fill:rgb(220,230,255);"/>
				<text x="280.70175438596493" y="245.61403508771934">16</text>
				<circle cx="362.57309941520475" cy="245.61403508771934" r="35.08771929824562" style="fill:rgb(220,230,255);"/>
				<text x="362.57309941520475" y="245.61403508771934">17</text>
				<circle cx="444.44444444444446" cy="245.61403508771934" r="35.08771929824562" style="fill:rgb(220,230,255);"/>
				<text x="444.44444444444446" y="245.61403508771934">18</text>
				<circle cx="526.3157894736843" cy="245.61403508771934" r="35.08771929824562" style="fill:rgb(220,230,255);"/>
				<text x="526.3157894736843" y="245.61403508771934">19</text>
				<circle cx="35.08771929824562" cy="327.4853801169591" r="35.08771929824562" style="fill:rgb(220,230,255);"/>
				<text x="35.08771929824562" y="327.4853801169591">20</text>
				<circle cx="116.9590643274854" cy="327.4853801169591" r="35.08771929824562" style="fill:rgb(220,230,255);"/>
				<text x="116.9590643274854" y="327.4853801169591">21</text>
				<circle cx="198.83040935672517" cy="327.4853801169591" r="35.08771929824562" style="fill:rgb(220,230,255);"/>
				<text x="198.83040935672517" y="327.4853801169591">22</text>
				<circle cx="280.70175438596493" cy="327.4853801169591" r="35.08771929824562" style="fill:rgb(220,230,255);"/>
				<text x="280.70175438596493" y="327.4853801169591">23</text>
				<circle cx="362.57309941520475" cy="327.4853801169591" r="35.08771929824562" style="fill:rgb(220,230,255);"/>
				<text x="362.57309941520475" y="327.4853801169591">24</text>
				<circle cx="444.44444444444446" cy="327.4853801169591" r="35.08771929824562" style="fill:rgb(220,230,255);"/>
				<text x="444.44444444444446" y="327.4853801169591">25</text>
				<circle cx="526.3157894736843" cy="327.4853801169591" r="35.08771929824562" style="fill:rgb(220,230,255);"/>
				<text x="526.3157894736843" y="327.4853801169591">26</text>
				<circle cx="35.08771929824562" cy="409.35672514619887" r="35.08771929824562" style="fill:rgb(220,230,255);"/>
				<text x="35.08771929824562" y="409.35672514619887">27</text>
				<circle cx="116.9590643274854" cy="409.35672514619887" r="35.08771929824562" style="fill:rgb(220,230,255);"/>
				<text x="116.9590643274854" y="409.35672514619887">28</text>
				<circle cx="198.83040935672517" cy="409.35672514619887" r="35.08771929824562" style="fill:rgb(220,230,255);"/>
				<text x="198.83040935672517" y="409.35672514619887">29</text>
				<circle cx="280.70175438596493" cy="409.35672514619887" r="35.08771929824562" style="fill:rgb(220,230,255);"/>
				<text x="280.70175438596493" y="409.35672514619887">30</text>
				<circle cx="362.57309941520475" cy="409.35672514619887" r="35.08771929824562" style="fill:rgb(220,230,255);"/>
				<text x="362.57309941520475" y="409.35672514619887">31</text>
			</g>
		</g>
		<g id="June" transform="translate(1473.6842105263158, 720.1754385964912)">
			<text x="0" y="0" style="font-family:'Helvetica';font-size:70.17543859649123px;fill:rgb(102,102,102);" text-anchor="left" dominant-baseline="central">June</text>
			<g id="June_weekbar" transform="translate(0, 105.26315789473685)" style="font-family:'Helvetica';font-size:35.08771929824562px;fill:rgb(51,51,51);" text-anchor="middle" dominant-baseline="central">
				<text x="35.08771929824562" y="0">Su</text>
				<text x="116.9590643274854" y="0">Mo</text>
				<text x="198.83040935672517" y="0">Tu</text>
				<text x="280.70175438596493" y="0">We</text>
				<text x="362.57309941520475" y="0">Th</text>
				<text x="444.44444444444446" y="0">Fr</text>
				<text x="526.3157894736843" y="0">Sa</text>
			</g>
			<g id="June_days" transform="translate(0, 105.26315789473685)" text-anchor="middle" dominant-baseline="central" style="font-family:'Helvetica';font-size:35.08771929824562px;fill:rgb(51,51,51);" >
				<circle cx="444.44444444444446" cy="81.87134502923978" r="35.08771929824562" style="fill:rgb(220,230,255);"/>
				<text x="444.44444444444446" y="81.87134502923978">01</text>
				<circle cx="526.3157894736843" cy="81.87134502923978" r="35.08771929824562" style="fill:rgb(220,230,255);"/>
				<text x="526.3157894736843" y="81.87134502923978">02</text>
				<circle cx="35.08771929824562" cy="163.74269005847955" r="35.08771929824562" style="fill:rgb(220,230,255);"/>
				<text x="35.08771929824562" y="163.74269005847955">03</text>
				<circle cx="116.9590643274854" cy="163.74269005847955" r="35.08771929824562" style="fill:rgb(220,230,255);"/>
				<text x="116.9590643274854" y="163.74269005847955">04</text>
				<circle cx="198.83040935672517" cy="163.74269005847955" r="35.08771929824562" style="fill:rgb(220,230,255);"/>
				<text x="198.83040935672517" y="163.74269005847955">05</text>
				<circle cx="280.70175438596493" cy="163.74269005847955" r="35.08771929824562" style="fill:rgb(220,230,255);"/>
				<text x="280.70175438596493" y="163.74269005847955">06</text>
				<circle cx="362.57309941520475" cy="163.74269005847955" r="35.08771929824562" style="fill:rgb(220,230,255);"/>
				<text x="362.57309941520475" y="163.74269005847955">07</text>
				<circle cx="444.44444444444446" cy="163.74269005847955" r="35.08771929824562" style="fill:rgb(220,230,255);"/>
				<text x="444.44444444444446" y="163.74269005847955">08</text>
				<circle cx="526.3157894736843" cy="163.74269005847955" r="35.08771929824562" style="fill:rgb(220,230,255);"/>
				<text x="526.3157894736843" y="163.74269005847955">09</text>
				<circle cx="35.08771929824562" cy="245.61403508771934" r="35.08771929824562" style="fill:rgb(220,230,255);"/>
				<text x="35.08771929824562" y="245.61403508771934">10</text>
				<circle cx="116.9590643274854" cy="245.61403508771934" r="35.08771929824562" style="fill:rgb(220,230,255);"/>
				<text x="116.9590643274854" y="245.61403508771934">11</text>
				<circle cx="198.83040935672517" cy="245.61403508771934" r="35.08771929824562" style="fill:rgb(220,230,255);"/>
				<text x="198.83040935672517" y="245.61403508771934">12</text>
				<circle cx="280.70175438596493" cy="245.61403508771934" r="35.08771929824562" style="fill:rgb(220,230,255);"/>
				<text x="280.70175438596493" y="245.61403508771934">13</text>
				<circle cx="362.57309941520475" cy="245.61403508771934" r="35.08771929824562" style="fill:rgb(220,230,255);"/>
				<text x="362.57309941520475" y="245.61403508771934">14</text>
				<circle cx="444.44444444444446" cy="245.61403508771934" r="35.08771929824562" style="fill:rgb(220,230,255);"/>
				<text x="444.44444444444446" y="245.61403508771934">15</text>
				<circle cx="526.3157894736843" cy="245.61403508771934" r="35.08771929824562" style="fill:rgb(220,230,255);"/>
				<text x="526.3157894736843" y="245.61403508771934">16</text>
				<circle cx="35.08771929824562" cy="327.4853801169591" r="35.08771929824562" style="fill:rgb(220,230,255);"/>
				<text x="35.08771929824562" y="327.4853801169591">17</text>
				<circle cx="116.9590643274854" cy="327.4853801169591" r="35.08771929824562" style="fill:rgb(220,230,255);"/>
				<text x="116.9590643274854" y="327.4853801169591">18</text>
				<circle cx="198.83040935672517" cy="327.4853801169591" r="35.08771929824562" style="fill:rgb(220,230,255);"/>
				<text x="198.83040935672517" y="327.4853801169591">19</text>
				<circle cx="280.70175438596493" cy="327.4853801169591" r="35.08771929824562" style="fill:rgb(220,230,255);"/>
				<text x="280.70175438596493" y="327.4853801169591">20</text>
				<circle cx="362.57309941520475" cy="327.4853801169591" r="35.08771929824562" style="fill:rgb(220,230,255);"/>
				<text x="362.57309941520475" y="327.4853801169591">21</text>
				<circle cx="444.44444444444446" cy="327.4853801169591" r="35.08771929824562" style="fill:rgb(220,230,255);"/>
				<text x="444.44444444444446" y="327.4853801169591">22</text>
				<circle cx="526.3157894736843" cy="327.4853801169591" r="35.08771929824562" style="fill:rgb(220,230,255);"/>
				<text x="526.3157894736843" y="327.4853801169591">23</text>
				<circle cx="35.08771929824562" cy="409.35672514619887" r="35.08771929824562" style="fill:rgb(220,230,255);"/>
				<text x="35.08771929824562" y="409.35672514619887">24</text>
				<circle cx="116.9590643274854" cy="409.35672514619887" r="35.08771929824562" style="fill:rgb(220,230,255);"/>
				<text x="116.9590643274854" y="409.35672514619887">25</text>
				<circle cx="198.83040935672517" cy="409.35672514619887" r="35.08771929824562" style="fill:rgb(220,230,255);"/>
				<text x="198.83040935672517" y="409.35672514619887">26</text>
				<circle cx="280.70175438596493" cy="409.35672514619887" r="35.08771929824562" style="fill:rgb(220,230,255);"/>
				<text x="280.70175438596493" y="409.35672514619887">27</text>
				<circle cx="362.57309941520475" cy="409.35672514619887" r="35.08771929824562" style="fill:rgb(220,230,255);"/>
				<text x="362.57309941520475" y="409.35672514619887">28</text>
				<circle cx="444.44444444444446" cy="409.35672514619887" r="35.08771929824562" style="fill:rgb(220,230,255);"/>
				<text x="444.44444444444446" y="409.35672514619887">29</text>
				<circle cx="526.3157894736843" cy="409.35672514619887" r="35.08771929824562" style="fill:rgb(220,230,255);"/>
				<text x="526.3157894736843" y="409.35672514619887">30</text>
			</g>
		</g>
		<g id="July" transform="translate(0, 1440.3508771929824)">
			<text x="0" y="0" style="font-family:'Helvetica';font-size:70.17543859649123px;fill:rgb(102,102,102);" text-anchor="left" dominant-baseline="central">July</text>
			<g id="July_weekbar" transform="translate(0, 105.26315789473685)" style="font-family:'Helvetica';font-size:35.08771929824562px;fill:rgb(51,51,51);" text-anchor="middle" dominant-baseline="central">
				<text x="35.08771929824562" y="0">Su</text>
				<text x="116.9590643274854" y="0">Mo</text>
				<text x="198.83040935672517" y="0">Tu</text>
				<text x="280.70175438596493" y="0">We</text>
				<text x="362.57309941520475" y="0">Th</text>
				<text x="444.44444444444446" y="0">Fr</text>
				<text x="526.3157894736843" y="0">Sa</text>
			</g>
			<g id="July_days" transform="translate(0, 105.26315789473685)" text-anchor="middle" dominant-baseline="central" style="font-family:'Helvetica';font-size:35.08771929824562px;fill:rgb(51,51,51);" >
				<circle cx="35.08771929824562" cy="81.87134502923978" r="35.08771929824562" style="fill:rgb(220,230,255);"/>
				<text x="35.08771929824562" y="81.87134502923978">01</text>
				<circle cx="116.9590643274854" cy="81.87134502923978" r="35.08771929824562" style="fill:rgb(220,230,255);"/>
				<text x="116.9590643274854" y="81.87134502923978">02</text>
				<circle cx="198.83040935672517" cy="81.87134502923978" r="35.08771929824562" style="fill:rgb(220,230,255);"/>
				<text x="198.83040935672517" y="81.87134502923978">03</text>
				<circle cx="280.70175438596493" cy="81.87134502923978" r="35.08771929824562" style="fill:rgb(220,230,255);"/>
				<text x="280.70175438596493" y="81.87134502923978">04</text>
				<circle cx="362.57309941520475" cy="81.87134502923978" r="35.08771929824562" style="fill:rgb(220,230,255);"/>
				<text x="362.57309941520475" y="81.87134502923978">05</text>
				<circle cx="444.44444444444446" cy="81.87134502923978" r="35.08771929824562" style="fill:rgb(220,230,255);"/>
				<text x="444.44444444444446" y="81.87134502923978">06</text>
				<circle cx="526.3157894736843" cy="81.87134502923978" r="35.08771929824562" style="fill:rgb(220,230,255);"/>
				<text x="526.3157894736843" y="81.87134502923978">07</text>
				<circle cx="35.08771929824562" cy="163.74269005847955" r="35.08771929824562" style="fill:rgb(220,230,255);"/>
				<text x="35.08771929824562" y="163.74269005847955">08</text>
				<circle cx="116.9590643274854" cy="163.74269005847955" r="35.08771929824562" style="fill:rgb(220,230,255);"/>
				<text x="116.9590643274854" y="163.74269005847955">09</text>
				<circle cx="198.83040935672517" cy="163.74269005847955" r="35.08771929824562" style="fill:rgb(220,230,255);"/>
				<text x="198.83040935672517" y="163.74269005847955">10</text>
				<circle cx="280.70175438596493" cy="163.74269005847955" r="35.08771929824562" style="fill:rgb(220,230,255);"/>
				<text x="280.70175438596493" y="163.74269005847955">11</text>
				<circle cx="362.57309941520475" cy="163.74269005847955" r="35.08771929824562" style="fill:rgb(220,230,255);"/>
				<text x="362.57309941520475" y="163.74269005847955">12</text>
				<circle cx="444.44444444444446" cy="163.74269005847955" r="35.08771929824562" style="fill:rgb(220,230,255);"/>
				<text x="444.44444444444446" y="163.74269005847955">13</text>
				<circle cx="526.3157894736843" cy="163.74269005847955" r="35.08771929824562" style="fill:rgb(220,230,255);"/>
				<text x="526.3157894736843" y="163.74269005847955">14</text>
				<circle cx="35.08771929824562" cy="245.61403508771934" r="35.08771929824562" style="fill:rgb(220,230,255);"/>
				<text x="35.08771929824562" y="245.61403508771934">15</text>
				<circle cx="116.9590643274854" cy="245.61403508771934" r="35.08771929824562" style="fill:rgb(220,230,255);"/>
				<text x="116.9590643274854" y="245.61403508771934">16</text>
				<circle cx="198.83040935672517" cy="245.61403508771934" r="35.08771929824562" style="fill:rgb(220,230,255);"/>
				<text x="198.83040935672517" y="245.61403508771934">17</text>
				<circle cx="280.70175438596493" cy="245.61403508771934" r="35.08771929824562" style="fill:rgb(220,230,255);"/>
				<text x="280.70175438596493" y="245.61403508771934">18</text>
				<circle cx="362.57309941520475" cy="245.61403508771934" r="35.08771929824562" style="fill:rgb(220,230,255);"/>
				<text x="362.57309941520475" y="245.61403508771934">19</text>
				<circle cx="444.44444444444446" cy="245.61403508771934" r="35.08771929824562" style="fill:rgb(220,230,255);"/>
				<text x="444.44444444444446" y="245.61403508771934">20</text>
				<circle cx="526.3157894736843" cy="245.61403508771934" r="35.08771929824562" style="fill:rgb(220,230,255);"/>
				<text x="526.3157894736843" y="245.61403508771934">21</text>
				<circle cx="35.08771929824562" cy="327.4853801169591" r="35.08771929824562" style="fill:rgb(220,230,255);"/>
				<text x="35.08771929824562" y="327.4853801169591">22</text>
				<circle cx="116.9590643274854" cy="327.4853801169591" r="35.08771929824562" style="fill:rgb(220,230,255);"/>
				<text x="116.9590643274854" y="327.4853801169591">23</text>
				<circle cx="198.83040935672517" cy="327.4853801169591" r="35.08771929824562" style="fill:rgb(220,230,255);"/>
				<text x="198.83040935672517" y="327.4853801169591">24</text>
				<circle cx="280.70175438596493" cy="327.4853801169591" r="35.08771929824562" style="fill:rgb(220,230,255);"/>
				<text x="280.70175438596493" y="327.4853801169591">25</text>
				<circle cx="362.57309941520475" cy="327.4853801169591" r="35.08771929824562" style="fill:rgb(220,230,255);"/>
				<text x="362.57309941520475" y="327.4853801169591">26</text>
				<circle cx="444.44444444444446" cy="327.4853801169591" r="35.08771929824562" style="fill:rgb(220,230,255);"/>
				<text x="444.44444444444446" y="327.4853801169591">27</text>
				<circle cx="526.3157894736843" cy="327.4853801169591" r="35.08771929824562" style="fill:rgb(220,230,255);"/>
				<text x="526.3157894736843" y="327.4853801169591">28</text>
				<circle cx="35.08771929824562" cy="409.35672514619887" r="35.08771929824562" style="fill:rgb(220,230,255);"/>
				<text x="35.08771929824562" y="409.35672514619887">29</text>
				<circle cx="116.9590643274854" cy="409.35672514619887" r="35.08771929824562" style="fill:rgb(220,230,255);"/>
				<text x="116.9590643274854" y="409.35672514619887">30</text>
				<circle cx="198.83040935672517" cy="409.35672514619887" r="35.08771929824562" style="fill:rgb(220,230,255);"/>
				<text x="198.83040935672517" y="409.35672514619887">31</text>
			</g>
		</g>
		<g id="August" transform="translate(736.8421052631579, 1440.3508771929824)">
			<text x="0" y="0" style="font-family:'Helvetica';font-size:70.17543859649123px;fill:rgb(102,102,102);" text-anchor="left" dominant-baseline="central">August</text>
			<g id="August_weekbar" transform="translate(0, 105.26315789473685)" style="font-family:'Helvetica';font-size:35.08771929824562px;fill:rgb(51,51,51);" text-anchor="middle" dominant-baseline="central">
				<text x="35.08771929824562" y="0">Su</text>
				<text x="116.9590643274854" y="0">Mo</text>
				<text x="198.83040935672517" y="0">Tu</text>
				<text x="280.70175438596493" y="0">We</text>
				<text x="362.57309941520475" y="0">Th</text>
				<text x="444.44444444444446" y="0">Fr</text>
				<text x="526.3157894736843" y="0">Sa</text>
			</g>
			<g id="August_days" transform="translate(0, 105.26315789473685)" text-anchor="middle" dominant-baseline="central" style="font-family:'Helvetica';font-size:35.08771929824562px;fill:rgb(51,51,51);" >
				<circle cx="280.70175438596493" cy="81.87134502923978" r="35.08771929824562" style="fill:rgb(220,230,255);"/>
				<text x="280.70175438596493" y="81.87134502923978">01</text>
				<circle cx="362.57309941520475" cy="81.87134502923978" r="35.08771929824562" style="fill:rgb(220,230,255);"/>
				<text x="362.57309941520475" y="81.87134502923978">02</text>
				<circle cx="444.44444444444446" cy="81.87134502923978" r="35.08771929824562" style="fill:rgb(220,230,255);"/>
				<text x="444.44444444444446" y="81.87134502923978">03</text>
				<circle cx="526.3157894736843" cy="81.87134502923978" r="35.08771929824562" style="fill:rgb(220,230,255);"/>
				<text x="526.3157894736843" y="81.87134502923978">04</text>
				<circle cx="35.08771929824562" cy="163.74269005847955" r="35.08771929824562" style="fill:rgb(220,230,255);"/>
				<text x="35.08771929824562" y="163.74269005847955">05</text>
				<circle cx="116.9590643274854" cy="163.74269005847955" r="35.08771929824562" style="fill:rgb(220,230,255);"/>
				<text x="116.9590643274854" y="163.74269005847955">06</text>
				<circle cx="198.83040935672517" cy="163.74269005847955" r="35.08771929824562" style="fill:rgb(220,230,255);"/>
				<text x="198.83040935672517" y="163.74269005847955">07</text>
				<circle cx="280.70175438596493" cy="163.74269005847955" r="35.08771929824562" style="fill:rgb(220,230,255);"/>
				<text x="280.70175438596493" y="163.74269005847955">08</text>
				<circle cx="362.57309941520475" cy="163.74269005847955" r="35.08771929824562" style="fill:rgb(220,230,255);"/>
				<text x="362.57309941520475" y="163.74269005847955">09</text>
				<circle cx="444.44444444444446" cy="163.74269005847955" r="35.08771929824562" style="fill:rgb(220,230,255);"/>
				<text x="444.44444444444446" y="163.74269005847955">10</text>
				<circle cx="526.3157894736843" cy="163.74269005847955" r="35.08771929824562" style="fill:rgb(220,230,255);"/>
				<text x="526.3157894736843" y="163.74269005847955">11</text>
				<circle cx="35.08771929824562" cy="245.61403508771934" r="35.08771929824562" style="fill:rgb(220,230,255);"/>
				<text x="35.08771929824562" y="245.61403508771934">12</text>
				<circle cx="116.9590643274854" cy="245.61403508771934" r="35.08771929824562" style="fill:rgb(220,230,255);"/>
				<text x="116.9590643274854" y="245.61403508771934">13</text>
				<circle cx="198.83040935672517" cy="245.61403508771934" r="35.08771929824562" style="fill:rgb(220,230,255);"/>
				<text x="198.83040935672517" y="245.61403508771934">14</text>
				<circle cx="280.70175438596493" cy="245.61403508771934" r="35.08771929824562" style="fill:rgb(220,230,255);"/>
				<text x="280.70175438596493" y="245.61403508771934">15</text>
				<circle cx="362.57309941520475" cy="245.61403508771934" r="35.08771929824562" style="fill:rgb(220,230,255);"/>
				<text x="362.57309941520475" y="245.61403508771934">16</text>
				<circle cx="444.44444444444446" cy="245.61403508771934" r="35.08771929824562" style="fill:rgb(220,230,255);"/>
				<text x="444.44444444444446" y="245.61403508771934">17</text>
				<circle cx="526.3157894736843" cy="245.61403508771934" r="35.08771929824562" style="fill:rgb(220,230,255);"/>
				<text x="526.3157894736843" y="245.61403508771934">18</text>
				<circle cx="35.08771929824562" cy="327.4853801169591" r="35.08771929824562" style="fill:rgb(220,230,255);"/>
				<text x="35.08771929824562" y="327.4853801169591">19</text>
				<circle cx="116.9590643274854" cy="327.4853801169591" r="35.08771929824562" style="fill:rgb(220,230,255);"/>
				<text x="116.9590643274854" y="327.4853801169591">20</text>
				<circle cx="198.83040935672517" cy="327.4853801169591" r="35.08771929824562" style="fill:rgb(220,230,255);"/>
				<text x="198.83040935672517" y="327.4853801169591">21</text>
				<circle cx="280.70175438596493" cy="327.4853801169591" r="35.08771929824562" style="fill:rgb(220,230,255);"/>
				<text x="280.70175438596493" y="327.4853801169591">22</text>
				<circle cx="362.57309941520475" cy="327.4853801169591" r="35.08771929824562" style="fill:rgb(220,230,255);"/>
				<text x="362.57309941520475" y="327.4853801169591">23</text>
				<circle cx="444.44444444444446" cy="327.4853801169591" r="35.08771929824562" style="fill:rgb(220,230,255);"/>
				<text x="444.44444444444446" y="327.4853801169591">24</text>
				<circle cx="526.3157894736843" cy="327.4853801169591" r="35.08771929824562" style="fill:rgb(220,230,255);"/>
				<text x="526.3157894736843" y="327.4853801169591">25</text>
				<circle cx="35.08771929824562" cy="409.35672514619887" r="35.08771929824562" style="fill:rgb(220,230,255);"/>
				<text x="35.08771929824562" y="409.35672514619887">26</text>
				<circle cx="116.9590643274854" cy="409.35672514619887" r="35.08771929824562" style="fill:rgb(220,230,255);"/>
				<text x="116.9590643274854" y="409.35672514619887">27</text>
				<circle cx="198.83040935672517" cy="409.35672514619887" r="35.08771929824562" style="fill:rgb(220,230,255);"/>
				<text x="198.83040935672517" y="409.35672514619887">28</text>
				<circle cx="280.70175438596493" cy="409.35672514619887" r="35.08771929824562" style="fill:rgb(220,230,255);"/>
				<text x="280.70175438596493" y="409.35672514619887">29</text>
				<circle cx="362.57309941520475" cy="409.35672514619887" r="35.08771929824562" style="fill:rgb(220,230,255);"/>
				<text x="362.57309941520475" y="409.35672514619887">30</text>
				<circle cx="444.44444444444446" cy="409.35672514619887" r="35.08771929824562" style="fill:rgb(220,230,255);"/>
				<text x="444.44444444444446" y="409.35672514619887">31</text>
			</g>
		</g>
		<g id="September" transform="translate(1473.6842105263158, 1440.3508771929824)">
			<text x="0" y="0" style="font-family:'Helvetica';font-size:70.17543859649123px;fill:rgb(102,102,102);" text-anchor="left" dominant-baseline="central">September</text>
			<g id="September_weekbar" transform="translate(0, 105.26315789473685)" style="font-family:'Helvetica';font-size:35.08771929824562px;fill:rgb(51,51,51);" text-anchor="middle" dominant-baseline="central">
				<text x="35.08771929824562" y="0">Su</text>
				<text x="116.9590643274854" y="0">Mo</text>
				<text x="198.83040935672517" y="0">Tu</text>
				<text x="280.70175438596493" y="0">We</text>
				<text x="362.57309941520475" y="0">Th</text>
				<text x="444.44444444444446" y="0">Fr</text>
				<text x="526.3157894736843" y="0">Sa</text>
			</g>
			<g id="September_days" transform="translate(0, 105.26315789473685)" text-anchor="middle" dominant-baseline="central" style="font-family:'Helvetica';font-size:35.08771929824562px;fill:rgb(51,51,51);" >
				<circle cx="526.3157894736843" cy="81.87134502923978" r="35.08771929824562" style="fill:rgb(220,230,255);"/>
				<text x="526.3157894736843" y="81.87134502923978">01</text>
				<circle cx="35.08771929824562" cy="163.74269005847955" r="35.08771929824562" style="fill:rgb(220,230,255);"/>
				<text x="35.08771929824562" y="163.74269005847955">02</text>
				<circle cx="116.9590643274854" cy="163.74269005847955" r="35.08771929824562" style="fill:rgb(220,230,255);"/>
				<text x="116.9590643274854" y="163.74269005847955">03</text>
				<circle cx="198.83040935672517" cy="163.74269005847955" r="35.08771929824562" style="fill:rgb(220,230,255);"/>
				<text x="198.83040935672517" y="163.74269005847955">04</text>
				<circle cx="280.70175438596493" cy="163.74269005847955" r="35.08771929824562" style="fill:rgb(220,230,255);"/>
				<text x="280.70175438596493" y="163.74269005847955">05</text>
				<circle cx="362.57309941520475" cy="163.74269005847955" r="35.08771929824562" style="fill:rgb(220,230,255);"/>
				<text x="362.57309941520475" y="163.74269005847955">06</text>
				<circle cx="444.44444444444446" cy="163.74269005847955" r="35.08771929824562" style="fill:rgb(220,230,255);"/>
				<text x="444.44444444444446" y="163.74269005847955">07</text>
				<circle cx="526.3157894736843" cy="163.74269005847955" r="35.08771929824562" style="fill:rgb(220,230,255);"/>
				<text x="526.3157894736843" y="163.74269005847955">08</text>
				<circle cx="35.08771929824562" cy="245.61403508771934" r="35.08771929824562" style="fill:rgb(220,230,255);"/>
				<text x="35.08771929824562" y="245.61403508771934">09</text>
				<circle cx="116.9590643274854" cy="245.61403508771934" r="35.08771929824562" style="fill:rgb(220,230,255);"/>
				<text x="116.9590643274854" y="245.61403508771934">10</text>
				<circle cx="198.83040935672517" cy="245.61403508771934" r="35.08771929824562" style="fill:rgb(220,230,255);"/>
				<text x="198.83040935672517" y="245.61403508771934">11</text>
				<circle cx="280.70175438596493" cy="245.61403508771934" r="35.08771929824562" style="fill:rgb(220,230,255);"/>
				<text x="280.70175438596493" y="245.61403508771934">12</text>
				<circle cx="362.57309941520475" cy="245.61403508771934" r="35.08771929824562" style="fill:rgb(220,230,255);"/>
				<text x="362.57309941520475" y="245.61403508771934">13</text>
				<circle cx="444.44444444444446" cy="245.61403508771934" r="35.08771929824562" style="fill:rgb(220,230,255);"/>
				<text x="444.44444444444446" y="245.61403508771934">14</text>
				<circle cx="526.3157894736843" cy="245.61403508771934" r="35.08771929824562" style="fill:rgb(220,230,255);"/>
				<text x="526.3157894736843" y="245.61403508771934">15</text>
				<circle cx="35.08771929824562" cy="327.4853801169591" r="35.08771929824562" style="fill:rgb(220,230,255);"/>
				<text x="35.08771929824562" y="327.4853801169591">16</text>
				<circle cx="116.9590643274854" cy="327.4853801169591" r="35.08771929824562" style="fill:rgb(220,230,255);"/>
				<text x="116.9590643274854" y="327.4853801169591">17</text>
				<circle cx="198.83040935672517" cy="327.4853801169591" r="35.08771929824562" style="fill:rgb(220,230,255);"/>
				<text x="198.83040935672517" y="327.4853801169591">18</text>
				<circle cx="280.70175438596493" cy="327.4853801169591" r="35.08771929824562" style="fill:rgb(220,230,255);"/>
				<text x="280.70175438596493" y="327.4853801169591">19</text>
				<circle cx="362.57309941520475" cy="327.4853801169591" r="35.08771929824562" style="fill:rgb(220,230,255);"/>
				<text x="362.57309941520475" y="327.4853801169591">20</text>
				<circle cx="444.44444444444446" cy="327.4853801169591" r="35.08771929824562" style="fill:rgb(220,230,255);"/>
				<text x="444.44444444444446" y="327.4853801169591">21</text>
				<circle cx="526.3157894736843" cy="327.4853801169591" r="35.08771929824562" style="fill:rgb(220,230,255);"/>
				<text x="526.3157894736843" y="327.4853801169591">22</text>
				<circle cx="35.08771929824562" cy="409.35672514619887" r="35.08771929824562" style="fill:rgb(220,230,255);"/>
				<text x="35.08771929824562" y="409.35672514619887">23</text>
				<circle cx="116.9590643274854" cy="409.35672514619887" r="35.08771929824562" style="fill:rgb(220,230,255);"/>
				<text x="116.9590643274854" y="409.35672514619887">24</text>
				<circle cx="198.83040935672517" cy="409.35672514619887" r="35.08771929824562" style="fill:rgb(220,230,255);"/>
				<text x="198.83040935672517" y="409.35672514619887">25</text>
				<circle cx="280.70175438596493" cy="409.35672514619887" r="35.08771929824562" style="fill:rgb(220,230,255);"/>
				<text x="280.70175438596493" y="409.35672514619887">26</text>
				<circle cx="362.57309941520475" cy="409.35672514619887" r="35.08771929824562" style="fill:rgb(220,230,255);"/>
				<text x="362.57309941520475" y="409.35672514619887">27</text>
				<circle cx="444.44444444444446" cy="409.35672514619887" r="35.08771929824562" style="fill:rgb(220,230,255);"/>
				<text x="444.44444444444446" y="409.35672514619887">28</text>
				<circle cx="526.3157894736843" cy="409.35672514619887" r="35.08771929824562" style="fill:rgb(220,230,255);"/>
				<text x="526.3157894736843" y="409.35672514619887">29</text>
				<circle cx="35.08771929824562" cy="491.2280701754387" r="35.08771929824562" style="fill:rgb(220,230,255);"/>
				<text x="35.08771929824562" y="491.2280701754387">30</text>
			</g>
		</g>
		<g id="October" transform="translate(0, 2160.5263157894733)">
			<text x="0" y="0" style="font-family:'Helvetica';font-size:70.17543859649123px;fill:rgb(102,102,102);" text-anchor="left" dominant-baseline="central">October</text>
			<g id="October_weekbar" transform="translate(0, 105.26315789473685)" style="font-family:'Helvetica';font-size:35.08771929824562px;fill:rgb(51,51,51);" text-anchor="middle" dominant-baseline="central">
				<text x="35.08771929824562" y="0">Su</text>
				<text x="116.9590643274854" y="0">Mo</text>
				<text x="198.83040935672517" y="0">Tu</text>
				<text x="280.70175438596493" y="0">We</text>
				<text x="362.57309941520475" y="0">Th</text>
				<text x="444.44444444444446" y="0">Fr</text>
				<text x="526.3157894736843" y="0">Sa</text>
			</g>
			<g id="October_days" transform="translate(0, 105.26315789473685)" text-anchor="middle" dominant-baseline="central" style="font-family:'Helvetica';font-size:35.08771929824562px;fill:rgb(51,51,51);" >
				<circle cx="116.9590643274854" cy="81.87134502923978" r="35.08771929824562" style="fill:rgb(220,230,255);"/>
				<text x="116.9590643274854" y="81.87134502923978">01</text>
				<circle cx="198.83040935672517" cy="81.87134502923978" r="35.08771929824562" style="fill:rgb(220,230,255);"/>
				<text x="198.83040935672517" y="81.87134502923978">02</text>
				<circle cx="280.70175438596493" cy="81.87134502923978" r="35.08771929824562" style="fill:rgb(220,230,255);"/>
				<text x="280.70175438596493" y="81.87134502923978">03</text>
				<circle cx="362.57309941520475" cy="81.87134502923978" r="35.08771929824562" style="fill:rgb(220,230,255);"/>
				<text x="362.57309941520475" y="81.87134502923978">04</text>
				<circle cx="444.44444444444446" cy="81.87134502923978" r="35.08771929824562" style="fill:rgb(220,230,255);"/>
				<text x="444.44444444444446" y="81.87134502923978">05</text>
				<circle cx="526.3157894736843" cy="81.87134502923978" r="35.08771929824562" style="fill:rgb(220,230,255);"/>
				<text x="526.3157894736843" y="81.87134502923978">06</text>
				<circle cx="35.08771929824562" cy="163.74269005847955" r="35.08771929824562" style="fill:rgb(220,230,255);"/>
				<text x="35.08771929824562" y="163.74269005847955">07</text>
				<circle cx="116.9590643274854" cy="163.74269005847955" r="35.08771929824562" style="fill:rgb(220,230,255);"/>
				<text x="116.9590643274854" y="163.74269005847955">08</text>
				<circle cx="198.83040935672517" cy="163.74269005847955" r="35.08771929824562" style="fill:rgb(220,230,255);"/>
				<text x="198.83040935672517" y="163.74269005847955">09</text>
				<circle cx="280.70175438596493" cy="163.74269005847955" r="35.08771929824562" style="fill:rgb(220,230,255);"/>
				<text x="280.70175438596493" y="163.74269005847955">10</text>
				<circle cx="362.57309941520475" cy="163.74269005847955" r="35.08771929824562" style="fill:rgb(220,230,255);"/>
				<text x="362.57309941520475" y="163.74269005847955">11</text>
				<circle cx="444.44444444444446" cy="163.74269005847955" r="35.08771929824562" style="fill:rgb(220,230,255);"/>
				<text x="444.44444444444446" y="163.74269005847955">12</text>
				<circle cx="526.3157894736843" cy="163.74269005847955" r="35.08771929824562" style="fill:rgb(220,230,255);"/>
				<text x="526.3157894736843" y="163.74269005847955">13</text>
				<circle cx="35.08771929824562" cy="245.61403508771934" r="35.08771929824562" style="fill:rgb(220,230,255);"/>
				<text x="35.08771929824562" y="245.61403508771934">14</text>
				<circle cx="116.9590643274854" cy="245.61403508771934" r="35.08771929824562" style="fill:rgb(220,230,255);"/>
				<text x="116.9590643274854" y="245.61403508771934">15</text>
				<circle cx="198.83040935672517" cy="245.61403508771934" r="35.08771929824562" style="fill:rgb(220,230,255);"/>
				<text x="198.83040935672517" y="245.61403508771934">16</text>
				<circle cx="280.70175438596493" cy="245.61403508771934" r="35.08771929824562" style="fill:rgb(220,230,255);"/>
				<text x="280.70175438596493" y="245.61403508771934">17</text>
				<circle cx="362.57309941520475" cy="245.61403508771934" r="35.08771929824562" style="fill:rgb(220,230,255);"/>
				<text x="362.57309941520475" y="245.61403508771934">18</text>
				<circle cx="444.44444444444446" cy="245.61403508771934" r="35.08771929824562" style="fill:rgb(220,230,255);"/>
				<text x="444.44444444444446" y="245.61403508771934">19</text>
				<circle cx="526.3157894736843" cy="245.61403508771934" r="35.08771929824562" style="fill:rgb(220,230,255);"/>
				<text x="526.3157894736843" y="245.61403508771934">20</text>
				<circle cx="35.08771929824562" cy="327.4853801169591" r="35.08771929824562" style="fill:rgb(220,230,255);"/>
				<text x="35.08771929824562" y="327.4853801169591">21</text>
				<circle cx="116.9590643274854" cy="327.4853801169591" r="35.08771929824562" style="fill:rgb(220,230,255);"/>
				<text x="116.9590643274854" y="327.4853801169591">22</text>
				<circle cx="198.83040935672517" cy="327.4853801169591" r="35.08771929824562" style="fill:rgb(220,230,255);"/>
				<text x="198.83040935672517" y="327.4853801169591">23</text>
				<circle cx="280.70175438596493" cy="327.4853801169591" r="35.08771929824562" style="fill:rgb(220,230,255);"/>
				<text x="280.70175438596493" y="327.4853801169591">24</text>
				<circle cx="362.57309941520475" cy="327.4853801169591" r="35.08771929824562" style="fill:rgb(220,230,255);"/>
				<text x="362.57309941520475" y="327.4853801169591">25</text>
				<circle cx="444.44444444444446" cy="327.4853801169591" r="35.08771929824562" style="fill:rgb(220,230,255);"/>
				<text x="444.44444444444446" y="327.4853801169591">26</text>
				<circle cx="526.3157894736843" cy="327.4853801169591" r="35.08771929824562" style="fill:rgb(220,230,255);"/>
				<text x="526.3157894736843" y="327.4853801169591">27</text>
				<circle cx="35.08771929824562" cy="409.35672514619887" r="35.08771929824562" style="fill:rgb(220,230,255);"/>
				<text x="35.08771929824562" y="409.35672514619887">28</text>
				<circle cx="116.9590643274854" cy="409.35672514619887" r="35.08771929824562" style="fill:rgb(220,230,255);"/>
				<text x="116.9590643274854" y="409.35672514619887">29</text>
				<circle cx="198.83040935672517" cy="409.35672514619887" r="35.08771929824562" style="fill:rgb(220,230,255);"/>
				<text x="198.83040935672517" y="409.35672514619887">30</text>
				<circle cx="280.70175438596493" cy="409.35672514619887" r="35.08771929824562" style="fill:rgb(220,230,255);"/>
				<text x="280.70175438596493" y="409.35672514619887">31</text>
			</g>
		</g>
		<g id="November" transform="translate(736.8421052631579, 2160.5263157894733)">
			<text x="0" y="0" style="font-family:'Helvetica';font-size:70.17543859649123px;fill:rgb(102,102,102);" text-anchor="left" dominant-baseline="central">November</text>
			<g id="November_weekbar" transform="translate(0, 105.26315789473685)" style="font-family:'Helvetica';font-size:35.08771929824562px;fill:rgb(51,51,51);" text-anchor="middle" dominant-baseline="central">
				<text x="35.08771929824562" y="0">Su</text>
				<text x="116.9590643274854" y="0">Mo</text>
				<text x="198.83040935672517" y="0">Tu</text>
				<text x="280.70175438596493" y="0">We</text>
				<text x="362.57309941520475" y="0">Th</text>
				<text x="444.44444444444446" y="0">Fr</text>
				<text x="526.3157894736843" y="0">Sa</text>
			</g>
			<g id="November_days" transform="translate(0, 105.26315789473685)" text-anchor="middle" dominant-baseline="central" style="font-family:'Helvetica';font-size:35.08771929824562px;fill:rgb(51,51,51);" >
				<circle cx="362.57309941520475" cy="81.87134502923978" r="35.08771929824562" style="fill:rgb(220,230,255);"/>
				<text x="362.57309941520475" y="81.87134502923978">01</text>
				<circle cx="444.44444444444446" cy="81.87134502923978" r="35.08771929824562" style="fill:rgb(220,230,255);"/>
				<text x="444.44444444444446" y="81.87134502923978">02</text>
				<circle cx="526.3157894736843" cy="81.87134502923978" r="35.08771929824562" style="fill:rgb(220,230,255);"/>
				<text x="526.3157894736843" y="81.87134502923978">03</text>
				<circle cx="35.08771929824562" cy="163.74269005847955" r="35.08771929824562" style="fill:rgb(220,230,255);"/>
				<text x="35.08771929824562" y="163.74269005847955">04</text>
				<circle cx="116.9590643274854" cy="163.74269005847955" r="35.08771929824562" style="fill:rgb(220,230,255);"/>
				<text x="116.9590643274854" y="163.74269005847955">05</text>
				<circle cx="198.83040935672517" cy="163.74269005847955" r="35.08771929824562" style="fill:rgb(220,230,255);"/>
				<text x="198.83040935672517" y="163.74269005847955">06</text>
				<circle cx="280.70175438596493" cy="163.74269005847955" r="35.08771929824562" style="fill:rgb(220,230,255);"/>
				<text x="280.70175438596493" y="163.74269005847955">07</text>
				<circle cx="362.57309941520475" cy="163.74269005847955" r="35.08771929824562" style="fill:rgb(220,230,255);"/>
				<text x="362.57309941520475" y="163.74269005847955">08</text>
				<circle cx="444.44444444444446" cy="163.74269005847955" r="35.08771929824562" style="fill:rgb(220,230,255);"/>
				<text x="444.44444444444446" y="163.74269005847955">09</text>
				<circle cx="526.3157894736843" cy="163.74269005847955" r="35.08771929824562" style="fill:rgb(220,230,255);"/>
				<text x="526.3157894736843" y="163.74269005847955">10</text>
				<circle cx="35.08771929824562" cy="245.61403508771934" r="35.08771929824562" style="fill:rgb(220,230,255);"/>
				<text x="35.08771929824562" y="245.61403508771934">11</text>
				<circle cx="116.9590643274854" cy="245.61403508771934" r="35.08771929824562" style="fill:rgb(220,230,255);"/>
				<text x="116.9590643274854" y="245.61403508771934">12</text>
				<circle cx="198.83040935672517" cy="245.61403508771934" r="35.08771929824562" style="fill:rgb(220,230,255);"/>
				<text x="198.83040935672517" y="245.61403508771934">13</text>
				<circle cx="280.70175438596493" cy="245.61403508771934" r="35.08771929824562" style="fill:rgb(220,230,255);"/>
				<text x="280.70175438596493" y="245.61403508771934">14</text>
				<circle cx="362.57309941520475" cy="245.61403508771934" r="35.08771929824562" style="fill:rgb(220,230,255);"/>
				<text x="362.57309941520475" y="245.61403508771934">15</text>
				<circle cx="444.44444444444446" cy="245.61403508771934" r="35.08771929824562" style="fill:rgb(220,230,255);"/>
				<text x="444.44444444444446" y="245.61403508771934">16</text>
				<circle cx="526.3157894736843" cy="245.61403508771934" r="35.08771929824562" style="fill:rgb(220,230,255);"/>
				<text x="526.3157894736843" y="245.61403508771934">17</text>
				<circle cx="35.08771929824562" cy="327.4853801169591" r="35.08771929824562" style="fill:rgb(220,230,255);"/>
				<text x="35.08771929824562" y="327.4853801169591">18</text>
				<circle cx="116.9590643274854" cy="327.4853801169591" r="35.08771929824562" style="fill:rgb(220,230,255);"/>
				<text x="116.9590643274854" y="327.4853801169591">19</text>
				<circle cx="198.83040935672517" cy="327.4853801169591" r="35.08771929824562" style="fill:rgb(220,230,255);"/>
				<text x="198.83040935672517" y="327.4853801169591">20</text>
				<circle cx="280.70175438596493" cy="327.4853801169591" r="35.08771929824562" style="fill:rgb(220,230,255);"/>
				<text x="280.70175438596493" y="327.4853801169591">21</text>
				<circle cx="362.57309941520475" cy="327.4853801169591" r="35.08771929824562" style="fill:rgb(220,230,255);"/>
				<text x="362.57309941520475" y="327.4853801169591">22</text>
				<circle cx="444.44444444444446" cy="327.4853801169591" r="35.08771929824562" style="fill:rgb(220,230,255);"/>
				<text x="444.44444444444446" y="327.4853801169591">23</text>
				<circle cx="526.3157894736843" cy="327.4853801169591" r="35.08771929824562" style="fill:rgb(220,230,255);"/>
				<text x="526.3157894736843" y="327.4853801169591">24</text>
				<circle cx="35.08771929824562" cy="409.35672514619887" r="35.08771929824562" style="fill:rgb(220,230,255);"/>
				<text x="35.08771929824562" y="409.35672514619887">25</text>
				<circle cx="116.9590643274854" cy="409.35672514619887" r="35.08771929824562" style="fill:rgb(220,230,255);"/>
				<text x="116.9590643274854" y="409.35672514619887">26</text>
				<circle cx="198.83040935672517" cy="409.35672514619887" r="35.08771929824562" style="fill:rgb(220,230,255);"/>
				<text x="198.83040935672517" y="409.35672514619887">27</text>
				<circle cx="280.70175438596493" cy="409.35672514619887" r="35.08771929824562" style="fill:rgb(220,230,255);"/>
				<text x="280.70175438596493" y="409.35672514619887">28</text>
				<circle cx="362.57309941520475" cy="409.35672514619887" r="35.08771929824562" style="fill:rgb(220,230,255);"/>
				<text x="362.57309941520475" y="409.35672514619887">29</text>
				<circle cx="444.44444444444446" cy="409.35672514619887" r="35.08771929824562" style="fill:rgb(220,230,255);"/>
				<text x="444.44444444444446" y="409.35672514619887">30</text>
			</g>
		</g>
		<g id="December" transform="translate(1473.6842105263158, 2160.5263157894733)">
			<text x="0" y="0" style="font-family:'Helvetica';font-size:70.17543859649123px;fill:rgb(102,102,102);" text-anchor="left" dominant-baseline="central">December</text>
			<g id="December_weekbar" transform="translate(0, 105.26315789473685)" style="font-family:'Helvetica';font-size:35.08771929824562px;fill:rgb(51,51,51);" text-anchor="middle" dominant-baseline="central">
				<text x="35.08771929824562" y="0">Su</text>
				<text x="116.9590643274854" y="0">Mo</text>
				<text x="198.83040935672517" y="0">Tu</text>
				<text x="280.70175438596493" y="0">We</text>
				<text x="362.57309941520475" y="0">Th</text>
				<text x="444.44444444444446" y="0">Fr</text>
				<text x="526.3157894736843" y="0">Sa</text>
			</g>
			<g id="December_days" transform="translate(0, 105.26315789473685)" text-anchor="middle" dominant-baseline="central" style="font-family:'Helvetica';font-size:35.08771929824562px;fill:rgb(51,51,51);" >
				<circle cx="526.3157894736843" cy="81.87134502923978" r="35.08771929824562" style="fill:rgb(220,230,255);"/>
				<text x="526.3157894736843" y="81.87134502923978">01</text>
				<circle cx="35.08771929824562" cy="163.74269005847955" r="35.08771929824562" style="fill:rgb(220,230,255);"/>
				<text x="35.08771929824562" y="163.74269005847955">02</text>
				<circle cx="116.9590643274854" cy="163.74269005847955" r="35.08771929824562" style="fill:rgb(220,230,255);"/>
				<text x="116.9590643274854" y="163.74269005847955">03</text>
				<circle cx="198.83040935672517" cy="163.74269005847955" r="35.08771929824562" style="fill:rgb(220,230,255);"/>
				<text x="198.83040935672517" y="163.74269005847955">04</text>
				<circle cx="280.70175438596493" cy="163.74269005847955" r="35.08771929824562" style="fill:rgb(220,230,255);"/>
				<text x="280.70175438596493" y="163.74269005847955">05</text>
				<circle cx="362.57309941520475" cy="163.74269005847955" r="35.08771929824562" style="fill:rgb(220,230,255);"/>
				<text x="362.57309941520475" y="163.74269005847955">06</text>
				<circle cx="444.44444444444446" cy="163.74269005847955" r="35.08771929824562" style="fill:rgb(220,230,255);"/>
				<text x="444.44444444444446" y="163.74269005847955">07</text>
				<circle cx="526.3157894736843" cy="163.74269005847955" r="35.08771929824562" style="fill:rgb(220,230,255);"/>
				<text x="526.3157894736843" y="163.74269005847955">08</text>
				<circle cx="35.08771929824562" cy="245.61403508771934" r="35.08771929824562" style="fill:rgb(220,230,255);"/>
				<text x="35.08771929824562" y="245.61403508771934">09</text>
				<circle cx="116.9590643274854" cy="245.61403508771934" r="35.08771929824562" style="fill:rgb(220,230,255);"/>
				<text x="116.9590643274854" y="245.61403508771934">10</text>
				<circle cx="198.83040935672517" cy="245.61403508771934" r="35.08771929824562" style="fill:rgb(220,230,255);"/>
				<text x="198.83040935672517" y="245.61403508771934">11</text>
				<circle cx="280.70175438596493" cy="245.61403508771934" r="35.08771929824562" style="fill:rgb(220,230,255);"/>
				<text x="280.70175438596493" y="245.61403508771934">12</text>
				<circle cx="362.57309941520475" cy="245.61403508771934" r="35.08771929824562" style="fill:rgb(220,230,255);"/>
				<text x="362.57309941520475" y="245.61403508771934">13</text>
				<circle cx="444.44444444444446" cy="245.61403508771934" r="35.08771929824562" style="fill:rgb(220,230,255);"/>
				<text x="444.44444444444446" y="245.61403508771934">14</text>
				<circle cx="526.3157894736843" cy="245.61403508771934" r="35.08771929824562" style="fill:rgb(220,230,255);"/>
				<text x="526.3157894736843" y="245.61403508771934">15</text>
				<circle cx="35.08771929824562" cy="327.4853801169591" r="35.08771929824562" style="fill:rgb(220,230,255);"/>
				<text x="35.08771929824562" y="327.4853801169591">16</text>
				<circle cx="116.9590643274854" cy="327.4853801169591" r="35.08771929824562" style="fill:rgb(220,230,255);"/>
				<text x="116.9590643274854" y="327.4853801169591">17</text>
				<circle cx="198.83040935672517" cy="327.4853801169591" r="35.08771929824562" style="fill:rgb(220,230,255);"/>
				<text x="198.83040935672517" y="327.4853801169591">18</text>
				<circle cx="280.70175438596493" cy="327.4853801169591" r="35.08771929824562" style="fill:rgb(220,230,255);"/>
				<text x="280.70175438596493" y="327.4853801169591">19</text>
				<circle cx="362.57309941520475" cy="327.4853801169591" r="35.08771929824562" style="fill:rgb(220,230,255);"/>
				<text x="362.57309941520475" y="327.4853801169591">20</text>
				<circle cx="444.44444444444446" cy="327.4853801169591" r="35.08771929824562" style="fill:rgb(220,230,255);"/>
				<text x="444.44444444444446" y="327.4853801169591">21</text>
				<circle cx="526.3157894736843" cy="327.4853801169591" r="35.08771929824562" style="fill:rgb(220,230,255);"/>
				<text x="526.3157894736843" y="327.4853801169591">22</text>
				<circle cx="35.08771929824562" cy="409.35672514619887" r="35.08771929824562" style="fill:rgb(220,230,255);"/>
				<text x="35.08771929824562" y="409.35672514619887">23</text>
				<circle cx="116.9590643274854" cy="409.35672514619887" r="35.08771929824562" style="fill:rgb(220,230,255);"/>
				<text x="116.9590643274854" y="409.35672514619887">24</text>
				<circle cx="198.83040935672517" cy="409.35672514619887" r="35.08771929824562" style="fill:rgb(220,230,255);"/>
				<text x="198.83040935672517" y="409.35672514619887">25</text>
				<circle cx="280.70175438596493" cy="409.35672514619887" r="35.08771929824562" style="fill:rgb(220,230,255);"/>
				<text x="280.70175438596493" y="409.35672514619887">26</text>
				<circle cx="362.57309941520475" cy="409.35672514619887" r="35.08771929824562" style="fill:rgb(220,230,255);"/>
				<text x="362.57309941520475" y="409.35672514619887">27</text>
				<circle cx="444.44444444444446" cy="409.35672514619887" r="35.08771929824562" style="fill:rgb(220,230,255);"/>
				<text x="444.44444444444446" y="409.35672514619887">28</text>
				<circle cx="526.3157894736843" cy="409.35672514619887" r="35.08771929824562" style="fill:rgb(220,230,255);"/>
				<text x="526.3157894736843" y="409.35672514619887">29</text>
				<circle cx="35.08771929824562" cy="491.2280701754387" r="35.08771929824562" style="fill:rgb(220,230,255);"/>
				<text x="35.08771929824562" y="491.2280701754387">30</text>
				<circle cx="116.9590643274854" cy="491.2280701754387" r="35.08771929824562" style="fill:rgb(220,230,255);"/>
				<text x="116.9590643274854" y="491.2280701754387">31</text>
			</g>
		</g>
	</g>
</svg>
