<?xml version="1.0" encoding="UTF-8" standalone="no"?>
<!DOCTYPE svg PUBLIC "-//W3C//DTD SVG 1.1//EN" "http://www.w3.org/Graphics/SVG/1.1/DTD/svg11.dtd">
<svg width="100%" height="100%" viewBox="0 0 3300 2550" xmlns="http://www.w3.org/2000/svg">
<style>/* <![CDATA[ */circle{fill:rgb(220,230,255);}/* ]]> */</style>
	<g id="page_title" transform="translate(75, 174.28571428571428)">
		<text x="0" y="0" style="font-family:'Futura', 'Helvetica';font-size:110.47619047619048px;fill:rgb(102,102,102);" text-anchor="start" dominant-baseline="central">Future Planning - 2018</text>
		</g>
<g id="calendar" width="2900" height="2100" transform="translate(75, 340)">
		<g id="January" transform="translate(0, 0)">
			<line x1="0" y1="0" x2="0" y2="2100" style="stroke:rgb(153,153,153);stroke-width:2" />
			<text x="27.61904761904762" y="55.23809523809524" style="font-family:'Futura', 'Helvetica';font-size:55.23809523809524px;fill:rgb(102,102,102);" text-anchor="left">January</text>
			<g id="minical" transform="translate(27.61904761904762, 165.71428571428572)" text-anchor="middle">
				<g id="January_weekbar" transform="translate(0, 0)" style="font-family:'Helvetica';font-size:27.61904761904762px;fill:rgb(102,102,102);">
					<text x="27.61904761904762" y="0">S</text>
					<text x="92.06349206349206" y="0">M</text>
					<text x="156.5079365079365" y="0">T</text>
					<text x="220.95238095238093" y="0">W</text>
					<text x="285.3968253968254" y="0">T</text>
					<text x="349.8412698412699" y="0">F</text>
					<text x="414.2857142857142" y="0">S</text>
				</g>
				<g id="January_days" transform="translate(0, 0)" style="font-family:'Helvetica';font-size:27.61904761904762px;fill:rgb(102,102,102);" >
					<text x="92.06349206349206" y="64.44444444444444">01</text>
					<text x="156.5079365079365" y="64.44444444444444">02</text>
					<text x="220.95238095238093" y="64.44444444444444">03</text>
					<text x="285.3968253968254" y="64.44444444444444">04</text>
					<text x="349.8412698412699" y="64.44444444444444">05</text>
					<text x="414.2857142857142" y="64.44444444444444">06</text>
					<text x="27.61904761904762" y="128.88888888888889">07</text>
					<text x="92.06349206349206" y="128.88888888888889">08</text>
					<text x="156.5079365079365" y="128.88888888888889">09</text>
					<text x="220.95238095238093" y="128.88888888888889">10</text>
					<text x="285.3968253968254" y="128.88888888888889">11</text>
					<text x="349.8412698412699" y="128.88888888888889">12</text>
					<text x="414.2857142857142" y="128.88888888888889">13</text>
					<text x="27.61904761904762" y="193.33333333333331">14</text>
					<text x="92.06349206349206" y="193.33333333333331">15</text>
					<text x="156.5079365079365" y="193.33333333333331">16</text>
					<text x="220.95238095238093" y="193.33333333333331">17</text>
					<text x="285.3968253968254" y="193.33333333333331">18</text>
					<text x="349.8412698412699" y="193.33333333333331">19</text>
					<text x="414.2857142857142" y="193.33333333333331">20</text>
					<text x="27.61904761904762" y="257.77777777777777">21</text>
					<text x="92.06349206349206" y="257.77777777777777">22</text>
					<text x="156.5079365079365" y="257.77777777777777">23</text>
					<text x="220.95238095238093" y="257.77777777777777">24</text>
					<text x="285.3968253968254" y="257.77777777777777">25</text>
					<text x="349.8412698412699" y="257.77777777777777">26</text>
					<text x="414.2857142857142" y="257.77777777777777">27</text>
					<text x="27.61904761904762" y="322.22222222222223">28</text>
					<text x="92.06349206349206" y="322.22222222222223">29</text>
					<text x="156.5079365079365" y="322.22222222222223">30</text>
					<text x="220.95238095238093" y="322.22222222222223">31</text>
				</g>
			</g>
		</g>
		<g id="February" transform="translate(538.5714285714286, 0)">
			<line x1="0" y1="0" x2="0" y2="2100" style="stroke:rgb(153,153,153);stroke-width:2" />
			<text x="27.61904761904762" y="55.23809523809524" style="font-family:'Futura', 'Helvetica';font-size:55.23809523809524px;fill:rgb(102,102,102);" text-anchor="left">February</text>
			<g id="minical" transform="translate(27.61904761904762, 165.71428571428572)" text-anchor="middle">
				<g id="February_weekbar" transform="translate(0, 0)" style="font-family:'Helvetica';font-size:27.61904761904762px;fill:rgb(102,102,102);">
					<text x="27.61904761904762" y="0">S</text>
					<text x="92.06349206349206" y="0">M</text>
					<text x="156.5079365079365" y="0">T</text>
					<text x="220.95238095238093" y="0">W</text>
					<text x="285.3968253968254" y="0">T</text>
					<text x="349.8412698412699" y="0">F</text>
					<text x="414.2857142857142" y="0">S</text>
				</g>
				<g id="February_days" transform="translate(0, 0)" style="font-family:'Helvetica';font-size:27.61904761904762px;fill:rgb(102,102,102);" >
					<text x="285.3968253968254" y="64.44444444444444">01</text>
					<text x="349.8412698412699" y="64.44444444444444">02</text>
					<text x="414.2857142857142" y="64.44444444444444">03</text>
					<text x="27.61904761904762" y="128.88888888888889">04</text>
					<text x="92.06349206349206" y="128.88888888888889">05</text>
					<text x="156.5079365079365" y="128.88888888888889">06</text>
					<text x="220.95238095238093" y="128.88888888888889">07</text>
					<text x="285.3968253968254" y="128.88888888888889">08</text>
					<text x="349.8412698412699" y="128.88888888888889">09</text>
					<text x="414.2857142857142" y="128.88888888888889">10</text>
					<text x="27.61904761904762" y="193.33333333333331">11</text>
					<text x="92.06349206349206" y="193.33333333333331">12</text>
					<text x="156.5079365079365" y="193.33333333333331">13</text>
					<text x="220.95238095238093" y="193.33333333333331">14</text>
					<text x="285.3968253968254" y="193.33333333333331">15</text>
					<text x="349.8412698412699" y="193.33333333333331">16</text>
					<text x="414.2857142857142" y="193.33333333333331">17</text>
					<text x="27.61904761904762" y="257.77777777777777">18</text>
					<text x="92.06349206349206" y="257.77777777777777">19</text>
					<text x="156.5079365079365" y="257.77777777777777">20</text>
					<text x="220.95238095238093" y="257.77777777777777">21</text>
					<text x="285.3968253968254" y="257.77777777777777">22</text>
					<text x="349.8412698412699" y="257.77777777777777">23</text>
					<text x="414.2857142857142" y="257.77777777777777">24</text>
					<text x="27.61904761904762" y="322.22222222222223">25</text>
					<text x="92.06349206349206" y="322.22222222222223">26</text>
					<text x="156.5079365079365" y="322.22222222222223">27</text>
					<text x="220.95238095238093" y="322.22222222222223">28</text>
				</g>
			</g>
		</g>
		<g id="March" transform="translate(1077.142857142857, 0)">
			<line x1="0" y1="0" x2="0" y2="2100" style="stroke:rgb(153,153,153);stroke-width:2" />
			<text x="27.61904761904762" y="55.23809523809524" style="font-family:'Futura', 'Helvetica';font-size:55.23809523809524px;fill:rgb(102,102,102);" text-anchor="left">March</text>
			<g id="minical" transform="translate(27.61904761904762, 165.71428571428572)" text-anchor="middle">
				<g id="March_weekbar" transform="translate(0, 0)" style="font-family:'Helvetica';font-size:27.61904761904762px;fill:rgb(102,102,102);">
					<text x="27.61904761904762" y="0">S</text>
					<text x="92.06349206349206" y="0">M</text>
					<text x="156.5079365079365" y="0">T</text>
					<text x="220.95238095238093" y="0">W</text>
					<text x="285.3968253968254" y="0">T</text>
					<text x="349.8412698412699" y="0">F</text>
					<text x="414.2857142857142" y="0">S</text>
				</g>
				<g id="March_days" transform="translate(0, 0)" style="font-family:'Helvetica';font-size:27.61904761904762px;fill:rgb(102,102,102);" >
					<text x="285.3968253968254" y="64.44444444444444">01</text>
					<text x="349.8412698412699" y="64.44444444444444">02</text>
					<text x="414.2857142857142" y="64.44444444444444">03</text>
					<text x="27.61904761904762" y="128.88888888888889">04</text>
					<text x="92.06349206349206" y="128.88888888888889">05</text>
					<text x="156.5079365079365" y="128.88888888888889">06</text>
					<text x="220.95238095238093" y="128.88888888888889">07</text>
					<text x="285.3968253968254" y="128.88888888888889">08</text>
					<text x="349.8412698412699" y="128.88888888888889">09</text>
					<text x="414.2857142857142" y="128.88888888888889">10</text>
					<text x="27.61904761904762" y="193.33333333333331">11</text>
					<text x="92.06349206349206" y="193.33333333333331">12</text>
					<text x="156.5079365079365" y="193.33333333333331">13</text>
					<text x="220.95238095238093" y="193.33333333333331">14</text>
					<text x="285.3968253968254" y="193.33333333333331">15</text>
					<text x="349.8412698412699" y="193.33333333333331">16</text>
					<text x="414.2857142857142" y="193.33333333333331">17</text>
					<text x="27.61904761904762" y="257.77777777777777">18</text>
					<text x="92.06349206349206" y="257.77777777777777">19</text>
					<text x="156.5079365079365" y="257.77777777777777">20</text>
					<text x="220.95238095238093" y="257.77777777777777">21</text>
					<text x="285.3968253968254" y="257.77777777777777">22</text>
					<text x="349.8412698412699" y="257.77777777777777">23</text>
					<text x="414.2857142857142" y="257.77777777777777">24</text>
					<text x="27.61904761904762" y="322.22222222222223">25</text>
					<text x="92.06349206349206" y="322.22222222222223">26</text>
					<text x="156.5079365079365" y="322.22222222222223">27</text>
					<text x="220.95238095238093" y="322.22222222222223">28</text>
					<text x="285.3968253968254" y="322.22222222222223">29</text>
					<text x="349.8412698412699" y="322.22222222222223">30</text>
					<text x="414.2857142857142" y="322.22222222222223">31</text>
				</g>
			</g>
		</g>
		<g id="April" transform="translate(1615.7142857142858, 0)">
			<line x1="0" y1="0" x2="0" y2="2100" style="stroke:rgb(153,153,153);stroke-width:2" />
			<text x="27.61904761904762" y="55.23809523809524" style="font-family:'Futura', 'Helvetica';font-size:55.23809523809524px;fill:rgb(102,102,102);" text-anchor="left">April</text>
			<g id="minical" transform="translate(27.61904761904762, 165.71428571428572)" text-anchor="middle">
				<g id="April_weekbar" transform="translate(0, 0)" style="font-family:'Helvetica';font-size:27.61904761904762px;fill:rgb(102,102,102);">
					<text x="27.61904761904762" y="0">S</text>
					<text x="92.06349206349206" y="0">M</text>
					<text x="156.5079365079365" y="0">T</text>
					<text x="220.95238095238093" y="0">W</text>
					<text x="285.3968253968254" y="0">T</text>
					<text x="349.8412698412699" y="0">F</text>
					<text x="414.2857142857142" y="0">S</text>
				</g>
				<g id="April_days" transform="translate(0, 0)" style="font-family:'Helvetica';font-size:27.61904761904762px;fill:rgb(102,102,102);" >
					<text x="27.61904761904762" y="64.44444444444444">01</text>
					<text x="92.06349206349206" y="64.44444444444444">02</text>
					<text x="156.5079365079365" y="64.44444444444444">03</text>
					<text x="220.95238095238093" y="64.44444444444444">04</text>
					<text x="285.3968253968254" y="64.44444444444444">05</text>
					<text x="349.8412698412699" y="64.44444444444444">06</text>
					<text x="414.2857142857142" y="64.44444444444444">07</text>
					<text x="27.61904761904762" y="128.88888888888889">08</text>
					<text x="92.06349206349206" y="128.88888888888889">09</text>
					<text x="156.5079365079365" y="128.88888888888889">10</text>
					<text x="220.95238095238093" y="128.88888888888889">11</text>
					<text x="285.3968253968254" y="128.88888888888889">12</text>
					<text x="349.8412698412699" y="128.88888888888889">13</text>
					<text x="414.2857142857142" y="128.88888888888889">14</text>
					<text x="27.61904761904762" y="193.33333333333331">15</text>
					<text x="92.06349206349206" y="193.33333333333331">16</text>
					<text x="156.5079365079365" y="193.33333333333331">17</text>
					<text x="220.95238095238093" y="193.33333333333331">18</text>
					<text x="285.3968253968254" y="193.33333333333331">19</text>
					<text x="349.8412698412699" y="193.33333333333331">20</text>
					<text x="414.2857142857142" y="193.33333333333331">21</text>
					<text x="27.61904761904762" y="257.77777777777777">22</text>
					<text x="92.06349206349206" y="257.77777777777777">23</text>
					<text x="156.5079365079365" y="257.77777777777777">24</text>
					<text x="220.95238095238093" y="257.77777777777777">25</text>
					<text x="285.3968253968254" y="257.77777777777777">26</text>
					<text x="349.8412698412699" y="257.77777777777777">27</text>
					<text x="414.2857142857142" y="257.77777777777777">28</text>
					<text x="27.61904761904762" y="322.22222222222223">29</text>
					<text x="92.06349206349206" y="322.22222222222223">30</text>
				</g>
			</g>
		</g>
		<g id="May" transform="translate(2154.285714285714, 0)">
			<line x1="0" y1="0" x2="0" y2="2100" style="stroke:rgb(153,153,153);stroke-width:2" />
			<text x="27.61904761904762" y="55.23809523809524" style="font-family:'Futura', 'Helvetica';font-size:55.23809523809524px;fill:rgb(102,102,102);" text-anchor="left">May</text>
			<g id="minical" transform="translate(27.61904761904762, 165.71428571428572)" text-anchor="middle">
				<g id="May_weekbar" transform="translate(0, 0)" style="font-family:'Helvetica';font-size:27.61904761904762px;fill:rgb(102,102,102);">
					<text x="27.61904761904762" y="0">S</text>
					<text x="92.06349206349206" y="0">M</text>
					<text x="156.5079365079365" y="0">T</text>
					<text x="220.95238095238093" y="0">W</text>
					<text x="285.3968253968254" y="0">T</text>
					<text x="349.8412698412699" y="0">F</text>
					<text x="414.2857142857142" y="0">S</text>
				</g>
				<g id="May_days" transform="translate(0, 0)" style="font-family:'Helvetica';font-size:27.61904761904762px;fill:rgb(102,102,102);" >
					<text x="156.5079365079365" y="64.44444444444444">01</text>
					<text x="220.95238095238093" y="64.44444444444444">02</text>
					<text x="285.3968253968254" y="64.44444444444444">03</text>
					<text x="349.8412698412699" y="64.44444444444444">04</text>
					<text x="414.2857142857142" y="64.44444444444444">05</text>
					<text x="27.61904761904762" y="128.88888888888889">06</text>
					<text x="92.06349206349206" y="128.88888888888889">07</text>
					<text x="156.5079365079365" y="128.88888888888889">08</text>
					<text x="220.95238095238093" y="128.88888888888889">09</text>
					<text x="285.3968253968254" y="128.88888888888889">10</text>
					<text x="349.8412698412699" y="128.88888888888889">11</text>
					<text x="414.2857142857142" y="128.88888888888889">12</text>
					<text x="27.61904761904762" y="193.33333333333331">13</text>
					<text x="92.06349206349206" y="193.33333333333331">14</text>
					<text x="156.5079365079365" y="193.33333333333331">15</text>
					<text x="220.95238095238093" y="193.33333333333331">16</text>
					<text x="285.3968253968254" y="193.33333333333331">17</text>
					<text x="349.8412698412699" y="193.33333333333331">18</text>
					<text x="414.2857142857142" y="193.33333333333331">19</text>
					<text x="27.61904761904762" y="257.77777777777777">20</text>
					<text x="92.06349206349206" y="257.77777777777777">21</text>
					<text x="156.5079365079365" y="257.77777777777777">22</text>
					<text x="220.95238095238093" y="257.77777777777777">23</text>
					<text x="285.3968253968254" y="257.77777777777777">24</text>
					<text x="349.8412698412699" y="257.77777777777777">25</text>
					<text x="414.2857142857142" y="257.77777777777777">26</text>
					<text x="27.61904761904762" y="322.22222222222223">27</text>
					<text x="92.06349206349206" y="322.22222222222223">28</text>
					<text x="156.5079365079365" y="322.22222222222223">29</text>
					<text x="220.95238095238093" y="322.22222222222223">30</text>
					<text x="285.3968253968254" y="322.22222222222223">31</text>
				</g>
			</g>
		</g>
		<g id="June" transform="translate(2692.8571428571427, 0)">
			<line x1="0" y1="0" x2="0" y2="2100" style="stroke:rgb(153,153,153);stroke-width:2" />
			<text x="27.61904761904762" y="55.23809523809524" style="font-family:'Futura', 'Helvetica';font-size:55.23809523809524px;fill:rgb(102,102,102);" text-anchor="left">June</text>
			<g id="minical" transform="translate(27.61904761904762, 165.71428571428572)" text-anchor="middle">
				<g id="June_weekbar" transform="translate(0, 0)" style="font-family:'Helvetica';font-size:27.61904761904762px;fill:rgb(102,102,102);">
					<text x="27.61904761904762" y="0">S</text>
					<text x="92.06349206349206" y="0">M</text>
					<text x="156.5079365079365" y="0">T</text>
					<text x="220.95238095238093" y="0">W</text>
					<text x="285.3968253968254" y="0">T</text>
					<text x="349.8412698412699" y="0">F</text>
					<text x="414.2857142857142" y="0">S</text>
				</g>
				<g id="June_days" transform="translate(0, 0)" style="font-family:'Helvetica';font-size:27.61904761904762px;fill:rgb(102,102,102);" >
					<text x="349.8412698412699" y="64.44444444444444">01</text>
					<text x="414.2857142857142" y="64.44444444444444">02</text>
					<text x="27.61904761904762" y="128.88888888888889">03</text>
					<text x="92.06349206349206" y="128.88888888888889">04</text>
					<text x="156.5079365079365" y="128.88888888888889">05</text>
					<text x="220.95238095238093" y="128.88888888888889">06</text>
					<text x="285.3968253968254" y="128.88888888888889">07</text>
					<text x="349.8412698412699" y="128.88888888888889">08</text>
					<text x="414.2857142857142" y="128.88888888888889">09</text>
					<text x="27.61904761904762" y="193.33333333333331">10</text>
					<text x="92.06349206349206" y="193.33333333333331">11</text>
					<text x="156.5079365079365" y="193.33333333333331">12</text>
					<text x="220.95238095238093" y="193.33333333333331">13</text>
					<text x="285.3968253968254" y="193.33333333333331">14</text>
					<text x="349.8412698412699" y="193.33333333333331">15</text>
					<text x="414.2857142857142" y="193.33333333333331">16</text>
					<text x="27.61904761904762" y="257.77777777777777">17</text>
					<text x="92.06349206349206" y="257.77777777777777">18</text>
					<text x="156.5079365079365" y="257.77777777777777">19</text>
					<text x="220.95238095238093" y="257.77777777777777">20</text>
					<text x="285.3968253968254" y="257.77777777777777">21</text>
					<text x="349.8412698412699" y="257.77777777777777">22</text>
					<text x="414.2857142857142" y="257.77777777777777">23</text>
					<text x="27.61904761904762" y="322.22222222222223">24</text>
					<text x="92.06349206349206" y="322.22222222222223">25</text>
					<text x="156.5079365079365" y="322.22222222222223">26</text>
					<text x="220.95238095238093" y="322.22222222222223">27</text>
					<text x="285.3968253968254" y="322.22222222222223">28</text>
					<text x="349.8412698412699" y="322.22222222222223">29</text>
					<text x="414.2857142857142" y="322.22222222222223">30</text>
				</g>
			</g>
		</g>
	</g>
</svg>